<mxfile host="65bd71144e">
    <diagram id="GSb0a9iUztH6pfpvPKSJ" name="Page-1">
        <mxGraphModel dx="760" dy="390" grid="1" gridSize="10" guides="1" tooltips="1" connect="1" arrows="1" fold="1" page="1" pageScale="1" pageWidth="827" pageHeight="1169" math="0" shadow="0">
            <root>
                <mxCell id="0"/>
                <mxCell id="1" parent="0"/>
                <mxCell id="2" value="" style="shape=image;verticalLabelPosition=bottom;labelBackgroundColor=default;verticalAlign=top;aspect=fixed;imageAspect=0;image=data:image/png,iVBORw0KGgoAAAANSUhEUgAAAeUAAAIICAYAAABQAvajAAAAAXNSR0IArs4c6QAAIABJREFUeF7svQmcHEX5///p7rln7zP3fUAI4QokJCECcoTDAwUUlEPlEBUBQUBAQUW/XniifBWDfBFBf6AQkADhhiQEAoRcJCH3tTk2e+/s3N3//6dmZ7PH7E5Pz8zO7G6Vr5iw29Vd9anqftfz1FNVCgADGU6egnLMO/fb8Ddshq9hK6Lhtgw/Qd5OKiAVkApIBaQCg0MBu7MIBeVTUFR9FBSXy5UxKBuGgVAoBLe3DMfMPA3+xm0wjOjgUE3WQiogFZAKSAWkAllRQIGq2VFcPQPKJz/5yYxBmUBesWIFSP2pUydDj/izUnx5U6lAPivA96C1tRUcpPZHstvtKCwshKIo/fE4+QypgFQgKwoosDsLoZx++ulpfzn4MeCHgR+jpUuXwuYoxOSJo7JSbHlTqUC+K1BXV4eGhgaUlZVlHZTNzc0IBoOYOHEiNE3Ld2lk+aQCUoEkCijV1dVpQ9lms+HII4+ErusSyrLLDXkFDh06JAD55ptvoqCgICsWM63wTZs24Wc/+xlefPFFMQBQVTUr2nPQna17dy8w61VUVASn05mVusibSgXyXQFl9uzZKUOZL04wEERUj+LAgQPihZ0+fXoHlFWbC1Mnj8/3usvySQWyogChzIHqBx98gL179yIcDmf8OZFIBM8uehYvvPgCPlj1AVwuV8afEb8h711aWioGGvSIZSvxu9LQ0Ai32yXc8TJJBYaiAsqhQ4dShnI0GsX6detRX1+P793xPbS0tHSBcigcxjEzZgxFPWWdpQKIQ/n999/Hjh07xLROphOhvOjpRXj99dex/qP1OO6448RAIBuJHrDt27cL8I8ePTobjxD3JJQ5iGGih0EmqcBQVECpra1NGcr8IKx8dyU4d3bvT+6Fz+frCuVQCMccc8xQ1FPWWSqQEyjPnDkza1DmIHzLli1wu90YM2ZM1lqYUN6zZ4+EctYUljceCAooK1asSBnKHPk/s+gZYSkveWkJCOnO7mv+XkJ5IDS/LGM2FMiFpSyhnI2WlPeUCvS/Asry5cstQZmuM0L5lVdfkVDu/3aTT8xjBSSUrTWOtJSt6SZz5Y8CnYMi2Z859ZNqyimUuaqyWAO4kKP7CkuGxvg1QBVBmD3HDSG/Aj2SanXl9VKB7CsgoWxNYwlla7rJXIkVYAAygxPpyWXfIjAdDof4m8GXnJbJZOLzJk+ejHHjxonn1NbWimDPVGNKcgpljwr8tDqE0bZIDypv0+341ygNJfMPQLN3pa8eUfHhE9Wo3ZadwJZMNpS819BTQELZWptLKFvTTebqqgChy2V1J510Eqqrq7FmzRps3LhRrBy46KKL4PV6xTJCxklkMhHEt9xyC4444ggBfm4g9P3vf1/EmKSScgplrwo8MCKAcfZwD0v5Y92BhePtKD9rKzR7oEud9Igd7z48Afs3OVKpq7xWKtAvCkgoW5NZQtmabjJXVwUqKirwhS98AbNmzRIgbmxsxL///W+sXbsWd999t1hu97//+79YtmxZ2tJ5PB5hjfv9fjEAuPHGGzuCIQOBAO6//37xXPZtrl7gSqVkLu0uUI7vXd3d1O9ecprjmZhTjkN5vL3nOk4B5Ql2lJ+ZCMo2vPvwRAnltLuUvEE2FMhXKJeUlKCqqkp8qPjB2LdvH9rakh8WI6Ovs9FL5D0zrQCXBNJ1fOGFF2LatGlieV1NTQ1mzJghQMglirNnzxau5QceeCBtKHPZ3pe+9CWMGjUKW7duFRYyVyfEd9YjRwnhVatWiZ8R2o8//jg2bNjQJ5i7QJk3ePTvj4pt+0j1L1/25YTrBSWUM92d5P0GkwJWocwPB91eZvaw7r5OOVn0NXfIOvfcc8WcF+8vljWuXInly5eLf/eVJJQHU+8cnHUh9Lji54orrkB5eTk+/vhjPPnkk2LQyT5/wQUXiA1wOO/L+eR0ocznEfBXX321WCpoJhHSBPSf/vQnAeveUhcoNzU14YE/PSBG0TTLr/vGdQl31pFQNtME8pqhqoAVKHOvbLrThg8fjmOPPTbpPtZmoUwA8wPCebQzzjhDjNb5b1oLnFN77rnnhOutr6AXs1Dms9I5hEO6r4fqG2O93uxzZNX8+fNxzjnniLlkvkcffvghTjnlFGG5crtb7qnB3/O/2c8efvhhvPrqq5aDvfgO0VXNpcCdt6DlIICWMKHLwcCIESO6DLK5Yum+++7rcz5bWbp0aUdoM6H84F8e7IDytV+/NutQ/lP7nHL3ZtmsO/AQ55TP2AbVEezyaz1iw7v/Nx4H5Jyy9d4sc2ZNgVSgzA8E/6xevRqPPvqo2DGLo29+aPqymM1CmfClFc0DK+j94geEbjf+e/fu3eJjxQ8FXXu9RYmagTJdh5zLY3AL/3ROdJfTeuH3hQOA3pKEcta65KC8cTygix6gBQsWCA/va6+9JlzJn/70pzFhwgQxIKWRyZ3v3nnnHXzmM58RIN2/fz/+8Y9/YN26dSlHR1NM9ul58+YJC5wDXSb27X/961946623hDVOV/p1112HYcOGiXeZ7xcHDLyGg/BeLeU777jTYGWY+GKNGTtGvLg2zYbJUyYn3Os2U5ayU1XwtSobquw9l0TVRIC3KsIoO7YVqtZ1rZceVfDRq17U783OBvyDsgfLSvWbAmahHIcQd7Hi8gl+UEaOHCmiRukS4yEvvW03aQbK/BBMmjQJn/rUp8T94usm+XO6ynfu3InKykrx4WIgDCGdKJmBMu/DDyE/Nq+88ooAMBPd5hwUcF7v7bffFpGwvQW6SCj3WxcdFA8iDL/4xS+KLWZpmT777LOijxPS9Dh1HtSScQQwgcn3ikAlRJ955hlhMVvZn55gvuSSS4QFTmZu27YNv/71r8W7zMQBMd8JgpvvGGM47r33XjEI7sujpHzugs8Z8ZFtcXGxcFkn29w+U1BWbA7YZ30Bhrcc6HYWrK3lAI5pfRanTa2FvRuUI7qCf73lwtZ98vzYQfF2DbJKmIUyYff000+LDwVfUn4YxIDYZhMQvfLKKzF16tSE6piBMu9FIJ522mnio8By0WpgIhj5/LFjx4p/L168GOvXr0/4sTADZX6A5syZI1zvu3btEpYJvyt8PqNgGXSzZMkSEQkrLeVB1uFzVB0GVn3zm98UA8FFixYJy/jss88WA9lEXib2c07ZEN60Yk899VSxVOrBBx/s04PTW/X4nhLKHATwXaOF/pvf/KYLlM8//3x8/vOfF+8fg84IZZY3b6EMpxd1X/w96irGwei2KGp47SZce/AH+NbcFXDau7qvwxEbbv77eCzflL0Ta3LUz+RjB4ECqUCZwSgEWDzxY8L5KrqvGdk5ZcqUtKBMqPPDwIE0R/Cd57g40ufHhKDm4KC3dZtmoBy3ik888UQBYYKZOtBC5klyL730UlILQVrKg6Dz92MV6IVh/6ZXhoD9xCc+Id6dvhLBfPDgQTGnTEuZg0T2z1RjIQhkDkJpBfOdYuJ8MqOr6aLmAJvz13Rf0/vF95rW+htvvCG8Un0NTpWLL7rYiC+L4CT5VVdf1W+WMqF86JL7UVsxHkY3o3fkwU247uBd+Pa85XB2W6ccitjxnUcmYtlGCeV+fAfko0wqkA6U+Q7SQmakKP9NOCdKZixl5uOazLPOOktMQ/GDRbceIUxIx5dA0oql65wHyyRKZqHMvLTwCWW6FPlMni718ssvi49Qsg+fhLLJDiYv6zKIJZzvuOMOMYCNW8jsywy4Yj9nPAOnceJLlfgzrlPmyoNkfbI3qfku3XTTTTjqqKO6BHrxuXSTNzc3iyVSXC7V2WqnlfyrX/2q70Cvxx57zIgfKM5CM1gj2YHmmXJfSyjLt2swKpAulK+55hqUlZUJIMffze46mYUyPwgEJT8i8ehTupU5EKeFwHleWhrxuJJ0ocz8dGXTYuYHKW4hm2lnCWUzKslruivA6dY777yzY7kff09X8m9/+1sBx6OPPhrf+ta3OozNTC2Jmjt3Lr761a/2WBIVB313F3o8oPOPf/yjKFdvSVmyZImR6tmlEsryxZAK9K5AOlDmixwHMjdBSMd93bmEBCXnvjh6Z6Ibb9OmTXj++eeTRp+mYinHn0krmYN8wt6sNSKhLN8qKwokgvLmzZuFRRqHMq3a+HriTEA57oW67LLLxIoJeoS4BIoD0bhRy/5My5k7evFnDIake5uWdF+7ekkoW+kFMo9UoA8FUoEy55foOu6eaCVfddVVIlI0UTJrKcfzxmFPKPPetJa5wUKySFDmtwJlKx1EQtmKajIPoUz3NaEYB2JfUKZRyc1D6L5ON9EDxcEnPU9c+nTDDTd02WaTG4VwuSMTy8lBQtJtNu+55x4jPpJ1u9yYM3dO0sPSM2YpOzxouvAXaCob0yPQq7xuM66o/Qmunb0azm7bcIYiGu765wi8s1keSJFup5L5M6+AWSjzvePHg0spuidamscff7yYW84ElHmP+LFy8U0++HEwY8VKKGe+j8g7Zk4BBl1xhQHXH8fnjbnMkMudGMzFQCsGZMWngghQbprDJYGZTLx/5wMpuEzL0oEUuVwSxWVQiqcUUBPAVQ/DE22G1xntvloKhgE0+oCQPLoxk31K3itDCpiFcvxxvYExE5uHZKJKEsqZUFHeI5sKEMwcyMbfGfbZeJwErWcCM/47DkZpWCazWFMtL5/DaHAuzeLzGLPBrWxTProxp1BOtdbyeqnAAFAgVShbqVKq7msrz4jnkVBORz2ZdygpQDB3nlO2cmazctGFFxnxpRBcgvG1q77WMaqIuwK6i5ox9/VQai1Z1yGjgISytaaWc8rWdJO5BpcCyj8e/YcRicb8wITt2jVrRWCHOFXmvHMTrpOUUB5cnUDWJrMKSChb01NC2ZpuMtfgUiCnp0QNLillbaQCMQVyAWVu1sF5tWwkzr0xGI0DdS7/yFYilLk/MFOqyzSzVSZ5X6lAfysgodzfisvnDXoF4lBesWKFWHbU18YcVsXgnPKSF5eIfbNXfbgq6alSVp/DfFxCxV3A+IfrnbOVOF3GKTQG7EgoZ0tled98V6ALlPnScYefSDgiXoyT55yccEch6b7O92aV5culAoQyrb577r4Hy5ctt3QCjZny8z3kftVr169FSUlJ0p34zNwz0TW0kBm8kmoUaarP4zO4LSijZLMJ/1TLJa+XCvSnAl2gbPbBEspmlZLXDUUFCGXuccuBLS3abKb4cYyd9/bNxvP6Wp6V6eeZWTud6WfK+0kF8kUBCeV8aQlZjkGjAN3V3Dgg0+sgEwkUtyrp9u1PcA6axpIVkQrkmQISynnWILI4UgGpgFRAKjB0FcgalOfNm5dXqjKIJJklEQ9myauCy8JIBaQCA1YBfnOSfXcGbOVkwbOiQNagzL1FGXna1xFVWalRt5vyAOqxY8di3Lhx4vi6zi9I/N+cw+IfHg7w2GOPZS1gpnt9+3vuTH4c+qPHyWcMBgXSfTf5rtEQYFxB/MSsZLoMpPfTqj4DqY65GlBlDco8R/Xmm2+Gx+XpN8h17/TcFGXipIn49re/LY7A4zKL+Gb8DMDhv+NrO9nJ/v73v2PhwoX9Vl6rHTvZy93b3KOVfDKPVGCoKmD2/eS3hKdudY8hYDQ5DQEuKePffZ1TnysAWG1bs9p0v7+EcnLFlUceecRIflnXK9gJ3333XbQ0t+D1N14XO4DxhA52yqVLl4qlE0uWLBEHS3NTA44Uc5F4QggTT+6IQ5ll5EbhjJBlqqioQFVVlRjVSijnopXkM6UC+amAWfBwm+K9e/f2WDLG7x6P8ysuLhZLSwnn3qAkoZx/fSBXbaJce821KUNZHN7c6hObIrz9ztu9Qvn6668Xx8/lEsqEcGco8/xYHkgdt5QJ4zFjxogDqCWU8+/FkCWSCuRKAbNQppXMowK7r+Pmd2/48OECyvzO0FPX265ruQKAVW3NaiMt5dQVVk499dSUoczHhENhAbYdO3eI0V8iSzkfocyXh6NapviolUDmnPOjjz4q3dep9yGZQyowKBUwC55kUI5v7EJLubdNUSSU87ML9TXlkK0SK+Xl5Zag3LlAHBEOFCjv3r0bNTU1XaBMF/b48eP7HcrZalR5X6mAVKB/FCC4zUCZ0OW8ssvl6rVgZgcB/VMz+RS2WU6gfOyxx6YNZRac1mY4HO4yp9zdUuZ18WCIzv/u3PydI6LT7RacU+7uvpZQTldVmV8qIBWIKyCm8nw+8LvSm/ualrKE8sDrMzmD8jnnnJM2lONyc465c6BXZyjTmubc7c6dO4ULZ+TIkdi/f7/Y+YiAZiAEE0eT/FNbWyuWKTGIzOqeuxLKA+9FkCWWCgwkBSSUB1JrpVbWQQ1lQrisrAynn346XnvtNeHqpmVNaPKUG3bsWbNmiSAIbhfIwAjO+/LndDWvWbPG0paFEsqpdUJezbai/hxEcY15W1ubJe1Tf7LMIRUYeApIKA+8NjNb4pxBecGCBRmxlFmB3ixlum8WLFgglkdxo37unLVr1y6xXIBW8BtvvIGjjz5aWMWEN+dduGyJgWT8e9WqVQLQqaa8grICKAC6V4O6MSqT3oGmpiahASM2+TcHJP2xf3JcV3oszj//fFx22WUiWnTTpk343e9+JzwaMkkFpAI9FZBQHry9ImdQnjRpUuq069YO/IBz1yxCNJH7mpCdPXs2zjnnHDH3wsAIRjvv2LEDXKK0du1anHXWWWJOmlDmgeo8wm39+vUoLy8X1nW+Q1m1A/yjuRQYMBDhEukwoEcBzQ64x5DICtp2G9BDhwWkNt/4xjfAU36efPJJ1NXVic1OaKV+//vfF1plIrGDUVtGgHKwkkhP/o7LxyZOnIitW7di6tSp+MlPfiK8GTJJBaQCEspDqQ/kDMqjRo2yBGVacPywE6R0O/cVfU2XNC0wzinTGiRwCHHCmPDllpy0DgnguXPnCitx3759wqL+4IMPOpYwpdoh+sNSVh2AqxpwjTbgLDeg2LhlJ4CIguBBFb7t/DdQOk8XlvKht1SEGw/XhBbyz3/+c7G5Ca1SehJ+8IMfCOuUc/Kcc89Eojv6qquuEoOf3gY47ISlpaXCOm9sjBXyxz/+sfBUyCQVkApIKA+lPpAzKC9dujRlKBOaW7dsFYD9/R9+LyyvvqDM+eMjjzxSgJjW74wZM4RlyKCvjRs3Yt26dZgzZ47YWYuWIy1vgpuu7YMHD+Ltt98WfYHP5QCA0KCrlZZ5XxZ0tqGsugwUH0UrWIfCTcuigM7jcxVA1f5/omlA1KcgsEeBe4IOxQAOvaEh1NAVyr/61a8wYcIE/PKXvxRa0kLmeuqbbropY1BmByP42Q7Usfs5v/w9B0VXXHGF0P+dd97B888/L/7m4EgmqYBUQEJ5KPWBnEG5tbXVEpRXf7hauFpvve1WAY6+oMzgIVrEnFfesGGDcI/SEh41apTYXYvu6smTJwtoM8CLljVBwPXDhDatR/6bvyO8ONfK+ejVq1f3eYh8NqFMV3XhNAMFk3QB4eABFYG9CsLNPBUGsJcaAtb8m5azqkK4rRNB+f777wcPzqBVyo5w5513ijl37h2eKUuZLxPvTeAmShzsXHDBBcKa5hakt912m5hqIMBlkgpIBRIrIOeUB2/PyBmU33///ZShzN28Fi9eLOaDFz2zSLiwk20ewvlKQpnBYAQzrWS6So899lgB3njENS1lwprWM39Pi5iQoPuVed1ut7CgCXoCK1eWsns0UDpTF+7qYI2KxlUKIm2xDqraOLcMaEUKSo6NQiswBLiNYE8os948BIPBXt/73vfE4OWOO+4Q+hDKnFOOd474lAGvoZ5mE/NxYNPdOu6cn8F4v/jFL4Q1zbalK516yyQVkAr0roCE8uDtHTmD8vLly1OGMqG46OlFAsqvvPqK+NgngzIrSLDG1x7Ho4rj7mg2LX8Wt+bie1Pzv61GIGfLUlY1BSXH63CP1xE6qKLhPRWRTg4Hz2ig+DgdCo1SmwFFjXVcAeXXNYQ6zSnTO/CHP/xBWLCcQx49erSAMz0I3/3udwWU6R0488wzxdzuhx9+KFzMDJpjnr4GJfGNWOjRoPVN70SixPtwzp8HiHBKgtfy2E0rwXWD9xWVNZMKSPf1UOoDgx7KuWjMrEHZoaDiFLqmdTR+oMWCuToNbdyjgOIZDLvuWms9qKDxbRWhTrFbnEu/++67xQCHUObSsNtvvx2bN28Wf7MOV155Jb785S/j9ddfx3333ScgzXXdHOT0NWCJdypa3a+88oq4V/fEa3i/H/7wh2JA8PjjjwvLnd4PmaQCUoG+FZCW8uDtIRLKWWjbbEFZcwMVp+rQXAYa3tHgj22l3ZHE0ihP+8Lkzr8wgEiLAUOP/ZBQveaaa3DRRRfhzTffFO7jk046Sczn0lK96667BDBvvfVWsZyJgWCvvvqqyEvrNm4JJ5OO4ObccHfLl1MDnN/nkiwG3zEIj5Hg8QM7kt1X/l4qMNQVkFAevD1AQjkLbZs1KLuAik/osHkN1L+rwb8n9cITiDwE49577xVBbL/5zW/w4osv4rTTThNu6y1btoh1y1/72tfEcjGu/6aVzKj0dBM7G+fmOZ//la98RYCZ8/qcR6aFbnW6IN1yyfxSgYGmgITyQGsx8+WVUDavlekrswVlxa6gfI4OZ7UO30YNzesV6FHzU/NsbM4l33jjjTjmmGNE4Ns999wjAto4d8wAL86pM9CKkei0jh988MGO/cBNC5DgQsKY8//nnnuuOOuaAWPLli0TZ0lzHlsCOR11Zd6hpkAmoWzW8zXUNI7XN50YF6t5c3JK1F/+8hdTNGFAFpct0W2aSqDXiSeeKNy0uUjct5lw4y5VjCpmhHMmTonikqciLoeapkNvU9D0oQb/fgNGt9VDIsBLReznnVSmHpdffjkuvfRSUR5awHQdM5199tliRy9Gl9ONTAv5qaeeEsC22rHi2rPt5s2bJwK6GPXNZVd0m3PzFs5pp3v/XLSxfKZUIJcKZArKBLKEct8tmY7BkM63rb/bRVlwtrm9r7kM59qvXyssK7NQ5tzo5z//+Y4ToPr75eGSKbpjCblMQpn1sBcD5Sfr0IoMRFtVNK9REThwGMycV+ayKWcF0PyRIdYvxxMbmZunMMiLu5pxvTXnfPlzbrRyxhlnCEh+9NFHImI6k0FXXGbGpWnUhrulcXOWvpZK9Xebyef1jwJWPlL9/XHqHyXSe4qEcnr6pZKbWlvpt3yG1XyplC9T1ypnnXmWKUuZUL7uG9eZhjIjhWnh8UCJXCV+RI466ihhHdJlyzpkwlIW9VEB9zCg6BgdtkIDRlBB8JCCcFNsnTKhbS/jEi+gZZOGlg3oCPAS2VVV7E5GIHYfAcajqrOxcQc14XPZSSWMc9Uzc/9cKx8pCeWe7Sah3H99WUK5m9apQpnzoH/4/e9Qu29nZ89t/7Vg+5MUKKiorMQfHlgotvHMGJTbweys5PInA/YiHbAdrp6ix7bcDO5X0bJORYjrmE0Nf/pdIvnAIaiAhHJmGl1COTM6mrnLkIHy//z0f0yhwuF0YObMmWJ+2Kz7+sd33YyFt56HgkJvbEPoHCXD7oVnxiXwFJZmFspi60pAdStwVRmwlRhiJy8eRhFuAyJNQLAW0Lnk15TKORJIPnbIKSChnJkml1DOjI5m7jJkoJzNHb1+fNcteOLei6DtehoG/bppJxWK5oER5QEJPPnBZHKPhuPcR+AuzrCl3O3xDOxSVAWglaxLCptsHXlZDhSQUM6M6BLKmdHRzF0klPtQybylfAue+MnFUDcvhB7aa0b3Pq7RYC87EZ5jr0Vg62IEdz0NGOZ2nVK80+H8zKKsQznNCsrsUoF+U0BCOTNSSyhnRkczdxkyUH7sscdMmXRcTsOTjFJZEiUs5QxBWbFXonDOT+A6+hKE96xA84vXIOrn/pbJk4Ryco3kFUNLAQnlzLS3hHJmdDRzlyED5XPPOdcUlBnodfU1V5uOvl6yZAkyCWXHiHNQdO6foXmrYQQa0LzkZgR2/D9T1rKEspkuL68ZSgpIKGemtSWUM6OjmbsMGShna0lUelDmvtEOKIqNk7RQ7OUomH0XXDMuhcKjlwwdoW2vouWN2xD17wJ07s4RhSEiqnqe/yuhbKbLy2uGkgISyplpbQnlzOho5i4Syt1USnVJlHUoq1Cdo+Acew7sFUdALRkHtXA4bKUToDiLO0plRIKI1n2MaMt+RJt3Ilq/BaGdSxBp3dgDzBLKZrq8vGYoKSChnJnWllDOjI5m7jJkoHznHXeacl87XU7Mnz9fbP+Y1UAvxQn3lK+gYP5dUAlh7sQRP5A4UcsZOgzuYxkJwffO79G26mcwDEZnH04Syma6vLxmKCkgoZyZ1pZQzoyOZu4yZKC8bNkyU1CmaPEdfbIKZajQCqej6JP3wTF6Hre+St5ehoFo43Y0L/k2Qvtf6nG9hHJyCeUVQ0sBCeXMtLeEcmZ0NHOXIQPlrK9TthR9rcFeMQsFc34Ax5i5gObovc0MHeGaD9C69EcIH3wThu6XUDbTw+U1UgGpQNoKSCinLaHpG+TqQArTBczQhcqiRYtMWcpcClVSUiL2bM6upRyvmQatYBqKzvw1HGPm91JdA9GmnWh+/nqEDr7SfhxTz0ulpZyh3iJvIxWQCnRRIFNQjt+0P/cXt+ItyWXz56K8/dkeHX3g/PPONwVlBnpddfVV4Hm8/QNlussLUDD3p/CccG3ivsAo7J1L0fjC5TCC+3rtLxLKuXyV5LOlAoNXgUxDub+VygXo+ruO6TwvJ1DOzyVRMRlV+zAUnv57uI74TK+60lKu/9cC6P5tEsrp9D6ZVyogFUhZAQnllCUbUBkklLs1l+qagNJP/R22ETPFb4xIG3TfIajuUiiOAnHIhe6vR+NTX0C49k0J5QHV3WVhpQIDXwEJ5YHfhn3VICdQvuHbN5hyX9NtffaCs+F0OvvNfa15jkTphf+K0UTwAAAgAElEQVQR65QjtRsQ2PQ0gjtehqP6BLinXQyt+hgoiKLphesR3PmEhPLgfj9k7aQCeaeAhHLeNUlGC5QTKL/11lumoMyaMtiLqd/mlO3V8Ez/OvRgE8K7X0HEtxXQA4Big+YeDfuIT8BeNQNt6xYi2rxWQjmj3VHeTCogFUimgIRyMoUG9u9zAuX8XBLV3pDcYlMtFPtbx5Y6dRs/cCtOrQBGtKnXyGveKWuBXtwNVJFHJWf9tWOzmx46Zr008gFSgQ4FJJQHd2eQUO7cvooG1TZMwNjQ26DaK6GHDwBGqOMqRSuHonmhh2r6PF85G1BWbAZsZRGoxREohokNTgZ3381a7XQYiNbZEG3WgKiStefIG0sFrCggoWxFtYGTR0I5biBrxXCNuwDOqZ+F3lYH3bcP9uEzEdzxKoLb/wsjcAhQHXCO+xScY05Fy/J7oEcagEgrjGhrjxbPOJRVwDUhBO94Aza30r7TmQRGpl81g+axbiDcCrRuUhDaZ5cWc6ZFlvdLSwEJ5bTky/vMEsodXmsvHCMWoOiMn0NxFcEI+aA4i9Dy+o8Q3rsM3hNvgFY8ClrZJCiuEkQPbYLhr0fbmocR2P5Y1qGsOHSUzAnBU23P+041GApoGEDrzhBa3nfCiEivxGBo08FSBwnlwdKSieuREyi/9tprKc/WMdBr8eLFaKhvwKuvvYpIJILp06eD26AtXbpUBIJZPyWKk8Bu2Iqnofjcv0IrGA4j7Ifi8KLxqUsRqV8NaC44xp6Pwnm3QfGUI7jxGbSu+Dl0/1YYUV/Woay6dBTPDcFTIaHcX69ka00IzSucMMISyv2luXxOcgUklJNrNJCvyAmUb7jB3JKozsKyIzbUNSAQCGD5iuWIRqMZhDIPpDgaRZ/8Nexcn6xqUOjGVFRx6IRv+a+gtx2C95S7YCseLfbFNsI+tK15DIF1DyLq39EjKijT7msJ5f5/zSSU+19z+cTkCkgoJ9doIF+REyhfftnlKVvKnOsLtAUQDAXx3vvvCQs5Y5ayosFeehIK5t0NW9U0KHYvFM0hlkUZbXXwr38CjhEnQi0YJo52VAurEK7dCMXuhv+Dv8K/6a8wjGCXfiChPJBfi1jZJZQHfhsOxhpIKA/GVj1cp5xAeeTIkSlDmUWOH6MVDodhs9kyB2UoUB3VcB/5VThGz4XiqYDqLES0aTeiTbvgX/sw9GCtCAByTvocXJPPRdPLN4oALyPcAiNUCyAqoTzI3hUJ5UHWoIOkOhLKg6Qhe6lGTqA8fPhwS1DuXAdCeerUqZmbU4YdmmccVFe1cFvHkgEj4kfUtxlGpFn8RHOPg+oZiUj9yh7WcefySUt54L84EsoDvw0HYw1SgbLH4xEH+uRT6u8DKQi5/gZdf9cx3fZVzjzzzLShzEIQzMFgMDOBXunWqlt+CeUMC5qD2wkovy2jr3MgvXxkHwqkCmWXyzUo9LQKOh79yz/9meJe3f58ZjrPUk477bSMQJmFIJRXrlwJurTTir5Op0YJ8kooZ1jQHNwuDmU93Pd68P4ehedACvnIPFJAQjm1xuBWzf39jg44KNvt9oxBmZXn8iimoQhlTbWhzFMJh90p5tzjSVVU+AItaPTX0QkPu+bElGHTsevQFgQjgfaRYww2uqEjHAmK63gKlsfhhdvuQUPbIbFxRqG7FCNKRmNvww40BxrFNS6bC1E9irAegsL/tntgV21oCTa33ye1Fycfr5ZQzsdWkWWSUE6tD0goJ9dLKSiqyhiU44/T9Qie/s8/8eO7bsETP7kY6uaF0EN7k5cmS1f0l6Vc7q3G5fO/jcrC4fCH2zpqU+gqwfbaDVj4+q8QjUZQUTgCX/nEd7B41T8xefhRGFcxGaqiIaJH0NR2CP9Z+X8C4DbVhjmTz8Kk6iPx73cfgsvuxjnHfhHVxSOxZtdKLFn7BJyaC1d98nZ8tOd9vPLRImiqHfOnnI2RZePx73cXoi3cc912lmTO6m0llLMqr7y5RQUklFMTTkI5uV7KeVf8LuNQ9vsacfs1Jw85KFcUVOOKU26Ew+bCwWbuxx1LE6qPwIGmvXjg5XtR7CrFqUeej+ljTkQkGsK6Pe+B0C5yl2DnoS2YM/mT+N0LP0AkGsaJEz+BmRPnw2FzYv3u9/D+trdQXTIaXmchNu1fg91121BZOAxXnnoz3t3yOlZueQ12zYGTp5yBo0adgFfXP4sNNavQFuq59WjyrpFfV0go51d7yNLEFJBQTq0nSCgn10v5zFV/zgKUG3DLV47Hj+66BY/ceT5a1j0KPcylSrlJWsFUjPryM/CWVmP37t2oqYkBMz63UVFRgfHjx+PRRx/FwoULkwYiJNo8hPcaXToBF826CuWFwxCJBDoONnI7vNh+aDMeX/Yn+AJNcDsLMGPMbMydegaWb3oFVcUjRHm2HdiAi2dfjV/991YEIn4cNWomLpnzdazasQLvb1sKu80u3NdRAfP30RxowOSqaTh/5mXYtPdDjCgdiyJPKcq9lSgrqMB725bh6fceQZ3vQG6Ez+BTJZQzKKa8VcYUkFBOTUoJ5eR6ZRXK37/tBlw6uxA7tm2ArnddO5y8aJm7orB8NL75qyUoqxyWNSg7NBcWzLgQM8acJKxcr7MA/rC/w0oNhQMxuO5ciuHFo3HpnOvgsLuw+9BWlBVWYe2u97CvYSe+NPeb+OkzN6HJX49xFVNwycnX4a1Nz8MX8KHAVYRwNAjea0vtBjT7GzB95EycPeNCvLDmCeyo3QSbZsfx4+Zh5oR5+Otrv4zNY3ea386cqv17Jwnl/tVbPs2cAhLK5nSKXyWhnFyvrEH5e9fMwj8e/Tv27t4GPZI7IFOCsvJy/PI396OysjJrUKalPKlyGi6efS1URUF16Si0+psEQCN6GE3+Rvxn5d8EIGn9Th52NOpaD2LNzncwefh0vLj6SfgCzbhk3jfwi2duQVOgASdPOgNnTv8sHlv+ADRVxYHmGjS21XVp1ekjT8CCYy7C7vrteG39syIgbP7UczF1xNF4+M3fDArXNSssoZz8ZZZX9L8CEsqpaS6hnFyvrEH5nuvni0jsfLDSuIb6iCOOQEFBQdagTKlHl03EZfOuB6Owh5WMwkd7PoDHWSis5l11W/D/3nkQdtWOiVXTcN7xl+C/HzyGycOmY0z5JDzy1m+F+/nsYy7EH168B6FIAJ854XIMKxmJd7a8jnlTzxbXbz64Dho04RqPGhGMr5iKL869Doau439f+SmiegRXzL8Juw9tweLV/0I4evj86eTdIX+vkFDO37YZyiWTUE6t9SWUk+uVNSh//xtz8cEHq9DYnPsgowKvB1+69BKUlpZkDcqMlJ414XSccsRZONRyEEeOOg7rdq9Eiacc4yon44XV/8abmxbDF2xBibsM3zrrHry09mnMmnQqth7YgI/3rcWMsSei2F2Of779vyLw64pP3Iglq/8NX9CHz868DDUNO0UwWKG7GDtqP8aGfR+iomAYbjn35yJgbNH7j+CUqQtw3Li5+OfbD2DrwQ1ySVTyd0BeIRWwrICEcmrSSSgn1ytrUP7uV0/Ad+/8EWZddBuKCjxcTpuzVOC245pzpqGsOHuWMqE8oXIaFEWFYUTwqZmXCet164GNqGnYgWPGzsLqne9g1Y5l8LoKce0n78Su2s040LIPG/auwnnHflHMGb+8bhE21qyC21GASVVHYtO+tQjpAVR4h4moayauYW70HUKjvx6qqmF06Xi0BJoQ1cOYM/lMfLxvHbbXfSys5sGSpKU8WFpycNVDQjm19pRQTq5X1qDM6Oub7/gRLrjtEWxvdSCkpx/krSqApog9NBDRk1cufkW5C7jrzAKUF3uyZinzWQSyKJ3Y5KMYhm6IzUG4/pjLmrhGWWzwoShw271iww+Ck0FwTju331MQigbEz7kJCK/jPQzFnHa83qbaRaBZbPORwZMklAdPWw6mmkgop9aaEsrJ9coqlG+540f43B1/x1/XhLEnkF6w1winiqPKHTii0oG6tijWHAhic0sUQRORxdMLVSz+WiWqS71ZhXJyueUVVhWQULaqnMyXTQUklFNTV0I5uV55D2VaxkcU2fGDMypw5pEFcDtURHQD22pD+O3r9fjXxha0Rfu2CiWUk3eEfL9CHkiR7y00NMsnoZxau+fqQIrUShm7OhNBylb2+c57KE8qsOEPn6nG6UcWwEFCtydieMehEG58Yh+e3x1AuA+LWULZSpfMrzzy6Mb8ag9ZmsMfbp/PJzxwoVDXlQ52ux3Dhw9HSUmJmIpKdnRjJiCQ7+0Sh5QlWCn9H5gUjVrz8LJ+Vk/DynsoX3V0EX73+WHwOHse90WL+fl1rbjq3/twMNT7JLOEcr6/qsnLN5ihbOVjbOWjllxleUWqCqRiKXu9XvR1dKOVfpBqeXN9vdV+m4tzmKkVoWylXdJx0+c9lH88vxx3LqhEb4OknfVhzP/jDuxq631EI6Gc61cx/edLKHfV0OrHLf2WkHforICEcmr9wWq/lVBOTeceV/t9sb2vMxHoddfcUtxzbhU0hl53S/RYbzwQxFl/2Yk9fmkpp9lseZ1dQllCOR87qIRyaq0ioZxcr7y3lD89zoM/XzIC1UW2Hkud/SEdf36zAT96ow4NfayRkpZy8o6Q71e07A6hZaULRrj/55WyrY0V95jVj1u26zLU7i+hnFqLW+230lJOTeesWsrldgVfOaYYty+oQLnX1vGsqG7gxY9aceuzB7CxOYK+puNzDuVeosPFOuSeU+XW1NcBHQbUwbU8GVzeHg3raFoPhLY7YKSwPt2akP2fS0K5/zXP1BMllFNTUkI5uV55bSl7VQUlThVHltowf4IXp04pQEWBBn/YwEc1ATy3vgWrDgZxoC2Kpkjv22XkCsp6WEewKYpQEyMG2BhxK88ANMBeqMBZrEJLEMSWvOliVxBSoeYIQk0G9JABpQ/KDzxeGzCiQLhJReSAHXpg8FnJog1NrLXv3h+sftzM9it5nTkFJJTN6RS/ymq/lZZyajpnxVIe4VLxhSOL8KVZxRhd6sDqPX48v7YFu5sjKHZpmD3OjTOnFYjds17Z2Io/LqvD2qYIwgnIkwsoKzrQciCMljU26D4b+N+dk6EAqisKz7QgCkfZodpTN5n5LQ/Uh9GyUUXkoB2GrsDk5l9ptnD/ZhfW8cAbUZgWSULZtFR5d6GEcmpNIqGcXK+8tJTL7Cp+eHoFLp9VggKXCsZ4RXUgGDFAtzX/225TOtYt8+e0nG9adABv1AR61DoXUNajBhrXRRHY7BTWXsKkGbBVhOEcpaNwlAbNZR7MBFWgLozWbQrCex2Dcq41efcdHFdIKA/cdpRQTq3tJJST66V89qo/d9ggmTJG0o2+nlKgYcnXx2FsuT15DdqvIKzveOYAfvFOY35AOWKgfpWO0I4k86DCYtbhmRZC4RgNqiM5mAnkYH0EzRsVRPbbYUQHp1vXdOMP8AsllAduA0oop9Z2EsrJ9eoC5USXWwF1ulA+stCG1741TkRcm0105d793EH8eFn9wIIyS8uDNgqjcI2PwDUM0Bw8jCIRnHXhog40ReHfFptnNSISyGb7SL5eJ6Gcry2TvFwSysk16nyFhHJyvZJCufMtzAI6XSjz8In7zqvG3IleaCbCiQ0oqG+N4O4XavHUVt/Ag3I7mBW7AVtpBKpHBzjp3D1xwjiiINLIeWp1UEYiJ++yg+8KCeWB26YSyqm1nYRycr1SgrJZSzpdKNNGHOu1YXyx3RyUDQUNAR0bG0PwJVh+lJM5ZbPu6x7gTd5ogznoyUTtB90lEsoDt0kllFNrOwnl5HqlDeVElrRZKPN8CY+miLWoPOnJrCVOaIvgr9jRxeKMZbuiiDObEy1jHVBQTt5m8opBpoCE8sBtUAnl1NpOQjm5XhmFcvxxhPLNCbbZ5KqfCpsKu6oI7+wIr4avzSpFXWsUv3u7HnZNgVNVsMsfQW/nSxDIo90aJpXasbkhjN3+KE6scOL4EU78d7MP+/1RAfog1+8aMdBLKCfvCPIKqYBUIHUFCOXW1lbs2bMn6SlRyQ6kSP3psRxWQWf1eUMpn65b262IJ0RZbZesQDnga8B3EkD5qGI7vjazBMPbt8wcUWrH5CoH1tcE8c3/7MPXTy7F6BI7vvvcQWxvi/RoewL7qFI7vj67BGPLHLjvtTqsrwvhK8cV4dITirF4fSvq/FEMK7Bh6fY2LNrqQ8iQUB5KL5Gsq1SgPxXIByhbPSKwP3XKxLOsAtLqs614sOLPGjBQLtZUjC1QxfpiAvbG0yowd7wbX3m8BstrAvjVgiqMKbXjm0/tx862CEptKgK6gTbdwGinitmj3Lj1jApomoJbntqPDw6GcPu8Mpw1zYtJVS4s3+pDTWME8yd7ccvT+7BybxBFDmBEgYaHvliGqhKPOPe0pqamywizoqIC48ePx6OPPoqFCxcmPQeTS5iK54bgqeh9yZZudU7Zag+S+aQCea6AlY+cVWujv6SQUO4vpQFC2Uof6r8SHn7SgIFyvMhOBZg7zIXff3443t7WhltfOghfFLj/3CphKV//9H5MKLHjkuOLsfijFtT5ovjGvDKMKrWjskDD6poALn9yH9oiBiocKsYX2fCvK0YJi9tlV/D6ljb89b1GnDHBgwuOLkKxGzhmmIFCr7vfoGyEDdR9GEVoh1NGSefirZDPzDsFrHxQJZSTN+NQspSt9KHkCmb+igEF5QJNwexqJ+4+pwrRqIHr/7MP65ojYp75j+dVYUqlE39/twFXzioRgVw3PLUfdX5dgDcYNXDHmZUioOuKf+8TwWFMlU4VT3xpNHYcCuIPb9ZhS0sETVEDZXYFFXYVowpV/N8l5agq7V9LuXGdjsDmwXmIQua7sbzjYFfAygdVQjl5r5BQTq5Rf18xYKDsUhVce2wxPndsIXbXh/HnFQ14+0AQEQNwqAp+fVYlPjW9EPubInhtcyseX92M9Y1hEZ3NVbtVThW/Ob9awPrqRfs7oFxsU/CD+RUYWWrDbc8dxM5A130tcxHoxQgz3/4IWj/SEG3SEu/drCsZsaIVisP13IN1H5EM6dTfL6Z8XlcFJJS9cLlcGe8WEsoZlzTtGw4YKNsUYFqxHS6bil3NYRwI8bDBWCJPxhfYUGRX4AvpOBDQ0dxtzTGjtz8xzAVDMfBGTQzmTHSHn1DhwKhiO17e0Yb6+C/a750TKPMMhSjQVhdBmEFreldicqvMSIMN0VoVUZ+N5y5aSzYD9pII7CN0KK4wMncWpLXiZDyXDkTrbQjV2KAHk29BmvHnyxtmTAEJZQnldDqTnFNOQ73eoq95y/hn1TKDlBjAO58GJQxFblUJLoPqWfBcQZklEafyJTqaj5tzBXW0HQyjbZ0Lelsv1nQf7aBoBuwjQiiYCjiLNSTcmTONdsyLrNTJr6N5ExDcJqcC8qJNLBZCQllC2WLXEdkklNNQry8op3Fby1lzCeVkhSZwWnbxNCl7SmBWbAZsw0MonAK4ym0QLuxBmjim8e0Jo3klT8OS1vJAbWYJZQnldPquhHIa6kkopyYeLeaWHWEEPnbGwJwk0ULWRoRQNBVwldoGp4XcTYPWmhCaVzgllJN1jjz+vYSyhHI63VNCOQ31JJRTFy/QHEZgv4HQPlvf4FEM2Ip1OEdF4C6zQzNx1GPqpcm/HBLK+dcmqZZIQllCOdU+0/n6oQPlq/9sftNpk4pKKJsUqttletRANKgjGjKgdsy+H76IO3urKs9fVocMjOO1l1C21qfyKZeEsoRyOv1xaEE5kVJmT4dIkLczlD9728NYuNqPmm7LlNJpnFTzHlWkYfHVI1Fd5u23zUNSLWPH9cl0H8Rzx31pJqFsuUflTUYJZQnldDqjhHJn9ZKBopvScSjfdPs9OOLTt+LlFe8hGA6n0x5p5R1bVoQlv/kahlWW5j+U06rp4M0soTzw21ZCWUI5nV4soZxMvT5ATSh/96oTcfePfoo9rTa0+nymj2VM9lgrvx9eWY7n/nE/hlVXSShbETAP8kgo50EjyCL0UEDufd1/nSIXULa6oxzzWc77Wc4pp5u63YFQ/v63TkFLS0uP48zSfZSV/A6HAzNnzkRhYWFmoOzWUTyn7wMprJRT5uldAQHlt50wInJJlOwn+aNApqBsxYvQWQWrALCqpNXyplNOq8+0Wsc4WK2UmWW1Wl4lI1Du7r5ujUHZ5/MhnEO3dbxYdrsdxx9/vISy1d6ZB/niUNbDfU+qW3mB8qB6sggDVAF+ePmd4+lzoVCoSy343Rk+fDhKSkqE1dTXecppfcRzsEmBZeDkoKxWuxbbzOoWpvH2tKJTVqDs99Xj1q+dhJ/94n/gKtVg03o/4tCqYKnkKy0pxY/v/BkqyiukpZyKcHl0rYRyHjWGLEqHAhLKqXWGgTRoHnRQvvnKE3DH3bfh1t9eA7fXhVxuOeVQXTih+nQUeosllFN7h/LmagnlvGkKWZBOCkgop9YdJJST65U1SzkG5e/hzj99AxubVyAU9ScvTR9XKIoKTbXDoToRNSIIR0PQeeKDiRAyr60UX572PZQWlksop9UKucssoZw77eWTe1dAQjm13iGhnFyvrEP5rge+gbUNbyIQaUtemgRXsBFdNg+qvGNx7PD5GFM8Ga2hJny47y1sbVgDX6gJUT3S570L7GX4yvQfoLRQuq8tNUIeZJJQzoNGkEXooYCEcmqdQkI5uV55C2Wn5ka1dwzGl03D+NKjUF0wGrSWGwO18NgK4bR50BJqwI6GDdjesB47GzehLdwEnWcidksSysk7Qr5fIaGc7y00NMsnoZxau0soJ9crL6Fs15w4bdyFOGHEqeC/28It2NawHu/XvIFDbXuF5XxU5Uk4qno2yt3VIrKxzrcfT2/8C2patqUNZcK/ryBBxaWjZK5cEpW8e2Xuipb4kigTp0QNoADPzAkk75SWAlzVaWWzPAnl1GSXUE6uV15CudBZimtn3guX3YN3d7+EdbXv4JCvBmE9CENYwgo01YYCRwnGl0zDrNFnYWThBCze/AhW7H4+TSg/hLDR99nGqkNH+awgCkdqgGblVU7eMPKKwwroEQONW3Q0r3ZAl+uUZdfIkgIczGmKDi2FpfASyqk1hoRycr3yEspFzjJ8a9Yv4bJ7Ue8/gPUHV2DDwfdwqG2fCBhTFQ1FrnKMLZ6C40achhGF4+GyufHC5n9g6c5FaUM5Ytj7jB8zFAOukUEUTY7AXqhAFabZ0IZz+jvQJOqsBnTdQKAOaP3YgVCdHUp2HpT8TZFXDBEFdNg0HarJ11lCObVuIaGcXK+8hrLHUSiiq6N6VAR37WvZLuaOS91VGFM8BUWuMgTDAbSEGjGqaAKWbP1n+lB+6CFAtUNJBlnVgOrVodr1ZFcmb4UBegX5KP7o3L3GTBy8hYoaBqIBFbrfBvQMF7BwQ5lFKtC3ApoahaaaG/1JKKfWmySUk+s1AKDctRIRPSyWQx1s3Y0t9aux7sA7GFE0Hp898hq8su3JtKH80EMPQXM5kisnr4gtRiOM+Q8d0HUgGjWQINZOqiUVGDAKqFoENmkp99leVnaq4g0llJO/BgMOypxTXn/gXbyw5e9oCTYgakQxrepEXHTU9ZmDssNhYvVzcnGHxBVKbF+YuF1BIBuRGJwJaZmkAgNNAQnl5C0mody3Rnm5zWZ88xAr65Q5p/zNWb+EV7ivuyZCeWXNq3hu40NiExHOLx9dPafdUn4CS3c+0yNPKkuihKVscw75OeLkr2X8CiMGZMWAwgAZAprWsw5Ewu1gNucJNP9IeaVUIIsKSCgnF1dCeYhBmVHVV53wQ1R4h/cK5cUb/wa7zYXJZTMwZ+ynMLxwDP678W9YufeltKFsTxHKxpCdVe42YIIOBsGhHc6kdTQEhKOGDNBK/p2TV+SJArmAcrzqVty7VgGZjty5eKYVbdLRNR19mNeqRnnpvuZyp+lVJ2PmyDNEZLXD5uwIvBLu64PvYEvdWuG2HlU0EW1hHzYdeh9v73kejf7atKD8t4ULQfvczJRSLNBJQVRVoSsqoooGY8hHYtNyNmAwUIZw5jxzBIhEshUJlu6rI/NLBboqkAsop3P+bjonTPV321stazr6pJPXannT0TUvoSy8oYoKt60QR1bOxNwx56HUUw27GjttKhINw4Autu7cUPseVux+EXX+fYjq4YRapOK+JpRLjNRtX06fRhUFEc2GiGJvh7PZpulP/66Z4YbZcvd+HdtHmMdc8m0AkWBsnnkgJV1GFgyk5rJUVjXB8FtC2ZKUpjJZhVw6YE0nr9XymhKjl4vyFsrx8tJqLnSUYUr5cTh62BwMKxwDf7gVHx1YiY8OvYv9LTsQjgaFddZb6g8ox5+tK0BYURHWHNAVrc+2iW+EctjFkk5T9p23Qx0OOFKy5mPXx3bJ6gp0as6fxDpuRy06CkIwxy1mMcccMqDzDJE8T7G+FPt/frQH1lAiz8XNo+LF+m/sf52ThHL2Gskq5NIBazp5rZY3HQXzHsrxyqm0nO2FqPKOQWuwAQ2Bg4joXQ8Vzwcoswz8iEcUBUGbs1cwi0++kZslAuxoZuZnNE0BD2q327U+tx0VgV2GjmAwjEhU77Ikij83NFYU4LkhDP46DPB0um728rY74KEIJMs0WBWIeUIMqGKe5XCSUM5ei1uFXDpgTSev1fKmo2DeQZmj1r6sXgETwTPz9kt/WsrxxmDpwqqKoOaEIcKSuyazYEyncXvLS1ByeqC3pHDHMpcDdrvNFLw76syNPqI6QqEQwuHYdqixQUo7mKkJreW+D/XKRpVTumcMyjErWabBrQD7JgdfEsr9085WIZcOWNPJa7W86aiZYygfdhzZNAcqvaPgsRdgX8sO+MMtPd2ltLpMwFhTNZS4KuELNSMY8cNrLzV9dKPVOeVEjcAPe1C1IWzjuudErt/cfPT7grKqAi6XU1jHVqyXokMAACAASURBVBM7ciAQQigU81XHAr90sWSKQCaY89lajvexpLu6WRVI5ssbBXTo0lLux9awCrl0wJpOXqvlTUfSnEGZQhU7K8R8MUN0nTYv5o49D2XuYXht+5NoDTZhRNG4jvmeUCSAbfXrcLBtj/jI84PJNcrcPEQYz+1fef58TMkROGPCxfhg3xuoad4u3KlfPOI7KCksx+7du1FTUyM0i7twKyoqMH78eDz66KPIJJT5DGIpYHMhqnaFXLwO6TSe1by9QZkWsttNINus3rojH/esbmsLdAR38eMHurEZ9BWiRZ32I7J2g1y2TdYqJW+cUAEJ5f7tGFYhlw5Y08lrtbzpqJozKBOoDN4aUzpVWMRumxdTy4/D7ubNeHHzo/jEuM+hwFmMPc3bBHx5+MTmutV4e/diFDvLMKJ4Ikoc5dhcvxaVBSOxq2EjmoP14AlTZ02+FGWuKjQHG8SSqZV7XsWx5aeiuKA0s1A2YejGreWQjVt3Hs6Qyw9/Iihz0oDWscvt7MNl3W1ZU4Lgr86dMRqNwucLwDAUMeccn1uOhozYEimTKWaxtrvC+8HE7q1tEgW7da2COQ9ALM4utssKq9P+z/aBYvu2pSa1Sesy7sYmAvUS36VzudJ5DvsVpzU4UOstaVrsuNRIpOc2cApPhxBxC+b7jNnySiibVSoz11mFXDpgTSev1fKmo1bOoCwsVf6Pkb1QMbn8OJw39Qq8vPX/YXPdBzhz0pcEZJftfBY21YmzJ1+Kurb9WL7rvxhfNh3nTb4cwWgQB317MapwPB5fex8aA/U4a+IlKHZV4NVtT2B69cmYUnEsXtz0D5wz/qsozaSlrBkwCnTxJ5lHXTcU9IQy57Jyc7pUPGq6azS1AafTHgNyL4MNflijnfbO1FQV/Jj2lvgNDYfCHR9jTj7QhR3VDbF2OWniLmGKAk+4AGrELqzulpag+MBnMyWCMuvpcds76hv3ssQ4ERusBEJhBAJ9V8xmU+H1OsXJYr62kCCi02VDmz8sDvZwu+0CTMHg4fvwWaqqgHDiNbqudwGp+F0vh0gThL3BzO2ywWbX4POxjbpq6nLFAvx8vmAPmKpaLGJZzLu39xU+I77kzVBi8/GiK9EjVuRGG6cz2uskntQO6FjZAa/HAd0w4PdHOsrLsjPYsLDABQZ6tgWCQpdMsllCOZtvUs97W4VcOmBNJ6/V8qajak6hLMCsKKj0jMI5ky9DSA/j2Y0PgodOnD35y2JO+O3dz8OuOvDJiRej1leDZbuegdtWgEnlM2BTbJg+bC58wSY8s+mvYmkUNxvhPHKRs1yAfGv9Ory3+2VcOu12lBZWZMZS5oFFoyOwTTCguPjB7Huzkdg2lCbM6nRaMgN5zZSwu62SLE+vto1Jo4du7mibgchOL9QmLxqb/F2sqcPWaycrtcu4oj1wsNPzDgMssWWb0FJWAJumCphqNhVucWiJgVA4ilAoBopk1iDzFxRwC1egzR8LhiN0SorcCEeiol5ulx1NLQGEw7FpGQ6UnA4tBmVFRaTd79/WFhLXE5DM031wxHLaNA2+tiACwXAXkBHuLqcNLqdd/C4QiP2+syeAAxC7Q0NrKwdBMfEE3BUFbqdNPJeJz3E4bEKHltaAGJzY7Wr7AA/gwM1h18TvOaBjLg7K/P4w7DZNDHT43yy/GHC0E5f1ZR2pi6Ip8FAHpwNtbUH4A4n3I4i/AqwHy9URy2jExgDi3t36nYRyBj4cKdzCKuTSAWs6ea2WNwVJelyaUyjbVDtGFIzH6RMvhtPuFUDe17wdDptb7GU9qmiSOHSCHwKvowgf1LwhToHiUY6FzhLMHfMpTCqbgcUf/w3bGj4SH0nec0r58ThtwoXiqMcXtz4GVVdx5fQfZAbKNhtQ6oY6oxHuSg1GCgeip9NQQzkvX4y2XUB0YymaGoMdUCbQvB6n+LgTiK1tQbEky+t2CBhwGp8vpK8tjGA4IvYyISBojRJYhESLgE5XK7E397XHQzDYhRXIZ8cNPlqZtOqamumqTzzaICho8dH6bOLAov2Z/DnLU+B1CevT5w8K65S3cTg08XO/PwRa2ARKWyAswM7fNxOCevvytvZDQVjHuOVps2loaQl0PItEpC4F3phmLT4/AqGo0IXg87ocseeAA5DYQIBQFJu/RKJobbfsO/dFp9Mm6tXU3NYecR97fvxDWOB1iHuxrLGlczHLnXp53A4xoIj/rvN9vV6H8DqEQvEBgwLey+mwo76pDXof3hKhp6frNAzbqLHZh0g3R4aEcv9+WaxCLh2wppPXannTUTWnUC52lmPW6AUIRtrwUe27qGvbB93QwQ1DxhYfIdzWrcH6mAvMVYGmYD1qWraJ0faksmMwonACtjWsx96WLYi2r7PhvtknjDgdvnAzNh56TwSMFaQQff3wQw+hhIFOoXDiyTZVgV7qgu2EFrgq0g+ISqfxhlLetv1RRNaUoakhZiHyw19U6ALBQ6uLH3d+eJtbgyhqhx9dpnZat5qK+sY2YekyDy1bdiKn3dZhlXbWMhGUBei8/NDHzo9WCX1CKxyDFkHQ0NjW67wpry0pdgursKnZ38ViY/lKi93ifgQ2rUo+qMBjF/Vr8QVRXOgSkPIHQnC7HWJw0TGgoPXqsglrU1ig9pglT2tcuMGV2GCEFq3dpsYGJIaBhoa2w4MI4QnQoLX7o1kf3i8+QGC5CebOiQCn1gQ3y9jdCuV7W1QYGwCwTrGPI9DcEugC5WA4CoddFfUj5GkJOx02BIKHocznckBDVzgt8s7u/e7vAetfVOgWz40ntnljs79H+0go9+9XxCrk0gFrOnmtljcdVXMKZVoGXAqlGxFh/aaSVMUmVhdGeE5gp8R7Euo8QSputaS0TplQpquQk56cHEuQdK8B29wIXBWxbT9lyr4C3aFMKJaXesSHmxayx2WHx+NAY1NbzOpUFPFvAowu0vqGNtDSddhtwgVOCHg8TgEIgtUslIVb2KaKjVJYBj6H8OKf+gZfr1BmnuJCN4KhCFoJsE6JsCkp8ohpEJZHuGdVBYUeh+jD4YgurEq6ornMrMDjEHPBYn69fS6YIKLFKsCo0PUbFM/igIH3p/cgouvCVc35W7rgGxr8iS17BSgucIk57N6sf9a3kBa3QxP35Px490Cu+HwwXeQst91hE3XiAKmzpUxgUx/qwrr5Q2E47XStd4UyB1WEcjAURquv742D6GXggIGDmlA4InRNFEQmoZz9d7fLu9XuKUn1qemANZ28Qw7KqTaM1etTgrKJva8NrwFNQtlqc1jK1xPKCspKPAJYtBi9HruYI21o8qOQ87YG0NhMEBPKTtQ3+sRHOm6p0bKmK5pWaypQpuUdikQR8IeFBcqPPi1Ml8vWt6Us5o49wlXe3EIYxmSgdUzrnX/HgMpyB4R7loMJbuLCPPw4EFq8jvCldRq3YuOCCsu10CXuTauQFn08xebRY3PowsNgTwxlXkaLmuAm+IRXofOgt73O/D3vTiBTy3j54vPPMbd83KKPLY2jRrTgqXl3KNMyJjw5EOA9Y/Pd3Sxlmya8DbTKeU2yFPMOaOI+iYDM/JmAcmtrK/bs2SM2zek62LJj+PDhKCkpEYM3r9cLl8uVsNjpgiOZFol+n41o9mTlsAq5dPRJJ2/3AMhk9cvE73NqKWeiAmbuIaFsRqX8voZQjq4rR1tLLLCKH3mCmB95WmJ0e9IaI7hokdIFzY8/LUxCua7RJwKU+N+hSAR2TUw4pwxlunf5ke88dUyXMMEUtwATf3URc6vbNDS2+BFtX/oTn5NluQkqApNzyD7OI6u05mPWclsgAodNFQFaoYgurkm0xIj34zw7rereXLwxt7+KhsaeljKjrqkRNaUrvPuHm/cXwVlRQ3go9KghpgU4z80PWEtrSGjvctiEJ4LBWgK2dLG77WLqibDnfeNzysJzwD3j2z0WtMIJfT6fsQDx7Wg5z0x409NhOgI/ybquwQBlq29uHJC5gLPVMlvN19vqhGT3y4U2EsoAUt08RFrKybpy5n/fui+C5ncKYIRjQV38Q6uKkKObVMx5hqMCVLHdyIz26Ga6lhUxp0krU+zjDf6twmFjAFLQtKVMiDDqOBjsNreqxWCZaM6ysxIEIa1cvuh093KOli5wQigOJAKeBm7n+dt4VDR/J/ZVj8Qs594S60hA9nYqF8vKZ3LOufttaCUzxebKez4jHggWs94Pl4Aasy604GODFIdwn/MP24hAFsvAGHXevtMbAc+y0NMRH2Dw/tSZdRYaRXWRj4Me/uHPkkVfp9L7+oKy2Q9yri3lVOrb+dqhBGWrGuUin4SyhHIu+l3Kz2ypiaB+mRt6KME+4oz2NbHEihYeg6qEK9Vp64go7uzmZcF63zzksAu4ewU4EjfzEedcsChH+zplQizZOveUxTKRwWx5TdyqxyXxQUSHHu1LlOLR1/EMPa5r/8XhNeBc186AN2dsYBVioFvX5V1Wytc5j4Ry7+vY09VW5remgIRyP0FZgyrmr0yww1pLDvJcfUHZbNVpKYv1vAQolzFxl6kEDZL13dYEpGgRJ994xmzdBu11caBzsNTHjmBW6y+hLKFste9kK19Wofy9H9yOa390MVZufhOhcCBbdUh632JPOW7/zG9QXlKZkc1DzLqvC13FKHKXorJwOIrdJTjUWotN+z5ExOQxSTxSrtBZJHYuC0T8Ses5mC/IBJQ79IkZvL2mxDueDWZ1h27dJJQllPOt92cVyjfffhPGzSrHwYMHTLn2siVORWkV/vKjx1BZUZ1VKNP60RQbFFUFF2wtOPYLOHr0CdjbuBvjyibhQHMN/rHsftS31ZqqaqmnHNd+8nt4d+tSvPrR06byDNaLMgrlJCLJoxsHay/qWS8JZQnlfOvtWYPynV+fi6VLl6L20MGYmy6HqbCwCN+87psoKyvLGpS5k9gJ4+ZhQvURcGjcUcqOidVHoKygChtrViMUCeG1j57BxwfWQTe5Jttt8+BbZ9+DXXVbsei9R8T6a2612BZqhW6ktq47h/Jn5NH9D+XYSWTy+MaMNF/e3YSOktgRnUavRzeaiRFgxWSgV94174AuUNagfPe3PtG+cX7uZ1FtNhumTJmCgoKCrEFZrEN0FMJl96DMU4nKomE4fsI8lBdU4U8v3YtAuA2BUKvY35sWtVNzocBVBLvmEBunNPnre7iobZodZ077HKaNPhbr9nyAGaNPRF3rQfxn5cNobDs0oDteqoXvXyjzU53bgWSq+sjrrSrA43C6bhKkahHYOh0Hm+zOEsrJFJK/T0WBrEH5e9ecjKefehq1Bxt6O3QolXKmdW1xSTHu/P7tKC/PzHnKuseAbV7iHb0I5i/N/RYONu3FtFHHC/De+/T1aAv5RB08di/mTj0bo8vGw+3wivllj8OD2ub9eG7V42j017VvyqRgePFofPaEKzCsdDTe2/oGdhzagl2HtqA50JBz70NaDWIhc39COV683A8nLQgls6SkQKI9+ySUU5JQXpxhBbIG5ZuvPAF33HoPrr3o5ygoLMjpKUkut4Z5nxqJohJvUkv5oYUL4VG6j527qe7W4ZobgjvBNpuFrhJ8/ZN3YM3Od3H8+Dko9ZbjZ8/c0jGPTDd3ddEIYR37Qz7xd2XRcHx+1lfx5oYX8N72N4Vr2uPw4rJ5NwhL+umVD2N/057Y1qEZ7gAD5Xa5gPJA0UaWM7MKSChnVk95t9QUyCqU77z1h7jt6oewZ0MU4VDucOItVvH5m6pRUm4Cyg89BJuNW+H1fiih4oqiaHYr3AkOpFBVDRMqpmJi1ZE4ZuzJArAPvPRj+MKtHS0TO4s2pocGDWMrJ+PSOdfh+dVPYNXO5cIKrioaie+e9wv87Y378PH+NcKi1hQeGGATR1vmep4+tW6W/tUSyulrKO9gTgEJZXM6yauyo0B2oXzbD3H71Q9h9attCPitByZxn15uNBAJxyIFxXmpYgchBZFw152FEslUWG7D1f8zBqUV5qCs2WJn3vaWFKeO4pN9CaFMmFcWVOGE8fNx9OiZeGnd01iz+90egVleZyHGlU9GdfEoHDduDnbUbsQLa/4NX6hFPNbjKMAXZl2DQncJ1u/5AP5Qq1he5bS7sWzzEhxq2Z+dHpGnd5VQztOGGYTFklAehI06gKqU91D2FNpw+sUj4C3SsHxxLfZs8cFToGH2OVUYPs6NV/61D/t38Ai63lVPFcqqM7bNX+9QjqL4RH9CKDPga/qoEzF74ml4a+OL2HxwXcexkp3vV1UwAnOmnglfoAVbDqxHTdNOBLut5Sa4eZ3GfZqF5W4gEg3jQNMe+IfYumUJ5QH0VRngRZVQHuANOMCLn/dQnnJcMS65dRycHg27Nvjw5O93YuoJRTjryyNgc6hY8VwtXnhkL8Kh3qNlU4Wy4nD0GZxG93XxSX54ejlPmfPGNpUHBwTFLl6JEiOw7apduKHpmo67swd4f8pa8SWUsyatvHE3BVQ1Cptqfv2ujL6WXSiTCuQ9lI+eU4aLvzMGDpcGX3MET92/C7POrsCk44qEK3vNW434z/07EQz07h5PBcoLFz4EHY6+3deuKCpO6R3KmWwgea+YAhLKsif0jwIGNE2HZmYzdfqueKSmyaMbPR4P3G537x64vtxzWai82XXYmX50rp5rpR65OF0qb6HsdGtweTTQfX3hDWMxfLwbzXVhPPm7nTju1HIcd3op2loiePbBPdi2tkVsm+hriYij5LqnVKEc0e19Q9kdRdV8Qrnv66x0ApknsQItNWHUL/MkPJBCaiYVSFeBuKdKVXRhJZvlY6pQ7u085XTKbxUc6TwznbxDBcpW65mXUHY4NeGenja7GO++UIftG1px0pnlqNsXxLL/HkT1GDdO+UwVtq1rxf6dfpx16QgB8P/8aRd2f3w4yjnecVKD8kJEDc7h9p4Ul47KU4LwVEoop/NyppK3pSaE+uVuGKE+JvtTuaG8VirQWQEGkKo8KCT2x2wSx3D6fGKpZSgU6pLNbrdj+PDhKCkpEedJ01KWUI55FwZKsjrgiR+LaaWeeQnlgmI7rvnpFFSNcaHpUBiP/mwbDuzggeycn+UReRAvkMdrw0U3jsPEYwrEz5764y6sfKnnTlepQpnnwvaVVJeO4rkhaSlb6XEW87TWhNC8wgkj3HfbWLz9gM1m5QNn9UMzEEXKtj4Syqn3CittkvpTMpPD6rsy6KBMq/fz14/D9LnFYhnUc3/dgw3vNmHUZA9GTfKipSGMrWtaoNkVfPmOiSirdqCtOYrHf7kdmz9s6tEaEsqZ6aC5vIuEcmL1rXzgrH5octn+Vp+dbX0klFNvGSttkvpTMpPD6rsy6KBMK3jckYU4+/IRsDs0vPzYXhw9rxRHzS6B3alC1w0c3B3A2/+tBaOzh413YdUr9Vi2+CCCbT0DviSUM9NBc3kXCWUJZSv9zwoAUvkQSyin3ipW2iT1p2QmRyp9ofMTBx2UWTl6kF1eGypHuTDv01WYNqtYLIGKJ7qra3cH8PLjNdi10YeWxrCwqhMlCeXMdNBc3qVlTwgt70r3dfc2sPKBs/qhyWX7W312tvWRUE69Zay0SepPyUwOq+/KoIQyJdU0Fad9YRhO/8IwaFrP6AtOMTPQ6+8/3Ya6fYFeWyHnUDZEcHiXJGqTQkCJmS42gOInzFRHXKMYBqJhoGlDFIEtTgyxEyuT6mTlA2f1Q5O0MHl4Qbb1kVBOvdGttEnqT8lMDqvvyqCFsrvAhi/dNgGTjysUgVxc7kTXtaooUG2KWLYQ9Bt48nc7sGZpfd5BmeUNNUcR8RtQ9MNn83L5haEZsDkVOIo0URfLyQDCvihCPgN6VIeq8zCNNO5nuSCZz0id2N6hOhWhvTboPhnkJS3l1PqZFQCk8iGWUE6tPXi1lTZJ/SmZyZFKX+j8xEELZS6NOufKkTh6XgmCbbpYj7xnix9FZTYccVIxisvt8LdG8dSfdsXWKveScmUpt9VG0LJeQbTRBkPvdmYr10J6dXinheCtdlgGc7ApitaPgVCNPdbZjcEGLgOIKtJC7qVvW/nAWf3QZOYz1793ybY+Esqpt6eVNkn9KZnJYfVdGbRQpqzcXrO4zIFAWwR+X1RYyxTK4VLhKbIh5I/C1xRBNMGmIfFmyQWUjaiBho+i8G9ywIh07SAdDa0ZsA8LwjUG8A6zQXOkYOEaQKAxitZtOkI7OdeaQt7M9Fd5lzxQwMoHzuqHJg+qm3IRsq2PhHLKTSIt5SSS5eU65dSbue8cOYFy2ED9hzoC2+0Qy6s7pS4fRW5WUBhBwVEReEfYzFnMBhBs1tGyUUdoD6EvgZzpPjNQ7pdt6AwUHXorZ7b1kVBOvYdYaZPUn5KZHFYHsGlZyhdc/ecuMUiZ2GvF76vHzVeegDszdHRjX/JSNC6TsjsVhPx6woMpcgFlPWKgYZUJKLNyCqCVhuGZFIG7SotZzL1wloAPNUXh264itMcuLeTMvHsD9i5WPnBWPzQDUaRs6yOhnHqvsNImqT8lMzmsvisZhXLnqlgFdCag7C2yobTKKc5NZuiy6PxNETQcColIbDuXRykGHA4Ncz5dicnHFmPZMwex6vVD0LtZpnkP5XYwq24d9qow4OJa60RUjs2vRuvtiDZqMKLSQs7Mqzdw72LlA2f1QzMQVcq2PhLKqfcKK22S+lMyk8Pqu5I1KPfqEkpS33ShTCFGTfTghDPKMWqKB5GQgQO7A2Kv649WNGLckV7MOKUMmg0C2tzpy+nU8Ngvt2Pnhpa8gXL9Kh3B7XbASAGevDTZ5RwtWR0xZaavyrtIBaQCFk6J4t7XVj/0g0Vwq1AeSLpZraOwz7q7r600fHc+pAtlzaZg7BEFYuOQY+eXoaUpgs0fNKGtJYodH7UiFIyCp0iRXYUVDnzuutEC2ose2IVQsOf5xRm3lN06iuf0vfc13deEcmiHo8ecshWNZR6pgFQg/xTgx9fs0Y0FBQV9Ht1otXZ6d9eg1Rv1Uz4rwCKQ43/6qZjiMbnQVrngmj/HTy3LWF0J5e+kMadM9/SYIwpQNswhjmlsbYxg43tNItJ658ZWca4yE13YJ59XiVkLKvDP+7Zjz2YeWpHu0Y0LkfRAigxB2WrnzFhDyRtJBaQCvSpg9v3MNZTTcZXmovnN6tq5bARysu9yNuqSC21jUO6cMuAWDfjqcVMaUBYmvKrA7dGw4IqR0KPAu0tqEQroaKwNIRrR4S604ahZJZj3mWqsXdqAN/6zP2GQF++Vr5ay1c6Zjc4n7ykVkAp0VcDs+ymhnFrPMaurhHIyXVOAdSagzOLQYp51TiVmnlGBUCAqDqF4+Z/7wDXAhPXwCR6sfPEQPny9/v9j7zzg46iu/f/b2Zntq7qqrpJ7t5F7JaYZHAyhhYQSAgnppPPSC+EleXmp/5eemJDEQOgdY2zAgI2Ney9yl2TZsrq0K22Z8v+cu1pbbcvsrrRa6d73yQO0d2bunHNnvnPOPfcctLd12wzc6X44lKMpl//OJcAl0F0CscKDQ1nf3IlVrhzK+uR6qXcvsE4WlOkioiRANAUTR9LSCa0nC4KBrTdTTuTGGi9kOfIXQyqgrAU01O+JvKYc7+SMV1X8OC4BLoHYJRDr88mhHLtMqWescuVQ1ifXiL297sTd10kcTsrc1037O4oo9Iw9Y7cX7+RMpmz4ubgEuAR6l0CszyeHsr4ZFKtcOZT1yTVibxbo9Yn+SR4Sy7BTYSnTliX3WRnuA0aoHrHXLUzkhtdb2anXbQGUa4RcCQJt6I62nyoWiQ2cPhSFSMU89Mpp4NwBH0m6SiBWeHAo69NwrHLlUNYnVw7lKFuiSEBKQEPbBT9ktwEGlugjBEyq6ATIDUYE6o3Q/LGDtDuUDQIg2BVIBTIMdoVViYq+0TmJyu7TU2lQNUCuM0KuF3n2sj6VNT95dwnECg8OZX1zJ1a5cijrkyuHcgxQZi5qVQvuU+627E0TU/EC7koZ3nIzVF9sYO4MZQKyWOCHfbwKS5YAGKls4yBrmga5DWg5osFfyfd8DzLtDujbiRUeHMr61BirXDmU9cmVQzlGKEcTa8CtoPWUCu8JE1RvdKSGoGwwAqIrAPtEBdZ8kQW/DdZGrmt3hR+tO6ka1mArTTlYtZb+9xUrPDiU9ek6VrlyKOuTa2xQfvDH+Ma9f8Xut5rgbad8zqlpGbkiPveLCcjJc6CyshLV1dVsICHAuVwulJSUYM2aNVi9OjnJQ2K+U3LPtiloOanCe8wENYorm42ZjOICP5wTNNhcRhgoP/ggb+5qP1q2cigPcjUPqNuLFR4cyvrUFqtcOZT1yTUmKD/49e9j6ZR7sH/fIchy+H3ESbx0r6fKzc/A/z3+FeQX5Aw8KHeM2NsUQHsV4DvXsXbaW8Q2BXQRkDMUWEbJsOVLMFJhjiHQOJSHgJIH2C3GCg8OZX2Ki1WuHMr65BoVyg/eNw//+7+/xMnys/AH/Ek8u/5T5efn4eln16CgsGDAQpnuSvFrIHe24ld7TVpPblzBCEh2AUarMKQS23Mo65/3/IjEJBArPDiU9ck5VrlyKOuTa1Qof//zS+H1eqEoqXNbhwYpSRKmTZsGp9M5oKHMxhutAlQsVaSSqMuBcioO5YGiCT6OzhIgwHAo65sT6QTl1BWk0CfTqL1pnzJBuba2loE51c1sNmPx4sXIyMgY+FBOtbAG6PU5lAeoYob4sPRA2W6390mVqHggl0q1xTveVBWkiFdW8d5nz4IU8Y6g03EE5W98cg5+9oPv49oxhbBYbSndOmvNzMT1X/0eMnNykwNli4rMRZFLNyZBjPwUnSTAodz7dIjnwU+nurQD/SHQC2WqpzyQWjzzZyCNfyCPJV7Z9hmUKaPXQw9+HWvuXgmr7KUNuymTn8GRCdMtn4c1K0mBXhzK/a5LDmUO5X6fdDFckF68Ho+Hfez7/V1jZ2jZrKioCFlZWSz+0FvRCwAAIABJREFUgyxlDuUYhDpIugxQKH8Dj31yFfzr/gXVU5syUQt5Y+H67Suw5RVySzllWkjswhzKHMqJzaC+OZpDuW/kOhjOOnChfO8q+F9dDcV9PiE5C9Yc2MqugiCZg+dRVfjOHILvzJ6oVrgxbwJcv1/HoZyQBlJ7MIcyh3JqZ2B4+XNLeSBqJvVjGvRQNg2bipH/txZCTn5Q2gE/Gtf8BrX/fghQI++B5lBO/QRNdAQcyhzKic6hvjieW8p9IdXBcc7BD+Xh0zDyj+thDEFZ9qPhn79C7T9/yKE8OOZwxLvgUOZQHojTnEN5IGplYIxpSEB5xP97DYIzEwZRgtrmRvPTf0Htv37EoTww5mCfjoJDmUO5TydYnCfnUI5TcEPgsCEB5aJv/RH+U+UwjZ8G7973ITfVof4/P+dQHgITnEOZQ3kgTnMO5YGolYExpkEMZUr4DJiGTUbxD/4J1dcOMScPgapTaNuzCfVP/qIDyt1qI3bSS/LXlBVkLgrA5pIGhvaHwChaz/nQusXCq0R103U8Dz7fp5y8B4ZDOXmyHGxniufZJBkYbrr/L11oFh5tsYuMkocE9yl/A48lGH1tGX0ZLJPnQbA5YJ+xEBDNgGCApsgIVByDr+oE5AtV8OzeAC3g6XWQyYaywaQiY64fjiKJVWzirY8lIGtoPi3DvdcMyIO/IpYeacbz4HMo65Fw5L4cysmT5WA7UzzPZhDKn+mAchgaxwPpZEI5+yNfRd5nfwyDUQDlIVVqz0LzeiEWDIdgsYJSknj3bMHZH98DtfVs/0BZAKThPjjGaxCtnMp9+zAZ4G9R4D5shFwrBXOD83ZRAvE8+BzKyZtAHMrJk+VgO1M8z2ZXKEeSiE5gJxPKObd8E64v/RQGoxGapwUX/t934Cvfg4Jv/g7myWVs1N7dm1D13Y9DaanqFygzwYkaBIfC/knudd76SAI09/xGyG4B7AuMty4SiOfB51BO3iTiUE6eLAfbmeJ5NmOHcndpRYF00qH82R9C9bTCYLGh4ZGfw3fiIPI+/xCkEWPY3/0V5Tj7vTv7FcoXRcKB3LfPEreMI8o3ngefQzl5U5ZDOXmyHGxniufZjB/KUazqtiSuKZOlnPPRz8P93lpkrPoElMZaIOCDkFuIQNUJePdvg2l4Kc4+dG9qoDzYZhK/Hy4BLoGYJZBsKPfnBxONPW5wGOKzRuK9XswKGQQdL60pJ/Fm2tzJC/QiKGff8hm0rn8GjqtuQuN//gi13QN72TJIhSPh3bsF5kkzcfah+ziUk6hDfiouAS6B6BJIFpQJxv0JZLozGjvF6egFJY2TyijGM97Qh4DeazILMs4PgehaTH6PRPTZJ1Am9/VX705O9PVFKG94BvZ5V6DyW7dCaalB9g1fgGPRSnj3fwDLpFk4+xMO5eRPreSccbA/gMmREj9LOkpgqELZaDTGpS4O5ehiG/BQtk27AtbpC+E9tg+mkWPR/OojUH2tsE1ZClPJZMjnKiDmD0Pzhieg+Zp6veNkb4mKLlbeo7MEOJT5fBisEuBQ1qdZDuXo8hrwUA5/C7SmEVsUEIdy9InQlz04lPtSuvzcqZQAh7I+6XMoR5dX/0PZYOyxg0jTaK9LBMAaBAjWbBgEI1RvC6SCcXAsXonA+Qq4Nz0HTfH2fqeCBIMgQsgZDdf/rU1a6cboYuU9uKXM58BQkACHsj4tcyhHl1e/QlmwZMFcOgtGqwMaLdpT9J/fB9+p3VDctWFHS7WUXR97EJYJM1D/5B9gdGbDdd+34T20HRf+/H3ITZWd9grTeVXAYIR5xHTYpsyHr74Gzm/+FrbcfFRWVqK6uppdKxQ44HK5UFJSgjVr1mD16tUsiIG35EmAW8rJkyU/08CSAIeyPn1wKEeXV79C2WjPg3XqElinzIF9/pVo27Ie7cf2ov3g+1C9bTCYLETKS6NWVajeVogZBchedR8gCGg/uANKeytcd3wFzW88hZaNz0DKHwnBYg8ep2nwnz8Btb0RpmFT4Lr7WxBHjkOguBQWh4NDOfqcSHoPDuWki5SfcIBIgENZnyI4lKPLq1+hHBqOY84q5Nz+AOof/w08O1+FYMpA9vX3w1a2jJVlZGwFoHqa0fjCPyDXnEHund+AWDgCjU/9EfY5y2GbcznOPfwZ+M+fhuuOr8M2awmDtq98Lxpf+Bu8xz8ADALEnNGwTJ4P+5d/AVuOi0M5+pxIeg8O5aSLlJ9wgEiAQ1mfIjiUo8ur/6DsuQDBmgujPQu2GYuRteqTaHphNdr2b4Hqc8Noz4YxO4+B9SKVA374zx1jrm1j9kjYJs6Fc9n1sEyciYb//BHNGx6FRolEHC7kfeK7MEhm1D76MygtZwGVUmBaIdhdsExbBMdX/pdDOfp86JMeHMp9IlZ+0gEgAQ5lfUrgUI4ur36DstreBPvsa+FYdB0EkxkwWwFfO6v25Nn+NlrfezpMwJYBxowi5Nz4WdhmLoTq86LlrWfR+t7zDOam4VNgnTgbzqXXA6IR7vdeg+/0YXiP7YR9xuXIXHknhMKRCAwfB6u9D9zX4RLbxBYYHl1D1CO+5DmxnbsfesUFZbrpdLrvZOq7H3TCL5EcCXAo65Mjh3J0efUblBX3eRiMFhgka9eXLcVlBbzQAu1hR0sWtnX8XLaWLNdWQG4+B6iBoHs6twQm10hoQvANbtAAuaUOgfNHYcwZBjGrELBmIPP7f01qoBctfVMJR1g0GLpHjisCVJ8ALRBdARF70DWMKgSLBhjT9K0fZ70OdrfpAmXNANVrCNZ6TlM1JThTh+zhHMr6VM+hHF1e/Qrl6MMJ38NgMELTlJ4dDKEXYaiEkBB8mbNtVsGW9H3KBkAqDMBWqkAwd0Rxd2ybpn+oKuBv0uA9KUFpMcb3ojYAxiwZtlIZYoaBgsl5G4gSYMEPQMANtJ8wQm4U49P3QLw3PqaoEuBQjiqiLh04lKPLK22gHP1WwvdINpTJQs6c64etWAybj1ULqGipktF2SILq0fmiNgBipgJpTBsyRlggmvkWrUT03x/HagENzccVtB02QQuki4nfH5IZ3NfgUNan36EOZbp/yjfeWwulLuVQBqB3n7JgUZG50A9bXjBSPFxTfCo85xS0HRWhNMcIZgJytgzbRBn2AhGCib/g9T32KeqtaXCfVdCyywStnessRVro98tyKOsT+VCHclNTEyoqKnoUARFFEePHj4ckSeBQjgfK1g4ouyJDmaar5tfQWh1A2xEJqlukbdRhG61TC5ky7BMDcBRJMIj85a7vke+ldyJrvDrEz17O1QrcO0xQvDoOTPgG+QlSKYFkQrm/7yMEyHiuG2+CpUSumYoqUfEEqZI8w1WJqq2txeHDh3tAmWBcVlYGs9nMoUwCjMtSXuSHLQYo0/mVgAZfnYL2GkCTe3ddUD+yii0FgDVHhEHiL/Z4XhYU6EfeIVExQYIVBhigKApMkpn9eyxNVvwsiY1m0BDQ2qEY/UCUNf1EoBzPg5+KF1QsshtqfZIFZfYBH+mLfagJNon3m8izEu9HRDgo19XVRYSyyWTqeyivued6eF97BBR9napmzJ+Agt+vS1rua+a+1gHl4AMHaAqZbZFMN6pTSuZyqiSV5tdVAEm1oSRrEsrGLcSssXPhtGexm9L1YFL6VwAtnibsO7kdO49twenGw/AZPNDCRMFzKKf53Ilz+BzKcQquHw/T9ex3G9egg/KPv/k1/ORDM7D/rVch+zz9qIaul7IVjsLN/96AzIKipGT0igfKKbv5oXJhRcAw2xjctOBuTC+dDbvVGSzEHqN13JuYCM2qqsDd1oo9J7bhqXdXo9ZfAUMv6/wcykNlonW9Tw7lga93DmUA7Z4GfP2eOfjRtx5Eib8BTQ31KdVcTkExfvrcG3AVFnIop1QTfXNxg2LEKMdk3HPVFzFh5FQItE0uyU1RZBw/exSr1/0ap1sPwdAtnIBDOckCT5PTcSgPfEVxKHdA+bufXYKqykq0eTwpz6dgsVhw1dVXIzMzk0N54D9D+kaoasiXRuOrNz6E0UVj+wTIoQHRC/jgqd343Ys/RotwocsyA4eyPrUNlt4cygNfkxzKHVD+/ueXwefzsSCbVDcKN586dSqcTueAhDJZdvQ/WZW7iMpgEGA0GKFqCsiVajSIUDWV/XdvjVy1AiVZAfUJH1DW+Vi6rihI7NrhzpuI/mg8RkGEogYu3oOiyuzfKexKMprZvwcouEpvo2xhfhG3zrkfH1lyR7+U3PTLfqzb9jye2PInKCbfxRFzKOtV3uDoz6E88PXIodwB5W/eOw+//e1vcLayIuXpEl2uPPx99T+Qn5+cesqJrCkbBSMyzNkQjQTCAFq9TchzFmNC4XRsObEBPtl7cZYXZYzAlJFzcKx6P7yBNswYNR9VDWdwtuEEAkoAXrmtC3wtkg3TR8zFucYqVDWdhBYFzDRZx+ZNxsLxV+KdI2txuq4ctAqbYc0BjTMg+9EmeyArXfOFEvxNRjPMogUeXwsUqLCIVphFK1q9jVChMdBnWrIxyjUOYwom4b2j66BqMqaNmIddpzehsa0OJqMJV029mQVhvXnwBbQH2vQ94SrgCOTjfz79V7gyC3o91uvzw+8PwGa1QBSDIdT0odjq9kBRNFjMJthsFjYGWZbR6m5jm/stZvPFv3c/cZO7Ef/9n6+hwn3kYlQ2h7I+1Q2W3hzKA1+THModUP7q3WX47rcfxLc/extsdpu+6Nck61ky2zB9yQ1wZqTefZ3nLMRNc+5Fts1F9iyOnz+ITFsOJhRPx7bjG9HoqcPW428x4H5o4odx9fSbceLCEUhGCZm2XHj9Hrh9rThZcxhbjr2JtoCbAZAgajM5cOu8T2F/5Q58cOLtqJZvti0Xdyz+Ik7XHsOG/c/BK3sZbJdOuA4Thk1jHw71rRdwoaUaO09uQr3nAoseJ8t3dskSzBq9EI9t+j08/lbMG7Mcl09aif9b90O4/S3Itecz2M8qWYwtR9fjTO0xjMgbi7LRC7Hl+Fs4ULkDTe31KMwYjtvm38/+e+ORV0FWdKxNkEUsH/cR3H3NF2CWzF0OUxQVR8pP4e13t6O+vgm333INJowvYYBe/9ZW7NpzCLT9QDAYcNOqKzByZCE2vP0BNm3ZA5vVDEkSccuNV6G0ZHiP4VDw1yNrf4f15c8AYjCankM5Vq0Nrn4cygNfnxzKnaH8nQfx8Nc/icqDm+D3hS84oVetbA+YYIAomaHIAaiKEnGPn9WZjZWf/hkyc/JS7r7OzyjGypm3M7et3eLEpiPrGJQXjr8CL+98DC3tTahuqmCQvX3B59heWdqFU1Iwif0WBLCIZ7atxqHqXSy6eG7JMozMG4dNR17HylkfY4DbdnIjg3I4Nza5reeULMOiiVfjqS1/Q1XjSaaGi1awZGWALsgchvFF09gHQE1rFZMzXX/huKuwYOyH8Oc3f8qs5cUTrsN1M27Dwy8+wKz/HHsepg6fjaWTVmL3yU0oyh7J/qdoMmqbz+FcUxXe2P8MAmoAt8y5D2MLJuH36x9ix8bapIAZX772YZRNWNjDdd3c7MbLr23EiVNVaGnx4I6PrcRlMybi5Kkq/Pr//o0PLZuL4kIXHl3zEi6bORHXXbME/+9Pj2NO2VS4cjPx2JOvYdni2bj91mthksQeQ3px8xN4fMvvASpKQkVVEkgeEs/+1EReNLHKl/eLLgEO5egySnWPRJ6VQbcl6rvfeRD//fV7cXzXOvi8ydkSJQhG5A8fj3EzlyIzrxjetlZUHNmJkwe2QA7QGl/PfcB2pws3fum3fQplcvs6rdnB+ddLEgDmHlUDsJszcPuCzyLXWQiTUcKJmsMMKDmOPJhECypqT2DT0XUYnT8e1828He+XvwGb2YFhOaNxvrEKZsmCLHsuXtr5GA5X72Jr0UvGr8C4oqlYu+cpfHTB/VA1DdVNZ9DgrsWWYxvQ6m3u8VwQ9G+Z+ym4HIX496bfoaUDhlnWHCyfsgrkCqfjj58/gHr3BQZLuWMtm6C8aNxVmH8Ryq1YMmEFrpp2E37+0tfQ6mtGnqMIC8ZfgVWX3cnukdzyLW2NyHa4UH5uPwP9f7b8GZUNJ4OAH7ccT2/9OyoaTsT8DBv9Zvzotj9g/IgpPY6hh4ms4r37j+K5F9/CR2+5BrNmTMTG93bg2efX4/rrlmHfwWM4dPgERo0swrzZ0/Diqxtx710fwfsf7Eb5sQoUFObia1+8Cw6Hrcf5N+5ei7+8+XOo5uBaOIdyzGobVB05lAe+OjmUu1nKyYQyCbeoZCo+dMsDyC0qgUEQ2D7StpYGbF37TxzZsQGK3DNgqD+gbJPsuGnuJ5Fly+014TiN/ei5fTh8dg9umH036yeJEjYfeQMt3mbYzQ5cO+M2vH9sA/ac3op54y7HuMKpaHBfgKIEmHUaanTf1Q1n8Oahl9Dma8Xi8SswvnAK1u59GjfMvgsXmqvZtdp8bpypPw6/cikgKXQOySDhU8v/i7mo//LWT+GXg31EQWRr3BOLZ2BM/iRk2V1ocNfghR3/QkNbLetDwWezRi3ClJGz8czWv8Mnt+PKKTegrHQxfrf2B8x9bZUcuHH23Vg49go0ttWizefBjpPvYc7YZcxl77BmYvPR9Sg/vw+Timbiw5d9DC/vegJHzu2J+SknKP/w1t+zbVDhGrmpn3p2/UUor31jE3NfDyvOZxa0IsswGAVMmlCC9z/Yi7llU3Hs2BlkZ2egtr4R3/7GfchwOnqc/q1dr+Fvb/0Ph3LM2hqcHTmUB75eOZT7EMpmiwNX3P51jJu1lDlaayqO4sTezVAUP9paG3B877uQA6mBMrl9KfCJXJm9VQEhdzv9PdvuwsqZH4NkNDGrsaruBNplL+pazuHamR9loPrg+JvwK35cf9kdGOUay4K6aK2VIpmZVQaNWZ3Pb/8HC5i6COU9T+PaWR/tcF+/DUUNRm331shSvnnOfcjLKMS/3/t/zFKmyes0Z8EkmlgwFEVkE6TNkhX1npouEdJkSdP9tvqaYDdl4BNLvowmTwOe3vY3ZhXPHLkAq8ruZMFmm46+gea2BswaNR/Dc8YgoPrx7LZHcPzCIXZfzOoet5y50Ss73OixPOqibMHnr/weFky5HORB6a11hzJZyk8/tx6i0YAPXT4P+w8cYwFe8+dNx3PPb4DFasbVVyzEwUPH4A8o+NqXereUn3t3DZ7c/idKIcbd17Eoa5D24VAe+IrlUO5DKGe6inH9px6Gq7gEXk8r1j/+C5w+vI25i9k2oDDbr/rDUo51auZnDMNt8z8NpzmDuTz3VW7H1BFlePPAS7h21m14cce/sL9yO6ySDasuuwsevxtn6o4h31mEmaMWwKd4sf34Ozh14Sjq2mpgEiQsIvd14WSs2/ssrplxCw5U7cSOk+9AoTVlVWH/7N7I7T179BIsnXQdnvrgb6ioP86s5gVjr2RrwTazHXWtNSyg7FxTBc42nmYR4J0RT9Z7liUbiyZcg1klC/H45j/heM0BBqnSvEkYVzgN44um4PU9T+Ns4ylMKJ6JlTM/iv0V27F271PsXoww4qa592KUawz++tbPL7rRY5GnQTZi4agVuP/DX4fFZO1yCMmWIq937zmEF15+GzdevxyzZk5CdfUF/Ob3a+DKzcLNN16Jx596DaWjhuPqKxfgd394jC0l3PmxD+PRf7+Iy2ZNwu23rIDJ1DVTCCUS+eurv8bbJ5+DwRjMp83d17FobPD14VAe+DrlUO5LKOcW4/pP/wSu4lL42t3Y8PivcPLg+4BGm3A0qArtzU3NmnKsU5MFes36OHz+Nha4tfX42yjKGs62E62YcSue3/EoDp7dyaB8Q9ndLBp7c/kbyLEXsLXeutZqrNv/LLNazaIZH5q0isE605aNqoZTGJFbinp3LbO8ydqmoK8DZ3f0GtVM68d3LP4SKuqOYf2BFxh0yTVNVnCWLQcZ1mxMGV6GsQVTWFDZ63ufvugKp4lOEdhXTL6BWcb0G7mlA1pw+xR5DnJs+fj44s9hx6lNKM2bgFG5Y7Dr9Ba8d/R1FrFNfQoyhuPjiz6PXac2473y13VFX0MFMtRC/ODjv8aIgpIuKmhpceOlVzfi5OmzaGxsRk5OJooK8/DRm6/B5q178O6mnbBYTEEI374Sw4YVYMNbW/HWO9tht1nYNLrnrhswelRxD9XWNV/AQ098Gef9p6luBYdyrJN/EPYbCFCOFzrxBBgmQ4XxjjcZ19Z7jnC1j6OdJ1KVqCNHjvRaJeqyyy7r+ypRyQz0Ek0WjBg7C7Muvxkjxs9i0de1VSdw5sgOZiG3NtXi8LZ1kAOX9vmGBDeQLGWyUCmqmaKi6aGgaOR8ZzHmlC6DrMnYemwDGtvqWR+CnsfXyqzUspLFMIlW7DmzhUVK07EUiT2peBayHXlBp7amXdx6Rm5jTVVRUX+S9e8tCpuC08YUTMG0EbOZ27ym9Wy3uUb7kU2wSFb2qePxNrM9yKFG255obbymtRpt3la2xatzs5scWDT+GnaEVbLiYNVOFshFVZjobzR+ukcnrS+Xr0eb3x1trvf83W/E9TPuxEcvv4+t0YeaqpKl7Ov4UAv+lR4U2pMsywpq6xrR1taOvLwcZDjt7LdAQGbbpzxtXrhcWXA67MECIZ2az+/FU+/8E2v3Pw5FurRUwi1l/aobDEckE8rxyiORMorxQieRsfY3lEMR1PF8hMRzTOhd05uMUl4lKllQNghGTCq7EgtWfhIVR3ehqGQysvJHdGyD0eBursd7z/8Fx/ZuhKr03Oc6kKAcbjKHCid0XgNm66SaxoDa2++XzhWpJGHkgsJ0XlpfpoezO1TjffA6H0cfIWwEbImh61jo2iJlINM0yIgv8xsFutvlLHzthocxpWRm2LXlZNwLjXPb4ffwx9d+Cq/UzNNsJkOoaX6OdIdyvFt+4lUbKxITci/FexKdx3EoJ9l9LUoWjJuxFPOu+wQyc4vQ1tqIs8f3ormuGlZHFtrcTag+uR9Vx3b3GuRF+ksHKOucZ7x7JwloMpArDsPdy7+EsvHzWe3kZDd/wIddx7bi6c2PoKqtvEd5TW4pJ1vi6XE+DmV9euJQTnE95UQtZUEQMf6yy7H0pi/A5gjWxfV727D3vRex7Y010CiISZHZPyM1DmV9D0469lZlDVY5EzfOuwtLp1+F7AxXsDiFoXOW10gehc533WHTaxRJr6ChtR6b9r2BV3b+B26hERB6eh84lNNx1iQ+Zg5lfTLkUI4Fyp/9Sy9vGH2C7t6bSjeyNJsJJA+hbF3jZixjFnKWKxhsQwlI9m58DrveeQZeT0vMg+RQjllU6d1RAUTVjOGZYzAmfzLGDJuIgqxiti5M69exus0UVWWJXmoazuJE9REcrzmEytYTUAV/Dws5JDAO5fSeOvGOnkNZn+Q4lOOFcm9yjrw02eWIRKFMiiudsggLP3wvrBnZsNoz4W1348DmV7Fjw2Msi5eexqGsR1qDoK8K0C4wUTVBEiyg5WqqFHYxVDrKLVIUP61y+zUfFCEATaQAusgHcSgPgnkTxy1wKOsTGodyDFC+ucNS1sHc3rXQ6QSJQtlic2LFXd9Fu7sJ/oAXE2dfiT1vP4NdG59hW6H0Ng5lvRIbJP0TntRsb1dMjUM5JjENuk4cyvpUyqGsA8oJGsddLWV3Yu5rBuW7vwvXsDFob23C6UMfYOdbT8HbFrvLuvOAkg5ls4rMRX7Y8romldA3PXnvQSUBVUPrWRnu3Sao7YKuW4tn20WsrnhdA+GddUuAQ1mfyDiUE4RyNHGHM0SYpXxX/GvKlNs5f9hYjJm2mKXSrCjfhYA//ipTSYeyCDjKvHAMN7K8ybFaU9HkyX9PXwkofhVNRxX4ys3Q5BjN647b5VBOX71zKOvTHYdyH0M5nHWtD8r0AuuJd4NBgFEUWWIQioBNpCUbygRhMVeGtUSG0Ql0yy/BIC1ZBRgtAktyEm/TFA2BdhWKT+u18lS85+XHJVcCmgr46wHvGRFKi9jbdI54QQ7l5OqjP8/GoaxP2hzKKYAyqagtkqVsEFiCBwKtKEqw2DNZZSevpzliTWRy1wlGiW1/Cg9pqrFsgsliR8DXhoA/mN0r6VCmkxJrKXbI2DWLFfvJCIhFMsx5ftiLzTCK+tyZdA5VVtFy1ofAOTPkC5RgQ9/k5737WQKyQbeFHBohh3I/6yqJl+NQ1idMDuUYoPyR+/+oUZWlMMWE9Em8o3e7pxHfvG9Rzy1RBgMyc4owZf4KHN35NpzZeZh/7T1obbqAt578Ldo94Qvc2xzZuOyK21BxaDsqj+9h1YcI1Bk5hcjKGwGjUWIZvgpGT8TwsTNwbM87OLh1LcbNvBytjRew5OavICM7F5WVlaiurmYjDa3LuVwulJSUYM2aNVi9enVHprC4bv3iQQZRgzTMD+d4wJwtRo3e7Xw1srza62W4jwLyeRM0JX5rO7G74Ef3hwQ4lPtDyn1zDQ5lfXLlUI4Byks+/IB26IPnei03SOIO98IwGLSw8FJVGU8+saYHlCWTBfOuvhOT51+H6lMH2IdAbvEoHPpgHXZvfLbXWshBC1HD6ElzsXDlfdj6+r9Y4BddQzCKGD9jGUqmLgDtazZKJhSXToW7pQ5bX/0nqk/sw8p7f4ije97F1MU3ISMrp9+gHLSYNUjD/XBOACzZl+ohR5rGdL8MyEcMkM9LHMj6nvm07M2hnJZqY4PmUNanOw7lGKC88NrPaXve+VdYl3B4KBt6JOvv7I578cWXukCZXMkE1nkr7sLpwztY+UWjaMKR7W+g9uwJZvHmFpXCaLxUMzjg9+HM4W1orK3CgmvvwcgJZTh1cCuUgB/7t7zCtkcRmI1GAp6A0ZPnsuxf29etwcEPXoPZ6sCHP/UTHNv1DqYs6X8okzwEqwLT2HbY8kWYM429LEBfmtSaqsHXqMBTqSFw2hK3O1TfY8J7cwmeHcjrAAAgAElEQVRwCcQrAXo/ut1uVFVVwe/vWstdkiQUFRUhKyuroxiKDVZr1xKj8V6383GJFKTgua+ToYHw5+i+S6K2thaHDx/utUpUWVlZsErUghWf0fa+u6YfoOxDUckUOLJcuFBRjuW3fw11VSew6eW/Mld06eQFKBo9CQZK8tDRfO0eHNu9EV53E664/Rto8zSi5sxRVilq80t/x6lDWzvc2ALLg730I59j+bHfWPM/aKythM2ZjVWffhjlOzcyKDv72VJmt0FpHiUVxmwZYrbSa4rGoC+AFpINkOtEqE0iB3LfPiv87FwCSZGAXihbLJaw1413m1u8x4Us/XgEEY93h70ODYaYM+vFM65wxyQy3mSOIxKUZ8+eDZPJBMPoCXO1mooDDG69tWRZypQikwK8bM4czFhyA8bMWIx3n/sTTh/+gF2WfqOtUF2aBpDLe+LsqzD7qttRf/4MS685fOx0XKg8hnVrfs5Sbw4rnY6Zl38EJrMN29atYQUqKBiMoPyRz/8CnpYmZBaUwu5w9Kv7usu9EJwNWtftU92Ct8h1zdz1fRDUlciDm8xJyc/FJZAuEoj1RR7NUs7MzGRLfWQlh4NyqmAVry5ilU3386fbeyheL0Q4uV64cCGspUxQZpay1WbTqO6u3i8MFg0dZrsPKay7+5pB2Shi2qJVKC6ZwixgArIc6Ory6T4OmzOXBYaRJexprkPD+QoIoojRE+dg+4bHmQt73jV3sTXl/ZtfQd25ExddA+S+pnVoW0YuXCMnw+5wpg7KvQg43okdz4OUbg9DPPfIj+ESSKYEYn0+Y4FysJa3jUM5Wr7aZCowwXP1xYdSTFC2WCwR7bJkWspkJpotdrZ3lyAd6WPgojwJ/qzajyFYk5dMSYOBRVsrso8ZlZJkBhUR0JRAN1+9AUZRgs2Rg1Wf/yUyc/I4lBOcqPxwLoGhIgEO5fCajlU26WwpDxEop+Zx7pN9ykm4lXgndjyX5pZyPFLjxwxlCcT6fHJLOfZZkk7voZRB2Ww2x72CGU7ANJlffvnlhEo3xq7m6D05lC/tyY4uLd6DS4BLgCTAocwt5WR/RMTkvuZQBvoieUgsr7VYH/pYzhWtT7InV7Tr8d+5BNJdArE+n9xSjl3T6fQe4pZy7HrV3ZNbytxS1j1p+AFDXgIcytxSTvZHBLeUO+YUhzKH8pAnDBeAbglwKHMoD0oof+dzH8WhbRvg97XpfiiSdYA9Mxd3/9efkZ3Lo6+TJVN+Hi6BwS4BDmUO5UEH5Qe/8VXMnVSIMydPhM2t3R8Pdk5eAX71t2eRl1/At0T1h8D5NbgEBoEEOJQ5lAcVlNetW4cnnngcFWdOQ1ESq4ec6POdk5OLX/7q18jL45ZyorLkx3MJDBUJcChzKKcGyiaTpquuYCc9RdoS9fbbbzMYxzqx+/JBF0UREyZMgCOVaTZ7ucH+lE2yJ1df6oufm0tgIEgg1ueTR1/Hrq10eg+lLvq6j6C8fv167NixA80tLV3zPceuv6T1tNvtuPvOu5CdnZ089zXlshY0GLpXZKTSxyqgygb2z0gtloeeJTMT4/5u6nr5NEpxF7PyKV+4bECY1O0xn4Z35BLoLoFYnk86hkM59rnDoRxD7mtzH0H5lVdewXd+8D3c+qV7mYXardRE7FpMQk+L2YLrypYi05mRNCgbMxRII/wQzBpLGxpqVHOCUonLTQLkKhPUwKXf9N2KBoOZ6jEHIGaoMAQrWvLWWQIEZCUoa3+VCaAPId64BPpRAnqqRIUKUoQDUzoBK9YPlu6qSKd7pLGnpCBFX0GZMnp9+wffw9d/9xAalXaoSTFlKA+2gbnE6f9ibVbRjOvHzkOWIzlQJsvVPtUHZ4kRBiOBgMzm4GgIyjQyuU1By0kVvlMmaD79nySCVYU00ouMMSIkW0fu71hveIj0M7B5APjdKpoPqwhUWqJ6J4aIaPht9pME9ECZPHaRSjfGC7p+utUhd5lg0SX97+5Igoptn3IfWcoMyj/8Hh783cPYduE42uXI1aBi0bhdsmBK/mjUtjXjdNP5mNerM8w2PDD7RuRmZCbFUhbMKrIW+WHNkyIOO+AmMCvwnTTrArNg0WAa60XGaBGSPbmTIhY5p1sfTdHQcNwH734boHBrOd30l87jJZB6PB72XvH7u77jJElCUVERsrKyWA1hDuX00jSHcgR9kXWcYbZjasFoXDdxHiqaavDK4Q9wwdMEvxKIqumkQ9miInORHzZXZCiTGRfwKGgli/mkCao/OmAFiwrzGD8ySgSIVmPK1+OjCncAdNBUDY3HvWjfZ+dQHgD6GEpD4FAevNrmUA6jW6tkwiTXKFw1fjby7FmwSCYoqoJWXzv2nDuGt0/sRkO7O6LVnDIod9yT36PAU6nAXyVBY98QvVtzgkmDabgMxwgBom0ALyKTi14DjKoRBESV/j1UXpPdswq1Y3mBYstUQQX93FeNQ7mvJMvPG00CHMrRJJS+v6cWyuHkZjAwt0u4plJEUy+NJuqrr76asPtaEoy4vHQmrhxXhuZ2N6qaazG9aAxq3U1w+9swMqsQlU0X8PSBd1Djbgw7zlRDmQam+DXIXjXixwOBS7IYIYiX1qgH3JRWAEmxYVjmaMwqXYCC7GHsI0M00kdEx1zRCNQqFFXGyXPl2H16Kxq856GKfvRFxB+H8oCbJUNmQBzKg1fVaQllWZbDauS1115LCMrksh6bU4w7L7sarV4PnjnwDtoDflw3YR5ON57HzupjWDp6Gi4vnYUtFQfxwqHNkNXek5QMBCin/dTVACEgYnTWZKyYfRNmjZ0Hm9kOUYzkwtfgD/jR5G7Axr3rsOnQOtR4zwCillS3PIdy2s+utL0BDuW0VV3UgXModxORRTThjllXoDSnGI/ufB0n6s+xiGuraEJAVRBQZGRZHfhk2Qo4zTb8YcvzYd3YHMpR51/kDsRQv4jFY1bg1mX3wpWVD6Ogz70uywGUVx3C6td/gwr3EQjm5AVkcSgnqF9+eNwS4FCOW3QD/kAO5U4qsogSPlQ6E8tKZzLrd8vpg9haeRjugBeT80eiprURFzzNmF5YgmWl0zEyqwDbK48wi/lUY00PZXMoJzD/2f4uAXOGL8enrv0Kspy5cZ9M1RQcrzqKv679BarayqEZY9/WFumiHMpxq4QfmKAEOJQTFOAAPpxDuZNyCKJfXXIrXPYMtum3sd2Nx3atR117Cz4+40rsP38c26uO4papyzCzeCwkUYRPDuDFQ5vx7ql9HMrJnOiKhmLrOHztxocwoqAk4TNTHMKWgxvxpzd+ioDkSYobm0M5YbXwE8QpAQ7lOAWXBodxKHdSkigYMSFvOD4yZSlMRiNeOLgJh2srGXjz7Jlo8bXBJ/sxPDMP109cgFHZhXjx8CYcqqlAY3vrgIGyZDTBJtngCXggd9u6lWHJQoY1C+dbzrIPD7Iie0uwIhpEZNvz0NRej4DS+15vmjw2yc7inQl6ihqArMpdEqwYYIBJNLPgK/ot1ib4JdxUdi8+suROiMbuOUW7noWuLcsKRElkSV7Ctda2Zvz66R/hUMM2QOwaLGg0GGESLWEDDFVVgU/2drk3DuVYtcn7JVsCHMrJlujAOR+HcjddEJhXTpyHxaOm4cWDm7Gt6jDbZkNWtE+R0eb3YniGC/fNuQ5uvxd//uAl9s/eWirc14JgxNIJ12LeuOV4/oNHUF5z4OLQSNlXTL4RSyZeg2c++AdG5Y7BmfrjOHpuD/zdwOtyFOKBq3+EP775U5xvruj1/uwmJ+5Y9EWMzC1FS3sTdp/ejPfL17OPgVBzmDNx+4LPYH/FDuw4/S6Dc9SmAbZANv7nk6uRn1MUsbuqajhafgpbtu3DiisXoqgoLwJYVWw79C5+/8ZPEJC61tkuzZuEOxd9kaVGo3XoUCOZmSQz6t11WP32L+DxX/r44lCOqkneoY8kwKHcR4IdAKdNKZTDpndLYEtUotHXpBOyiu+ceRXyHFnYcGwnqlvrcNOUpTheX4WDNWfYdqlR2QV46dD72FxxIOx2o/6EskEzwGHNwLJJKzFtxBy8X74BW4+/yay7UJOMElbO+BgWjb8aZ+rKcabuOCYOm4mdJzfhnaOvsn3YoiDCKtkxvmgabp37KTyx9c+orD+BKcMuQ527BuXnDkDRZJAFbBGtyLTlYljOKOQ6CuDxtWDvma1wdwJXpiUH91/xLWw6ug7bTmyEQkmjozUFmJAzG/91609htzoj9j53vhZ/+8fzOFNxFl9/4G5MmlgacTtdbdN5/Nej96FNaIDWyageVzAVN86+C6/tfhK1LecuXpPs6YnFM1BWugir3/4l3L7mi79xKEdTJP+9ryTAodxXkk39eVMGZZPJpEXKuRrJDalSBokwLRn7lEkoE13DGYizbE74ZRlOsxU+JQBF1aBpCt4/cwDrj++CN0Iaz/6CMgHSbs7Aqss+jgnFM/DSzjXYc2ZLDwCaRStunXsfZoxagCe3/gV7KrbgroUPwJVRgD+88WO0y+0Y45qIq2fcgjEFk9jW3npPHVrbm3Hs3H7MGD0fj2/6AyoaTjBwXzP9FpTkT2AR0bmOfNbv0fd+g7ONpy9qJ8uai89d9T28sfc57K58H+QGjtYMsgHLJ9yEe676ErNSwzWv14cXX3kb72/bh5YWN77xwN2YPGlMRCg3uxvww8e+hGrfyS6VQ8cVTMGHL7sDR87uwZySJfAE3DAJJjR7m3Coajemj5qLRzb+ikM5mvL47/0iAQ7lfhFzSi7CoRxG7EZBQL4tkwV0TSkYjZHZhXD72nHw/CnsO38S5fVVbK05UusvKBsFEUsmXIulE6/Bc9sexZFzeyGrPcdmkWy4b9k3MCpvHH724lfR3N6Aj83/HEa4SvGn9f+NZm8DzEYzW0v+1PIHcbBqJw5W7sQ9S7+Gxzb/HsunrEJzeyOe3PJntj5M1rHTkoEJRdMxfdQCvH3oFew6/V6XNehsqwtfuOaHeHHHv3Hw7E62hk3jzbTmoNXb1Ot6tUERsGLS7fj4FZ+BSTT1KmJFUbF1+z6sW78ZM6dPxPq3tuAL99+OKZOjQNnThJ88/mVUtJf3CuVj5w5gXNFUvLjjX8h3FmPm6Pk4cm4/po+cw6GcklcUv2hvEkgmlLmEw0sgFcU6OJSjzEhREDAs04Vbp16O4/Vnse7YdngD/phqRfUXlA0QMDKnFLctuB/1LTV4fd/TONdSBa1bhSyzaMHKWR+HzWTDUx/8neXB+tTlD7LAr9+u+z7a/cG14HH5U3Drgk9j3Z6nUdNcjc9e+R38ecNPMdI1FiNyS7Bu37MsAIwCyuaPWY7rZt7GwPXq7idQ767pEgyVbcvDl1b8GM9+sBqHq3czV/+Y/Mm4ae49eGrr33C6rrynBhRg/oir8bnrvwWLydqrhhqbWvCX1c+ArOXpU8Zh7fpNuPbqJZg3ZyqGFReE1WpjSx2++6/PoEGphtYpBWfIUi4/tx9Th5dhS/mbyLLnYnhuCQ6d3Y3pI7mlzF/eA0cCyYJyupU0TIUGEgFzvMf2RZWoI0eO9FhqpeIlZWVlMJvNMAxk93V3xUtGES5bBtoCPrR4PTEBmc7RX1CmaxkMAoozRzDoZtqymcV8uu5oFxe2AAFOSyaLuib37PjCabh13n3YdPQNbDzySnBN2SDh2hm3YdqoOfj7mz9HfuZw3L7wc/jVq9+Cx98CSZDQHmhjQF4w7kosm3gd9p75AMNdJSArc8PBF5g1HJqM5L7+zJXfwcZDr2LnqXdhNzlw+4LPw2Zx4h8bf8ng3qOpQIGpBA/d9XtkOXJ6fQ4JxsdPVKDd60NtbSOef/ktrFyxBHNnT0VxUX6vx9CYzpw/jh8+8QV4pa7R8iEov3d4LbJsucwlbxAENHsaYDAYMXvMYm4pJ+GNGM9LioOjp+CTCWUu38gTm5XsjbBkGunoeI9LwqPW5RR1dXU4fPhwWCibTKbUQZkmINumYxShaCrL0NW50e+iQQjWJo5h/XMguK9DY6D7Iuh+eNYdGF88Df95/884en5fF4tZIHhnjcaEwqmYP/4K7Dy1GRsPvwJvoI3JpSBjGO5a8gCOVu9jFu8o13i0tDcwq9YrByOW6RxlJUsYvDcceAF7Tm/BqrI7UZw9EttPvMOgv79yO5q8DbAYrfjI3E9iRM5odq2irBGs39q9T+NQ1U4o6CWPuQaYAw58+fqHcNm4eeyDI1yjSX/6TDV+96fHcP89N0cM9ArIfjz51iN49cDjUKWu7n2C8m3z78euU5tR767t5No2YJRrLIbnlOCvb/2crykn+LaI5yXFocGhnOC0S+hwDuUO8fVFoJfdZEG+PRsOkxlLSmbibHMNXi/fAVo/piIUnoAPWRYHPlQ6nVnFb57YzYodWCQJbQE/AnIgZiuZwJVlseELl61CTrLqKcdYutFpycLCcVfhVF05jp/bz2onhRrtx50+YgFcznycqDmIs01nukRo20wOjMgpxfnmSuTY8iFJZtS1nEOTpw6qIRhgRy/JXHs+Cy4723iKWdh5zkKU5k+GWTTjQss5nKo7ykBPjdaPS/ImIteRh5rmczjXdAaNbbW97o8OjZN2TpUVXI4v3/w9WM32iA+Vz+fH+Zo65OflwGq1hO1bVXsa//Ofb+GCeqZHgQraEnXz3HtxtuEUWtopwjp0rwLyMwphNdnx6Du/7hJZzqOv9b/rOJT1y6y3I7ilnBw5xnKWIQNlSZIi5joM93VM66B6oq8pOjrH5kRJdhGKMnIxMW8k2gM+FDpzcKTmDJ47tAmT80dh9vAJONN4HodrK7Bywny0yz48vf8djMwswNKS6aj1NOGNYzsYSOj6BO0gzC8ltghZ3vT3GYWlmJA7ApNyhsNpc7Bi5NXV1RehRv/icrlQUlKCNWvWYPXq1Yi2jkA1j2OqpwxAFCRmIfe2BYm2PdHHBu0ZJmu4exNguFQCEYZe+4Tg3PklS3uk6Vi6ZveXL1m7VGaxt996fTA0wK5l4e5lD2DR1CshRSxAEf3RavN58NTGR/D6gSehmXpGgItGiUWUB2Qv86Bc8j6ABaaRPN3+li73xaEcWe6dZxY9t+y/e33q6Y+9JX259BEYXcNDqweHcv/pm0M5QVl33xLllQNw2TOxrGQaCp25yHNk43xrPSvJuOnMAZaJa+no6aB+pxvPsQjrT5StwOHaM9hwfCeWjZ4ByWjEkdpKXPA04qapS9HqbcOLh97H2NxiLB87i2X/onXHE/XVeL18G/yKzBKM3Dp1GVySA1artd+hnKAYB8bhCuBQ8/D5ld/GrHHzon60hBu0L+DFa1ufwfPbH4WPUmwmqXEoXxIkLblpBFaDBqNgYB+sIXdE8ANbgcEgQ9PogzBUVISgS3+njziq+hVapqBKJAEGcFkxghLE0IvRYGBX4I2+bTQNHo+HvVf8/q4Z9yh4p6ioCFlZWcyrZbfbYbH07kFiy3kRsuBxYQdlHY+Hh32DxrkWnWy5x7SmHM1SjndQve1TdpgsuGvW1cw17Qm0M0uX3ONUBcory5hWOBqTXKOYlVzgzMbsYRPw1P63cby+GpPyR2JqQQkqGmsYFBaNmorXjmzF/prTLEf2rOKxsElm5DuzoSoaHt/7JrOi6fxFjhzcN2MFsp0ZHMpxKpRyjeSbRmJl2W1YMGU5MmyZMcOZUozWNJ7DGztexHtH18JjaGLQSFbjUKaXDlvPgNEogEpbGwX6A4GXvBGEUAIw/Tt5H+jvFMNBfyMA079TH6ED2MHa2EF4B8FNwFZVI3u5KZTKVTFAUwnkydJiep6HQ7n/9MahnKCse1jKSgDjcofhhskLUd1SzyKia9uaMT5nOF45ugUHzp+GWRRR5MzF3JGTMTZ3GDae2I1tlYfhVxVQKUfK8EUu7rJh41lBindP7WUpN/PtWZg/chIyLXbk2jIZjNfsXs/c43bJgiJnNj4+eTmyOJQT0qpBpRKOJoxzTcfK+bdhmGsUnFYngzOt3Xd+QwfzYPvR3NaEI2f2Yu3O53Cu7TQMJjpJQsPocfBQh7KqAUajEZJElnFwSYAsXq0jVRoBldnPBgMDa6gJAkGX/kuA1rEvjVnBrD+dgyAcVJbBoDJI03k0zQRVNUBWVCiyzCznodo4lPtP8xzKCcq6O5R9qozpBSUYkZmPyuYLmDN8AgMrrTGfballbunFo6eiNLsYDe0t2Hv+BI7VVcOvBGA2Sri8dAbGu4ajyevBvnMncKQuWKCCGrmvKbkIrZXmWjMRUAN4bM+bLGp7+ZhZmOgaiTyTAzarjVvKCeo1WPVCgFGVkGXJRa69AIImwmIyX4KyBgRUGe3+FtS6z6NddkM2+gFmvSW/DVUod6z0QhRFiEaycoOu6eBXj4WBOpmNssCpLBkOQTwIa/pbQA7GLiT5WyuZQ++zc3Eo95loe358c/d1YsLuuabsBxWZYK8LyYyRWfk421IHj9/Lgpnoi52sZwrgoqAwf6cIa3JBO802diytOVOazc5rBFbRBIfZylzVGWY7rJIZh2rPMDebTTQhy2zHfTPJfZ3JoZyYWrsezeKwgroLbnELtkvoZT8k3TLufgtDF8pUpINc1uSODlq4wbVisGj97gGLoWcm3rVLOj4Q8DF3d9CtHbymohjhD9C11SEHZg7lZL5QIp+LW8oJyjpS7mt6edOLgQk5wet0P5ztfjZ0jQzvz+QhSb4dfroYJEBQbjjeDt8+BzRlaNhrZKlKkghRpGcpZL2KzIIlGFOQUXf4UqIXAmm4YKMYRM2CmTQqhGKgD2Najw5ek+JD/P4A2yMwlBqHcv9pm0M5QVknoyBFgkO4eDiHcrIkOQDPowFKQENjuR++w1ZAHfxQJs+EYBRhkmi3QWitlz5yI0M5EAgu9xCw422XoBx0k4euSecj17Y/MLSsZQ7leGeS/uOGDJRFUYxrn3I0kXIoByWkyhrIkuu+MZQ5ewUDBDEJEFEoIpb2wgwtK4W5yhWgvVaF55AEpcUYZv9ttNmabr8bYDKLNH06uaxD7uvgtkBJMvXJFpsA5ZvX6H/kJqcPgpDLnNYyyFoOrjMPlcah3H+a5lDukHW8608cyoDcpqK1QkWgSetpwQkaJIcB5iIV1mwJBnrD6mwEe19LAIEWAb6a4AdAl+LEOs+Xdt1ZBhtAbRahuilSOO3uQPeA2UYn0QiTFIqQNjH3cXBrUtBqNhhMEEVzn0A5aCmrHXEEdM1QcBkFf0lQFA0+fwDCEInI5lDWPYXjPoBDmUM57OSJKaOXoqHltALPfgmqL0zOaBEwDfcic5IAk9OoOyBK9WtoOuOD76gVWhu9FOOe7/zANJGABgEWswDazsQ8BWzrE0VehwBJkIwM5Ugvt2hJLHpCmT4CgpnXQtuw/H4KBBsa1jKHcv89OLTNMt6WVslD+tp9/fVf/xgfnC9nZRZT1TIsNnx1wS3Izcjqt+hrTdbQsFeF76QJ3So3dhGDwaRBGu5HxjjAnElRO7FJSfGp8FQpaCuXoLQOFbdtbLIZ1L0MBljMNEmCUdZB9zF99IWWSMh9TYFevbuv6eXk8/nQ3t7ekSAkKK3gB50GqlJDmafCtUvu667XvBT9bYSiKPAHaIvU4P9KTBaUUzVnBwqsUnX/0a4br6c43Hlra2sRqXQjqxLVl1D+r+99Bys+dRve37ENckeQSTQh9MXvrsxs/OHB/0Zerqv/oBzQ0LBHhe90ZCizFytZzKXtyBhjgOQgV3YEKZAn3K+i9ayC9sMSFA8Hcl/MmYF4TkKcJAkQjcGAriCUaS2ZoqrJfU9WM8JGX9ML2Ov1wtvuZeUwHQ57l21TQVADNpstrOs7aCmTNe7r2BYVvGZwLOQ+90NVRXh9FPDFoRxrms1UzTcO5ciSTzaUY0qz2VdQfv311/GThx9Gk9wGTxtVKUrdA5rvysMTf/8nCvIL+g3KtL7bsFuFPwYo07QQHDLEXAXmIg2GSDVCVCDQJMBXEVxHTaFYU/UeGbLXJfiZmeuavtpCiUGCqTPJfR3MwBX8vfctUV4GZfrdYrGyLVWdXzrMwvX7oSgq7PbewRyEMkVxX7rmpdza5LYOWuzB3Vepe+b7a5JwS7m/JJ2a6wwqKG/cuBGtra0IbcNIjUiDV6UX1OzZs+F0OgcslIOWBr1rKWdi79mR2CuOllVUIegSH/zvvFROmwF3bbKOzWYJRiPBL+hOIUs5GAlNFnPw7waD2Kv7mgonyLLMMtuJ3YAcullmSXu9yMzM7NVaJvd1MKtXKHlIaCyhClP0dxW0rkwFLAZ741Ae3BoekFCOV+TvvvtuvIcm/ThKQzhmzBg4HP1XulGvpZz0m+YnHHQSUDVaTzZBEAjAFKNB+4SDOa5jib6mD2T6H6XfZGtX3apJkBVMQKaAmnBQpj6hgJvQNQUhmEgk5D4nwfsDAWgJBOaki/I4lNNFU/GNc9BB2ev34uDJvVACwUjRVDWyDG5YcQuyMvsv0ItDOVXaHrzXDVrKBGVa0w26SoIuawruovsOFYeQWJrN3l4oAX8AATkI5mAlKNpiJTKXNa0p0x5j8iyFW1cOWsohizxU8jFoEV9KJKLBH5A5lHWUbkzVrOVrypElP+igXNNwHr98/Afw+tuSWalP9/x1ZRfgbz9+EvmugbumrPum+AFDTgIMyhaqyEW3Hoy+vlR28ZL7OBh93TPNZkhgZO22tbV31Kel9WM7W0sOBGRYLGZWdzzcy+hS9DUBnT4KQmUhL7nPae8yX1MOLpvxQK/0fkwHHZQv1J/Hz/71bRTMdEAyJ1KxhkrSGSEKUjDIhdV0VSCrAVbAwmnJRK6jEPWeGrS2N/WYBTm2fPz45j8hNyt/QK8pp/f05aPvawlQ3JRkij/6uvP4yEIiN7Tb7e6wcimIzMygHOlFxKOvu2qZu6/7etan9vyDEso//9e3UTw7A6I1PigLEJBhy8HsksUoK1mCvIxC+AJelJLQWRYAACAASURBVJ8/iPePvoGT9UewdNwK3Lbgfjy//Z9448CzPaFszcMPVhGU8ziUUzvH+dUTkEBwuxPBk56lrpZyyGolV3a46OveLt05IUO0xCF0fBDKwfVscqEHq0UF9yyHAs3og9nvHxqlHDmUE5jQaXAoh3I3JUlGEwPxqsvuQFH2CGYhU41kqptsEES425vw5sGX2H/fPO9e/Of9v+Cl3WsGDJQbaZ/yqej7lNNgbvIhDhAJEOooeQjbFcXWcUPbo4K5r4ONoq/7Js1maE35EohD1wytbwusWhSl4hwKjUN5cGs5JVCWpEibYvUJvHPQAEVfk/s6XkuZ3NUzRizAp5c/yNzTO09vxpsHXkJNUyWsZjvmlC7FhyZ/GE5rFjzeFmTac/HE5j8NHCirGlrKqVCCCQgW5+GNSyBhCTAXtkTQDVVp6hx9rUEQyIo192nu60jR15T7mpVw5Lmv+ZpywrM99SdICZQdDsfFzYShdaaQKMINKFLEHj2w9DvtU04EyiOyS/CFq3+I/Mxh2HDgBby+9yk0tdWzuq0W0YosWy4mDZuJ2+Z/Ctn2PLYO9timPwwYKNMeYl+LjNYTGpRmIzS5W/5MyszVZoQWoOLPiU0+g6jBYFUhmHspfJHYqRM+uiMuN+Hz9HqCUEEKT4ccB/+22KB1zKzlUL7roGUcyz7lZCgh/D5lmsRG5ram6Oyh0rilPLg1nRIoO53OLq+yEFRJ1JEGFA7MoePffvvtuKEsGAQsn3wDPrH0y9h67G08+u6v4PEHA1LIVb1o/DX46IL7YTQYYTM7YJIsLJHG45sJyo/1mCU5KVhT7nh7QgkoCHhUNj5WrjG4kQWqokFuBdpPS5DrxbjBLFhVmEv8MLkAo6SxalOh6wzux4VEprHgY2894D0mQW2PL24h3eREEc9GkcozGmEgAVxMIhI5o1cy7vNSRi9ylwdd1iFXtkL1lP1s93QyLpUW5+BQTgs1xT3IlEDZZrOxJyh08c6wTRWUzaIV9yz9KhaOuwJ/e+sX2HRs3UWhErDLRi/BDWV3wSh2JOVna2sqXt31H2w69sbAgXJoJGHeUeSKbDsfgLvcCLmWwBxjNYqO85J1bB3rh3O0AKOVXtBDswW8KpqPyPAdt+iWYbpKjMBMWbkkkQKuYst9nYx7DRd9Tdm7aG+yIVG3TzIG2Y/n4FCOT9jJhl2kUSSyFzvZ44wp93UIyr3dVKqgbDc58cWrf4RxhVPxq1e/hcPndncZnmSUYBFtLAK0c/MF2uBXe1ajSpmlHMN81RQNbTUKPMcNUFoFqB4xevpMATBmBWAersA5SoBoGxoWYjhxkgwbj/vQvt8GKEPn04QyfJlNho5EIKE1kOCHKlWJCubITl6jlxtB2WAIZvAKuncMUFUB/gBVq1KG3IehHihTQhbaAz6QWiLAiuc+Yonwj+e8fQXlZI8lbaFsk+z4zBXfwbSRc/C713+IvRVbEpLNQIYy3RgFqrZd8MFTrUE+ZY/uyrYqsE5qh7PINOSBHJQfQdmL9n32IQVldu9kMYsU+EWQDNU2pg8TE4zG0LapYF713upD9Pb3UPbN7v0p25eqhqxygX0Ta5oMv19lOuiWtTOhZzZdDtYLZYvFki63FnGc8cKcPhST/bEYTaCR6odHOzbZv6ctlMkSvmn2vbj+so/j+R3/wos7/glZiz94ZKBDmb1cFQ3eBgXe84DcFn5V2GAEpDwN1nwBkiX4YhzqbShDOQRmSpspimQ1U6g/5cQ2dfIkUVrOztm32FGgzFtBKIeycnX/O4E+ZG1TVSh6Buk8EshKV2QVshL821CdhhzK+t4+NE+T7RKONgIO5Y7o60QCvUjI04fPxQMrfgyPz42/bPgpjtTsY3l5OzeCN0VjK1GiPdMByuy+KHhaof8XfJ92X4pmu0wMlEDCcKlyX7QZOQR+H+pQDqE0aDULEEUNgoHATKUZCabkWqZ/p3+GAEzPEk0oiuKmv4cCtoJbrYLJQYLHUQsmBqFAMpXlyfYHgtb3UArq6u1R4lDW94LhUK7D4cOHO0qcXpIdpWQtKysLFooZiGvKNFRaV75l7r1YPmUVGtvq8ey2R7CvYhv8shdGQURx1ijMH7ecbZNaf+B5tPs9YWdH2kBZ3/zmvTskwKF8aSoEP+QMLD+2QSDgUuQ/WbuMoMEEI/TfF7NxBfeVXex3MaKaztOpPih9K6oEeop5H7qWcfeHjkNZ32uIQzmNoUyqdlqycOfCL2DhhCtZJq96dw3qWmqQac2GK6MAFsmGyrqT+NP6h1HZdJJDWd/zMWh6cyhHVuWltWECcGf/S2enc4S/B3nOWy8S4FDWNy04lNMcyqTuTMp7PXoJs4pHu8ZBEIzMXd3grsWeM1vx3pHXcb65EorW1bXdeapwS1nfg5NuvTmU001jg2e8HMr6dMmhPAigTCo3QoDN5GApNbNsLrR4m9DS3giv39PrFqju04RDWd+Dk269OZTTTWODZ7wcyvp0yaE8SKDcWe0GCGxNK/pm3ktHcSjre3DSrTeHcrppbPCMl0NZny45lNMMypStSzBQyLzAotPkXhKBdJ8C1J8iTanRccOyRsFmduJU7VG0B4LBXxzK+h6cdOvNoZxuGhs84+VQ1qdLDuU0gjLtzB1XMBVlpYuR6yhARf0JvLb3P5CV8CWWTEYLpg0vQ3H2KLY/g5V6LF2MQMCHF3b8G/uqPoCqqRzK+p6btOvNoZx2Khs0A+ZQ1qdKDuU0gjJZyfPHXIFlk69FYdZIHD67G49s/F8E1AArsCAKph6bzs1GM6aPmoeCzGK25WOUaywmD5uF94+9iRd3/BsNngvM1c0tZX0PTrr15lBON40NnvFyKOvTJYdyAlCOlnUl2VWiCMpXTL4RZaWLUJg5HOXnD+ClHWsoUwZEgxFXT78ZTmvGxRlA199fsR3vHVkLn+qDJEi4e/GXMXn4LPx27Q9Q0XD8Yl8OZX0PTrr15lBON40NnvFyKOvTJYdyGkHZLFoYVPMyiliUtbu9ibmeL7Scw8u7HkNp/kS2LznUyAKuqj+J03XlkEQzZo1cgBtm34Wtx97C2r1PwqdQjt5g41DW9+CkW28O5XTT2OAZL4eyPl1yKKcJlAUYMLZwKj6x9CvYc3orJhXPxJjCiahpPod/vvsbHDy7K2y0tdOchetmfhQLxy/HlvK38NLONWiXPV1SJCQdymYVWYv8sOZJ+mYk790nEqC84Q3HffAOsSpRfSJMflJdEuBQ1iUuVowiFQUp9I0y2Dveohuha/Xmba6trY2YZtNsNkdOsxnpRsLVXVbjyH1tNBgxpmAKRuaWYtfp9zFl2GVwWjJxsHoXzjacghwmtzXddGHGCMwcNR8XWqpxpHoPPH53j2EnG8oGUYNtsg/OUiMEsSPXUedkSZSfmnIPJyENEsvG1Ft5n3hm2WA7RgtujPO3Kmg5pCFQZdGzU27ASCOehz/a8tKAublBPhA9ULbb7YhUJSqeeZBu4o133qai5CPJVlEo/3v3KgSRpU5jpQ+P3u71woULYaE8e/ZsxA3laFU36He9BSkEIpiBSqSrlCKf3TVl2Y3W2HGCgbm6w7VkQ5muY3QqEIcFIJhV0Hr4xTyEGiCYAHOOAMkhQDDGT2YqThFoVeBr1KCGD0KPJqLB+7umQVMNkJsM8J81pW3ZRr0PPSk03pfb4J0MqbkzDmV9co933qYTlBkfwlTDignKVqtV0yuovoCyPtXq690XUA4m99dguFSy9tKgjIAxMwBLiQx7sQnGkDWtY9iqrKK1KgDvSRPUVmP0Gss6zj2ourLKWoa0lg+HcvrOSA5lfbrTy5rQ2TmUo8iZQzn6RKR8JsZ8P+wTVdhc4iU3d/RDocoa2s/JcB81Qm6Q0tIlG8Nt8i4dEuBQTt+pwKGsT3ccyjG4r7mlDLhcLpSUlGDNmjVYvXp18gIRBEDMDcA+WYY9T4IhBle2Jmtwnwug7bAEuUnkQNb3zKdlbw7ltFQbGzSHsj7dcShzKLMZ0yfu6xjnosGkQiz2wTrcAHOGAIORysqzVcEuZ2BVamXA26ii/ZQR8gVuIcco4rTvxqGcvirkUNanOw7lGKBssVg0vSHqFGEdqcUT6KVPtfp6pxLKIf4KVgVCpsICwzRVuBjMFroTTVCh+QxQmkSoXoFbyPpUnNa9OZTTV30cyvp0x6GcYijX1p/H6nW/w7SF42EypW5Pr92ciTvnP4DsjBxUVlaiuro6yMqOQhZ95r7uNl/pcizIvJd5THHmBtriEz3gXN9TwHsPeAlwKA94FYUdIIeyPt1xKMcA5XjWlGO1lFu9rTjVsh+FhYUp3cJhMpoxp2QZnI6MlEJZ3/TlvYeKBDiU01fTHMr6dMehnGIosyhtqCkFMk0ZURQxdsw4OBwODmV9zxDv3Q8S4FDuByH30SU4lPUJlkM5xVAOZffSp7bk9yYojx8/nkM5+aLlZ0yCBDiUkyDEFJ2CQ1mf4DmUUwjldevW4ZlnnkFNXZ0+rfVB76ysLPzo+99nW59SuabcB7fGTzkIJMChnL5K5FDWpzsO5RRC+eWXX8aD3/0ebvvaN5mFSjWRU9VsJgkfLpuBLKeTQzlVSuDXDSsBDuX0nRwcyvp0x6Gcaih/7/v49E9+iv21dfDJij7tJbF3lsWMby5fitxMHuiVRLHyU3EJDHkJDBQoxwu7dFEgT7MZRVOxRF+TpfxfBOWHf4b1J07B4/cnXf9ke5tEEbKqQomwd9pls+IXq65DXlYmt5STrgV+Qi6BoSsBgrLb7UZVVRX83d5xkiShqKgItHxGUIlWJSpeKQ52IMcrl0SPi5ZOOtL5E6oS1VdbovoDyk6zGfctmof9Z89h47HjUNTeN/lyKCc6PfnxXAKJS2AwuukHApT1Jn9KXJOpOcNACRyO5e4HHZRFo4AxubkwiyIln0St24PaVjeUjswaktGIkdlZGJGdhfsWzYeqaXhs2w68c+wkfLLcQ2YcyrFMI96HS6BvJcChHLmecrzS51D+/+y9B5hcxZU2/N7YuXtyVs4ogJCQEELkZLDJwTZgrxevWa/tb9eBXcfP37f2t16v8dpe27vrtXEC2yQDEjlYZJAEEghQzqMZpRlN7HD7xv8/dbs1PTOduydJt56HB0ldt27Vqbr11nvOqXOKldzIPXfSgXKV14u7b7wGIbebZVQ+3NODH77wEg50dTM10FmTW/CZ81ai0uuFR5bAcxz6Ygrufn4t1u9vdUB55Naa07IjgaIl4ICyA8pFLx4ApwxTTsa+HmaXYIE/0peRtilXejz431ddjgqvh4Fu0O3G+n378fOXXses2mr89cqz0VgRQr+iIOjxQOA4HOntY8D9/qHDDiiXsvKdZx0JjJAEHFB2QLmUpXXKgLIsy5YsSWmjbjEhpJHiSIMyHRBCbhcEjsf0mirced5KtHX34KkPtuJT5yzHpKpKvL3/IJ54bwv+7sKVLOPSf774Gt5tb2dOX0PLiKivKYa1ywInpEnOYXGwVB4WOZyXEsua3iFa4CTLDoztlJNbAhT7XONhaWN3fXAkBeyAsgPKpawvB5RJXUBsOU2GhFxeafR7uRy9RJ7HzNpqTK6sxEcWLcC0mmpsbm/Hf7/8BrqiUVw5fx72H+/CO23pAZkWQdlBmQPEWg3eaSaEgAV+yB7KUjAeAdQ+wDjigmUUvslyggWhUYVcacFdC5by0SknrwToyGXpHGJHLaj7ZJgxO8HnyVQcUHZAuZT17IDyOAFlshe3VITwuQtWYUFzI7YdPoL7N2zCjo4O5tS1dPIkHOrpxYHunrQHiJEAZV4E/EsV+JtFcEL6tE+maqL/kIrYVjeMsFAYY+YAPmDAtyAOX70MQS4c1EtZ/M6zYyQBC9BiBno+sKDudxW2Zsaoy4W81gFlB5QLWS9D6zqgPIagTOprjyQyW3FdIIA7V63AaU2NONDZhT+/sxkXzpmF1q5uvLJrD7506QUIK3H89KXXmCNYug+/3EyZciKHVqrw1mZPR2nELfQf0KHslvIHZg4QAga8czT4WwTw8snHmEr5ME/2Z03dQvdWDfFdbsacT6bigLIDyqWsZweUxxCU6f7xZ89biYDbhWqfD1NrqrC34zh++eobCHrczMbsd7twsKub2ZddgoAdR4/hJ2tfwb7jXcPmveyg7E6Ack3uHNF6zETvPo0xHzOSQwfNWRD8Jtyz4ghOkooDZLJLlrLy83yWwcXJhRl5jnxkq1kEytt0KDtdDiin5DwfWakX37pzT7l42RX6pAPKYwjK1V4vfnzLdQh5PGzf74rG8NO1L2NTWztkXsBl8+bg1rOXwivJkESB1YmpGn70l5fw8q494wqUySSvxwwonSbi3SRUgEtjY7YECxwPuKoBT60IwVU44hmaBaWfg2GIha73gupzMCHJOlwBnvXZKeWTgAPKg2U53qNVOaBcvrWfq6VTC5RlOS3podCVSZVT6scx0o5eFDTknOlT2XUoeld7dy+2HT0GzbDjZ/skCYsntWBSVQWuOX0hKNjI4+9twSPvvod+JT6uQDnZGcuwYBgWLNMCj+FIxvJO8xwEkQzKhQOyHgciPT7E9EaYQg2Q5h25Fn3ev1sxCEYnAr4j8IQ0B5jzFlzuig4oO6Cce5UMruEEDylUYiNfv6TgIXQlyiXLaXupG0ZG56lswyqn93W291R6PfjqZRdjCzl/bXwXappoXvT8WKqvR376AWLI/V0BRLAYFucbjVeyu16SfgB+1054K+lAMUqvPclf44CyA8qFLnEHlAuV2MjXP2VBmTyzCZijqoaYpmWU9MkMysSQwz1+RK35MPnKkV9tg95gQDLaEHDtthmzc22rZPk7oOyAcqGLyAHlQiU28vVPWVDOV7QnKygbqoVwdwBhnAGL8+crjjLXMyHprQi4d8NToTuMuUTp2qBsQNkpn3SOXiWKZlw+7tiUR2dakibTYjz4S+lhKSkj0/lDHDuWRz7l8ai+JosqJZ3geQ6aYTLvavIoVnSdqdOJIdvCIgfgAfsrRfMalStRHhOhc1R4M3hfU594jodpUUS0kfGF1lUwQI5ap8HkKzK6Qgs8D4mnvtg9EXiO5bYu7+IunDHT/AmcAMMqd1/A1sbQ8dEq4YnKc4BhZs/tPTB/RsbZs73Ph7+nlA2AniVQ7mGg7II5PLdKqc07z5dZAuXKp5zLTydbt8fCGa7Y/WMs+lrslFNfi9VCZDpEdHZ2Ytu2bcP2J0rzuWTJEsjk3zUeQZkcvS6ePRMNoQB2He3EWVMngeN4PPbe+zjWH8GipkamtvaIIiRJZB7Niq5iw4GDaOvpHTYHZWfKOUC52leLKTWzsbdjO3qix4f1hwC7ITgJkiijrWsPDCtNqM4sK4kAOdITQMRaAJMLZaxJh5d5jY1YOGUS4prODjMBjwePvPU2ixte7IeV/oVGgjHvhacit/OXW/Ri2YzzsfPw+zjWd4gdXtIdYELuSjRWTEJvrBvHI8egGxo77KQrBLr1wWbUh5qx/fC7ULTYiWoiJ+L0KSug6nG0Ht8Ft+RFf6wXMS0y7L1NoclorpqKbYc3I6wMX0/UqN8VxJSaWezwpWgKjoePoDt6HFZK33xygPW9o+8wehVyvc9dHFDOLaPxVMMB5cJmwwHlCQjKxEAIjP/hovPRUlkJRdPhlUVmN47E43jiva0Iul348KL5iOkaJF6wmTOAezdsxNodu8YMlAVegE8KYNHk5Th37uVYs/E+HOjchZgWhckCYdvFJbhx7dJPIuStwu9e/RHiupL3ytaZyjqIKOYnADmzp7ZHknDnpRehwuuDommYXFPNck7/8dXX0dbVhbbu9MFWyGfLzTQVvK2HsMDSZsYNHdk5ZpIx74SnwkiryqYWfa4gagNN+MwlX8PD63+Joz3tjHX2x3rQp3SfAF2Kfd5UORWr5lyBlqpp6I124eUdz2DH4c2DwI+6SIe2WfULcNOyO7C/cyceeeu3DHCThUD47y/7Zyh6DHRNzSN70dF/BKs3/h7Hw0cHyf/i067G4qkr8YfXf8YODC7Jww4DqjHg2e93BTCv6UzMb16CKn8Nth56B2u3rBlUh/pz/dK/wjPvPYTNB9fnNccOKOclpnFTyQHlwqbCAeU8QNnlcrGEFOnKWHlf+2UZf3XOMsxrqIdbFOGWJAYK3dEoHt/8PiZXVuGKBfMQjsdZzmW6SqTrBn677q0xBeUKTxVWzf0Qzpy2Ek2Vk7Gt/V0c7NyDF7c+jq5o5wBAiB7csOyvIUse/PH1n+UNyuzaUy8xZAJkUllnLqTaX9jSgk9ffCEOdNjvXjFnFra2tsHncWPv0Q78au2Lw/JPs0OR14tPXHg+aoIBiIIA3bDQEwnjybc3YfMhYrXZCjHmgwh49qS9LuUWPbh80Y04cyoFgAliS/smtHXtR2NFC0LeaqzbtRbvtr4BTVfRVDEZFy+4Fk+/+wAEXsTk6ploPb4bR/vaB7FbWXQxcLx04fU42nMQj2/6g81aU3rqlf345rX/wZjty9ufxvb2zbjt3M/jlW1P4bVdz8Ewdcayp9XOxtkzL8bU2ll4ZfszaO/ajznNi3C87yhe2PIYmyuRlzCrbj4C3kq4JTeo7agawfrdaxE3Bg5Y8xrPwDVLb8cT79yPD9reymv3ckA5LzGNm0oOKBc2FQ4oT2BQvvO8czCnvo5F9VJUHYLAgZjo/7z6Bgu/eevypSzU5oyaGrgkEe09ffjdm+uxuf3QmDFlkRcR9FTjkvlXY+Gks/C7V36MfoVUpFFE433QE2zZI/pw0/I7QBbnB9f9EmpiIye2l6r+TB2IaVjo7/QhgjNgcoGc4bQo3eXff+gKzGluxO9ffhVVPh+uXbYU+zo6UBUIQImr+MlTz2BvR8cwebX4ffjeJ2/D1Pp6xpQJhDt7+/C9hx/FWwcO5GElNyEZrfBLW+Gt5pntP1lIp1HhrcZfX3AXWjt3YfWme1EXbMHClqXoCh9Dd6QT+zp3wDQNnDX9AiybeT4efPOXUHWFASqBdVjtY7boJENeOesSXHPmbXj2/Ufw+s7noGjRYX0kNfjXrvkRusId+O+//As0PY6bzv4baIaKR9/6LWPQdcEmzKg9jb2T5o3YcbWvDptb1+O8eVfgj6//F3Yf/YCZHc6ecTH87hAD6JVzLsGGvS/j8Y1/GATKC5qX4srFN+OJTfdj66FNCRHY/hCZ5tkB5cI2+bGu7YByYTPggPIEBeWQx41vX3k5GipCjClHVRWULYqcln79+jr43W5ce/oCHO3vR8DlZqC8u6MDD2/cjK1HBqsiacmMlk25ITQJF8+/BjPr54HY2/o9L0NRo2iunIydRz7Aut1rGZh4JB9uOfsz7LdH3v4tU3nKghtnz7wQB4/vxYHju4bZTQ3dQt/xAGLs6lNmx67kJxLyeHHV4tMxr6URrR3HcdbMGWg73oX3Wg+iqbICsxob8Nj6t/Harl2gIDGpheKBnTNrJu684lJMqqnBsZ5e3PPcC1i7fTviRj72b9sj2y9vgbeKon4NVrHPql+I68/6JJ577xFsObQJp7csx9KZ5+GpTfejtXs3s3VLvIRrltyOuc2L0RPpRFyLM3APuCuwcd+reH3X8wxQyVns8kU34YJ5V+F3r/4Y2w9vZqx3aKn01eDb1/0X3t77Mh548xeQRBc+df6X0BPtwsMb7kFcj4FU6/XBFvzV+V/EY2/fi5pAPTNFPLP5QaycfSkMmHh4/a/s+eJdaK6ahquX3MaA/vFN96E7RRtC7180aTkuX3QDA+vtRzazLjWGJmNO0yJs2vca+pSeYf1Mel/HdrqBnLGvR8aJsLBtdjRqFx5Mx+5VvvJJHj3zrT8wZgeUC5t/B5RLAGVabKkRvQoRfanBQ6q8Hnz3mitR5fUxFWR7Tw+Cbg+8koQ/vb0JIZeHbdDTa6vRVBGCLIg43N+H5z/Yjtf27R8GMqMFysSUq331uOrMjzEm+9zmhxHVIrjmzNtRFajDfz3/z+zvHsmLm8++E3EtymyfqqFiavUsfPbSb+Ch9b/Gxv2vpHXCInty73E/4tzpMPlgzimZXF2FT56/CtPr69EdDmP3kaOQBBGVfi872Ow+cgS/e+U1FqJ0aKErx6c3N+NTl1yAxzdsxEs7dkA189m0TEjaIfhc2+Cr1ofl6abDB9lZp9bNxpOb/oilMy7A5OrpzG774Ju/wPttb7GDC4Hyhxd/HA0Vk/D05ofQ0W9rQAioWyqn4dcv343OhC044A7hytNvwfyWJXjs7d+zNgiwU4tb8mDV7Cuwr2Mndh/bgjp/E77y4e/j2c0P46XtT5x450Xzr8Gshvn4/as/wdLp52Fu4yI8tP4epjGoDjRg19H3YRoGJtXMwh0X3oWgO4iuSCerT7bs1LJo0jJctuhGPLHpD+ywIHISLlt0A86ZdRF+8OTX0Bsb7gTIQHk7ENnlg2k4F79zLvJyVaBbHZYO3soc7yDdqxxQLmwCHFAuAZRJ1GNlU5YFAUsmTwJ55LhlCd2RKHwumQHK+4cOM89hnyxjcmUFPIkQoXTlh7JEEXseCh2jBcokMxtMbsX8ljPxqxf/jYHrzSs+w9Suv3nlh8wmKfMyrl5yO2Y3LMBvXv0R+/tHltzK1LN/eP3nzMs4UyG7cl9PCIo1NydjtkH5PPhdLqimwYCFtA09kShqgn6s27Ebj7+TORIaOXyRh3vcMKCnyas9vI/EkNvgc+2At0IHT2kthxTyWr5swfXY17kTS6evAsWzJVUx2eF7I8exfu/LeGPn8+zA4pH8mNkwnzmAdUWOIeiuxDVLP8GY6h9f+zlTYycLge65sy7H+fOuZLbgV3c+w9TYyWKPXYLIy8wx64pFNzIP7Ic2/Aqd/YfZmiFNx2cu+ifsPPQ+Nu1/A6vmfYjZjH/z8r8jpkYSBwwO02rmMFvx0d42rN/9Ej51wZfx9Dv3MzU3xwuIqv1MiBsWewAAIABJREFU9T2laiZj3a/vfB4b972GhZOW4oLTPoKXtz3F1Oy6ORwACJS7dnCI7KqAWUQe7sK2SKd2qgQ4U4dgKeAKuA3hgHJha8gB5QkKyoVNc+7aownK1JvptXPw8XM+x+7FEggeD3fgsbd+h4Pdexnz5y0O0+vn4aMrPsvs5ARMbd378PimP7KrNbnuNhNj7usKQsHCrIyZQPnj566ALEjQTB0Hjh5nHuxxXcMVixfhgTfWYd3uvWW6GkWAfAg+eRt8VRREJL3KkT5KUZDAWRxz+Fo8ZTnzCD/Wfxivb3+WyWPX0Q+g6Aq8kh83Lv80Y9KgO9+WhSN9hxhzPtxDtu3Bxy863JDX9CULr2Wq8Y37Xx1kBiCV88ULrsGZ085F+/G9WLPpDwkHPIsB7lnTzsequVfgg9a3sWjqMrgFD57/4DFs2PviiXZIy/GxFZ9lau9nNj/EGPbVZ96KuY0LmYzDSh/+vOHXONx7kHnZXzz/WmajJpU69Z8A+o2dzyGe4smduoIdUM79PY9cDQu8EYNg5X9B3AHlwmbDAeU8QJnuKYti+qxCBBbFlFLV18W8M9szow3KxHjJblzprWZXfbojHUxtnXovmOr4JD/8nhBzMooq/UyNnQuQk+NkjLmbgHlexvCa5Ow1r7kJvdEYjvb1IarEEfC4Mb+lmcHZ5gMH0RsbYJPFy50AuT3BkLW0DDld2y7RjdpAI9MQdISPIM7uFXMJALRYYBhJoExgMtyim90xjutxpprOJCcC5upAPSLxMPqVnkH1BPCoCTYy5yxSfZPzWGo7suCCS3Cx+RAEiV21I83G4GAjHIiV079pCWClcYQ8VWyI4XgfY+jJu9SkOQl6KpmPATF+alvPEhXEAeXiV2HpTxIoKxAKUGE7oFyY1B1QzhOUi41akmk6TnVQLmyZFl/bZswVUOjOMp/eI9v+CCx2N3dkSgKQ5e3wVuksCptTipfAACiHYBpOlo/iJVnMkw4o5yu1YgMPOaCcByjTPeVyC8oB5XyXdun1iDH3dpHz14KEjbn0NvNvoTiGnH/7p15NAuW+XRzUvSGocQ6GRQHrnIPO6KwEB5TzlbMDytklVVKYTQeUgZqaGkybNg333Xcf7rnnnpzxTvkcYTbzXdjlqscYc3cFFBYHm7yyR2MTT2HIlemduso1vlOpHQLlyB4efFsVTJ2DopnsP51ZkkZjXk8eaafej0+6H2RXGDmgnO/sO6A8QUH5H7/5LXzq29/BCzt3sjCZY1WqfV78+03XoraiAgcPHsShQ/b1mqSGYKKDMo3FZsw+xDEfFu8DN2LqanqbCcHsZDZkXyXFuXbAolxrm0A5vMME314NnrMj7VFSlv6oDt3iQJZ2p2SXgMRzkEUeomAnYCEA0QwLqmFB07N5bYwtKE+keZ2IoFyMRrhY0+64Zcpf/urXMO+yK7B5yzYYRv4ejeVenHWVlbj/+/+C+tqa8oCy20RoZeYsUeXuf77tEWOOhykqmADavkesWADHG3CHrLydukasLydZwwTK/dsNCG1V4AXXidFRqNO+mAbNdOzMmaaczoYuiYdbtFe/YViUqyZxFZAyt9EBx0JMNZlZYHgZO1BOJQmFLuliAbLQ96TWH4t3FgOqyT6X8myxckono46ODmzfvj13lqhiTwOZOkudefrpp3H33Xdj+5690PSxY8nUx7raOjzy4ANoqK8/qUG52MXjPDd+JMBAeYcBob3mBFNO9k7RDPTHKK6YA8xDZ4wlUZF5eGQOMc2ColkwTbrqxsIdME96SeTglTkWyz0aTwfMYwfKpeTtTbKy8bOKM/ek2L6WIp9Sni22v5kkkFfqRkmSrEygXOzpggby4osvQlEUGEb2vEKjsZDoytfChQsRCAQcUB4NgTvvKFoCzKa8m4fQXgUMYcUELr1RDfEcQUUIgIgV0v3vTPoStlHZfvlZPfOpjkvkoZkU4S99a/Q+Ct6TrdjBW6geMtZN9onaofYE3gZTncaRQ/EjCTz8LrrCZjJQpvouiYNb4FngGwJhGrAscPC6KN2mzZgHFweUi164eT5YLMiVAqylPFtsf0cMlPOU87BqNJC1a9fi6JEjDJjHurhcLpx/wQUIBoMOKI/1ZDjvzyoBQzER2SlCOlYFWMPtx3HVQK9CqUyG/0YARkHUXDIBru0kRoXClaeCJgMmmRK4c6BQBP1xg9VJV6hOhYdHVCWHs+HIKPIDIKfa3mjp2+EoZSfPgN0GzcFt0XuCbt4+TFgWYnELksiz8dA4CMwJnNMVYsN+l534JKLYDJjFSXcJjDkTM+6K2sFnqH2PxEMWgb6Yxd41UBxQHunPs1iQKwVYS3m22P6OS1B+6qmn8L1vfQs3zJwCl8cz0nOdtX1PqAKXfOkuhKqqRxWU6Xs3FANq2GKOV8nPnzEUDpB8PCQ3R3SgJPmYmgU1bMLQ7MhUVOxMRJnpRa7fB3UoGa8/Qy9ZW/RbLjozBEhs1eLQPg6WRdKDdmg9Nk4rR6iVJBvM2a/BA2M9GOS6m8/0JNgcR4QsOQYa20A/BzRPdt1BmijLXiNGjwjuSBBcXE77Ut0w0RM1YAwBbGrLI5GDEweRJ9upzZQJx8jBiYApWah3BIIukWNsMqyYzNZ64ncCdnKU4m0xuCUeqk5t2XXoz/Qf/Y2cqvxuAm2LsdR0RRLsd1E71CdVB2IaHSzsj4LaIXAn0CbgJZswHQDIUcsO4EKqaBqHDc5DCzHwCq/A2HBcMyEKlLyG+m3Lgw4ckXgC2A2TyT3o4RFWyPkrtc8OKOez0kupUyzIlQKspTxbbH/HJSg/8cQT+O5dX8HDH78ePmLLBcSTLWXS0z1rBoIwbvs0PBWVowrK8V4d/Xst6J0ioA0BXtGCWKnDNwVw10qFYwADQSAe1hE+xEE/5oOlCezfaCOjjY02M7bXUnIR2vwSDILOAF7J3gDp31mIag6Ikx0usenRRkqbYuInxm5og6NC9ZJ7I2tL5tmGzTbPxHtyzSFt+MRYwioxmERtOp8kcvswOyDVEaltQNEH6tE7acOlOopuP0zjocFHE6pL6inZEF0CEDcojvvA2DL3zW7LxzbzfJNBWNA0HbqhMxlQpimXS2bX6uJ048AyGShQqkaXTP/OJeoboDzm5LlOGdDoYEahRzlNArIEDSFQ64lo0K3hdmVKaepz86BpIjlQXWKC1KehqmySD7FLcozqV8xhgErzn1SDe10cFNUCidorcQzwI6rB5C8KHAJuHpE4gW16UCbAJW9ojwQG3uyARQcmOq+YFuKGxdKxEiiTDGmdEegT2NIoSf1sGLZqOh1bpr6GPDQOi/0e8ggnDhTJuaZX0uz2xUymig+5ecRUi62rgeKAcq7vttTfiwW5UoC1lGeL7e/4BeV/vAt/vu0mcKsfgdk/kDwgn4nlaKMSRHuXzlXog9NoA8yg3mpsgvQ/98FTN3qOXpT/uG+XgehWFzKF0uV4QKxV4ZtrwVsrgv6ed7EALWqiZ48Fpa0CkiHBRfSAsSCANirGZhI2PNoM2YYn8HBLtm2NtJsEpARw5KnaHyf2YpckA6I2qC1iLqTyJMZBm2iy0GZKmzK9msCTGBdt4AQGGe2Z1L7AI+Di0BszTyS7IBAguyBtrMSm6H0EHuE0TjlJ5QK9k1hYwMUjotr2RCpJW6jPZYM3jV3RMrOt5Hh4y0LAQzLKD5RVTYMSizMgphHH4xp8Pg+LeR6ORFlcc/pNVTW43S4G1qqqQtMMuBl4cxBEgYUazacQuPZGdWjmEI0CJQ+RiS3zUA37sxEEMIZJcxGND1bVkvwCborNbs9ZkkkO7QMxZgLTcOL5oFtgh4xonBzObFAmtXMq60wycXK0Sq4B6hfNE80RgW3yB5oXej/9GzFumiz6MwNvGgNj7Rw7fCXV2EP7SH0gFbsNyiaoj7RmaRGc0FkkQJnWG8mQ+uyAcj4rrrx1igW5UoC1lGeL7e/4B+VHHoTZ11vQ7Epz5sF1/oUAb9/VzFp0DfGX/wJtzy57FxpSuMZmSL++f1RB2dIsHN9sQN3nyq4kECxIdRr8c0x4GDDnocomlWTMQN8+AdEDAZgx0WaYCfZBLJmAllhBEj+T6l9iJwR+xHhoyyIAJICOakNUmOTgk2DTtDvSxkjMs5+1OQC3zBaYUDuSmpQ2X2bbiw9ub+icEHMiIO2NGSfYD/WIWBI54tCfCXDJRkjMJl0hUYkixRC3mSCBd2pVAlaPSKyOVJq2CpX6SPbRbBrtoIuDhyh2HiUai8HQDfh8XpBqORZT4Pd5GPhGIjGmKvV63YwdJjcHYtBqXGXPFBqWlOarN2LfWU4tBGQ+2dZ+sANJYn4jcYrRPVhLQL+TKpnWCB223DLHQHuo+jlpl6X3hOMGA0lSE9NdX5I1laGgbM+h7QWdXCv0b3Rwo/GTipnOH9Sn1Dk4ob6mNUR2YNIukG8WzTEdIOngoJqD1PAnDobM7i0wxy1SizOGTXKXbfU8tUV9oTkg+dC76OBFGoJUtT2dFMYq9vV4Ao48ln3RVYoFuVLkU8qzxfa3ZFDO1ECxg6GBMPV1kikXAcqe62+B/x+/ZR/3cxUljuhPvo/o6j/D0gbn0aVHxwKUTUrB944Jdb+cW3MvANIkBb5pgKdSBEdq48zmYBuQD3CI7q+AqQxOJsI2HDexpczgQxsdsWra/MieSPw4k6NPKlDSpjfU2ScJyvQ+5s2acDZiTDkxBlpHQ88axGQIRFJBmc0VbeoCB7+HZ/ZBm+EPLICkvZeIEAELbbos6hWx6SHrhEDZLdpMmzZj0iAQ987kRZx83CcDfnowjxKJRkFaEa/XgzgxYJWYsheCYIMy/d/jcQ9qSdM0xGJx+P0Eyvkx5GQDpCImm3J6Ry/7IOUh04VhOzWR/IaOl8nXxSOWYJ9kfqD5oLWQVA+zeZDsOYqQvVgzWXukGqa5pkMXlaE2ZQJEYqG0nsJKgk0nWDBpPwTOYgdP9lvCnEJozw4VCUcwOpiRBodYPJlK7DkmW3Z69TitZ59MrJ+0PQNXocjRiw4cpAU64ehFpg6XrSHoI4c5x9Erj1VevirFglyxWMT2FEZW8iA7aYZZbH9LAmVBEDLGvs42kGybSTlAWZwxC+5zzqNjcs4VYek61NdehnZg37hhygWBMi0c0QJfaUCuMSB47AxJQwu7vmIIiPdJiHd4hwEyqaYJaKkebZqZgJbapY3PZqrp7XRUh9mmE84ytCkTIA89KxAoUzvJoAzpzhLEnOQh00jPkV25J2ay+6SphTkXMbUpxzZZimiVLAQedB+VQJk2WwKfoawrWXcoKOdcSIkKEm+hwkdZonI/ocRVxnrpe2COUJbFQFgUBUSjCvt3j2cgCAi1SCptAmyqw3E8JEmAkMfhk5qPKDqiZKnJ0DUP3dWVbFBLOlExZy9myrA9mn0Jj2RinvSbDYi2xzYdrEgzYTtmUTuAypynyLObZG+rlpOe3bbJgbymaR5sVkuFGHFSw8HmkpizYkISE1esEkyZ5pqAlwqpr5MYSdoMpoJmbJwcwwAti3d38jBgr0NbVZ9cd7R8kv2lQwuNn5lhhkX3cphy7hVfWo1iQa4UYC3l2WL7O2KgnKlhxnyynPDLAcq8zw++qpp2jNyrwDRhHu+EGaE0hMO3q3HPlFNGSCw5WyRFChyhg7zZB6McbW7EWmhuSI2aPmLRwItoEyP1Htl/M6qHeWKttko01Xs3dUIIuGjzI2AlBpVvoVlld1Az+QEkPIST9uBku0n1O3sTeRdneSFzVuNtB6EMGvC0T/OwmMOUd+hJIk1tWutG4tCQ/Caoj6ne7ekOtwTMdmpUjrHpfE7ydDgh1bWRxdEiuQ7IZk/riOaFsIyeJXl7ZPo3stEOVuEzzYNM9mJbje2RBDbvBISkbvaIAgNH3bA9p1OvWBFYJz2lmfNgwus7KS5aa9R+cg3RgSx53iEJ2IcZYtEcbCW57R5CAOqV7D/T4SyXhoM0J/ZdZdIQDO4jvZEOK8mDBqn1h69WB5Tz/X6LrVcsyJUCrKU8W2x/Rx2UafPJtomUA5Q9H7kOvq98AxDzsCkrCiI//lcozzxhO3wNKRMJlHMtdvKl1UVfWuRORi/K1cYAwGW/NkX18mkznzr59qnc9Yrtm8iZCHlFdr1mPBT6pvpjOmIsWm1uCp+qrUs997DvNtdVsuSNsNRrfImrXrYzfwaHykT0rHTyoh7nf2QbaIFtqEngzjERSVMLgTNNm+31bouLDgX0R9IYkDYgfV8cUB7ptV4syJUCrKU8W2x/T0pQdl90KXx3fgGWlA8oxxH9xU+hvP4yoA+PsX2qgPJIf1CnWvuyYCHoEW1v4TEstDEQs7M9kse2L2MohrxfzUJqknmELm8wT29i/LZz2eBgIUObdEA5byEXWbFYkCsFWEt5ttj+npSgzHm84Csq8wusQeqynm5YsdiEV1/nWuvZmHKuZ53fC5MAWefJvuxzicwWW6SvSGEvTalNbI5UtlFFh6IT03MAOV9hppNUbqbugHK+8i22XrEgVwqwlvJssf09KUHZdc4q+G6/A8iHKcfjiN57D5S31pH3zzB5OEy52E/IeY4kQDZml2jbXIl5ERPLT4lcmPySbnTMjs7uatu5lCl6lwPIhcmyuNrFgXI4HEZbWxu7f55aJElCY2MjKioqmLnP5/PB7R7siZ+sXypwFDPeTGaIYtrK95liQa4U+ZTyrO33Ub6SLUvUmWeeCQoJzXk8HoojlPatlN0p3cSNik356hvg+9LX6CJqbonEFcR+ejeiT64eHZuyx0TonOypG9k95XezX4kq+KNg4Sx5GBlsyrkF5dQoVgL2F0KRp2zlzYiw5oQN12bItg3UAeNiZ6yY5waDcr7f51iDcjEjZauZXVscHoe82Pac53JLIK8sUX6fP+2VKJqsuBrP4tSRQZWWmOSnnn66pHvKQnUNxOkz7KheuYphQNu1A2ZvT9qoXmVnynmCctf7BuJ7MgcPyfejPzF8B5RzrQTnd0cCJUjAAeUShOc8mocERhSUM74/4ZlZKiiL06bDffYqWHSxMVfRNMRfewl628HxA8rkLbvPQOQ9Gaaa/gBDcX8LKrlA2TE5FiTOcVe5wOUw7vo/4TvkgPKEn8JxPoAJDcqea2+C7ytfB5cPU44riJL6es2joxPRKw+mTGtDixiItJlQO+h+xuDVwvA4zsPo52HpeaJpOlCm6x5uDYJPA8cn4hI6DkHj/NNM0z2mYeJgREWYUYn92SmjKwHOMiGYMXCW/bHmq8ly1NejO08T+W0TGpTFeafBe8mH8mTKKpRnnoS2Z/foRPTKE5TZh02ZmtIF1aAoS/0mwrsBtU0eBtppF95QUKa4wIE4fNPCCDRSyh5nI5/IHyxFQokeA/p3eWH0pk/dOKHHN547zw5FBkQrnuhlfmoLAu5wOIK2gxkcvZoGHL28ARfcXlfaa+YsnlpGRwX7sjVnUIaR8t2bd2zKo78gJzQogxfAked1Xh41FizyfMzgKTcWNuV8ppsC7is9GsI7OajtEqyh6R2HNpIKynQXMxiHf3oYgUkceJaAwCkTXQKGaqJ7q4H4fheyhiub6AMdt/3PD4yT3Wd3yPsjONjazsKtphbmfd3SiIrKIIv37Ztmwt2c1GblLwCKW0dpPc1uCfzRCvBaeQ5sDijnPwflqjmxQfmEFBL514ZGERoK1lnS/oxXUGZDpPSJ/Tr6tgLaERFmPMtJ+AQoeyEGVQRmEiDz4B2GXK5vZszboZjpPdtVxCm7WL5mjTHv9anbAbrGFiZQ3p8GlGUJTQlQ5inF5XzAN50ShRcnLz1mQtkjQu6opZRwxTWS8pQDyiWLsOAGSgJlepthUHzY9CdHPU3kLNbDRAi/p556qnjvawqt5w+AEwVI02ZCaGpGfP0b7LqTpcQhTZsGYdoM+3VKjAXkjW940/5zmjKuQZkBswWlV0fkIKV69MAcHik0MSq6j8ODq+ThnxmBv0F0GHLBn8X4foDMHT07dCh75Yx5uMf3CE6t3o0mKFM2svBuC67DDeDKoMZ2QHn012rJoJyty5mcIFiAftPAmjVrigZlzh9E4PP/AHHhYvA1NeB8AZiH2mC2tyL6x9/DfcWHIZ1/KTjOgtXTA+NIO2L338vyKRuHD9uJWFPKuAflBDCrURPKccNOcJD2JGzn5JX9PDxVIjiHIY/+VzXCb3RAeYQFXObmRxOULQLlPRzkQ3UOKJd5HkeruREF5UyDMC07+83q1auLB2WXG/5P/Q3ct9wOuD2w4oqdEWjXNvT/5AfwXncz5OtvASRykDJgdR+HdfQIIr/4DyivvASYg12dJwQoJwRqnyey27WYQ0jp2qvRWofOewqQwEiDsh0oKF1a0IF/tbVjhdlWCxjiSVV1tEE5speD1O6A8kRdRBMXlINBBD//JUgrLwRXVw/090F/bxOMjmNQ33wVvjv+Dvzc+YxMcuTgpWmMSffe9XnorQeGzddEAuWJuticfpdHAiMFyjwnQOQliKIEUbDzOA8OFpqAYpPya+ugaH6GqcNMXA8qz+hOvlYcUD755nQkRzRxQVmS4L7ocni/8CXwzZOBcD+M/XsR/pf/Df3oEQS//HVIH7qaZYTS178GYelyGK+/gp5vfxVWJOyA8kiuKqftEZVA+UGZgyy64JLdEOhGQ54qFtsMpSOmxqAb5OTgMOd0E++A8oh+Didd4xMWlCk7VODOL0BcvBRcYxM4WYb+9gbEHn0A2q6d8N74UbhuuhVQVRg7tkGYPAVW13GEf/JviG/cMCwphcOUT7q1fdIOqJygTADskjxwy56s+c+zCdOyTMTiMcR1xQHmNIJyQPmk/RRHZGB5gzIlmMg3ek2unpZuU+Yg1Dcg8JnPAR4P1FdfYmpredX5EKdOh/LUGsiLzoDZ08OMYOKUaYiufgTyvNNgdHYi9vzT9p3llOKAcq5Zc34fLxIoJyi7RA88Lm/RgJyUCbuLq4ShGcnAGuNFWmPfj9EHZUBqr3ccvcZ+6ovqQV6gHAwELZ6j5HSFq6eGAjn9vXRQplx5Ajivx9aYKQos0wRHKa0kCZYat5NUGLrtsCIKLI8yRzGyKcUdA+TBYyk7KLtNhFZmzxJV1Iw5D53yEigXKAu8BL87ADpwl6OQKjus9MMc4kRZStvksJiVDJDRu/BtKXuXsrSZsz/JllPaKBWUbbc7nm1ltHdm1VoYFiJ7ALGtFpwllCJ69my5iFihHRmr9xbaT6qfOcpa9tYyjTGv1I2hQChtlqhiBkALlDyvaXE9+uijRXtfF/PubM84oFxuiTrtjZQEygPKHLwuH1xS+ty9Q/ue3EBybUCkxla0SNqhs5y14GBSNJwMQJraPs8LkAQZqq6cAAdGDJLPshSZBFacHfugDCkG6f3UJu1PQzdNOryQzV1nh327pNtYqQ068JADHB1QMoEydZsiejVNakJFZQgcb6UNHiJwIqbWzIJqaGjv2Zf10ENXoqK7Ab69BjAGDlu55m2k1mqx7Z4qoJxunMSUt2/fPmxt0VqhfMqyLIMrJyjTJCWZ8iOPPuKAcrGr1nnulJUAA+WdOpQ9xQcPIeDxu4MQ8kjmoqoa4nEVLpcMWZayyp08ssNK33D6ysF2JhNdiMYjidC4lPmbZzckjATQkee3xMsMvHme/hMYCJkMcE2ohmo7lVk2Q5FEmXmM03h0U0NcSwA4JWHhRQgceZEnY0bbhwJwFGvegKoPVrUT6JJ9nZ6JadETfUoOmA4wokCJQEzmmc5S1+oKc3ZLPWSQTD2yF6qmsP5SCfdF0Lq/bVCYTeoXJayfOnUKKqoqEDcUBE8zEZjBozpQi5C3Gi7RDa/bj/PmfgiKGsUHB99GJN6PPce2oSfaOexs44Dy6G8LxR54Mh0iHVBOzKHDlEd/MTtvLE4CBMq9u0wou0UQHhRTiMkFPMGcqjcCr2g0BsO04HbJcLtdWV9H7LA/2g/TGtwxBkCSBzzHQTM0BtBsMyMPbstEXIsxDRqBqyy5GKAmVcV2PTAQ1Qz1BIMgwE6yb44jVa3JAJs2OwJNAlFitskIggJFuiPwNnTGvulaVxLVCJDdshfESmNqJOFNnjpUjgGtJBIDNhlA0niSf7bfSYcIHiIvwyW52JUx6q8oiAyUd+3ejbhiHwTYVTM6qMgymie3oKqqknqPwGkmaud6cfnpN2JS9XTGsmmumiunIKqGsb9zF/oiXVi/5yW0d+8fZlJ0QLmYr6G0ZxxQLk1+GZ92QHmEBOs0W3YJEChT5rDobhEw6TqTOwFgJgMuAjfazAkAWYiPNDm58wFlAppYTGHR46g9lywxZpet0DN90d60oOyVfdBNYqjkpT1QUlXjIi/CJXsTwAoW+S+pMqbfGIM1dcZ4ZcHFmDSBG6m56d+j8fAJ0LZZsf0eYpzEchX2vDFINUjtEyATQisqHUCG5FBN2A09Lh+oD5F4mLF3UZThFt2IkB3dMm1AFuiOtwyJF6EacfZ3VYsjGo5h9+49iMXsML/2YQKQXTKmTZuGquoqKHoU/nkG/NMBUZLglXw4f95VaKqcgik1M/F+61tY/c69jIEbpBpPY192QLnsn1vOBk9KUH7o1hthPfIQrL7enAIYqQpcUxPcv34Anrp6HDx4EIcOHTrx8dAfampq2Mdz33334Z577snpHMM7jl4jNVWnfLsEyv27AWWPBBGUDYhjzE4WZQZSxNBIxUqqXVVXoQ1R05IA8wFlUlmT6lqSRWiaDkkUGShnS8qWDZR9rgADKgJPYpPEIlOdwpJMk9hqkkkzU5dlq5qJRTMwokxvCfU1/RtTOfMCA+R0gEpg6XP5U+5TD15CJCdiwYoWY/IiZj20UN/IBk+MnECYOiAxdbwbkXif3acE2LplH/udwNjr8rODQH9vP1Nfx2LRQSpnt9uNqVOmwBfyMqacmpBiSvUsXLvkdmxp34QL5l3FWPJ9r/0riQSkAAAgAElEQVQUip4+fj+93wHl0d8eTjpQ/uevfBn/du5Z+OD556Arg0/Qoyleb1MzrnxoDUL1DWUBZU42UXGOCm99dhvcaI7RedfJIQFLs9C3E1D2SjCJxSZAxHYwEmy7J0sWozMATOdMkguU6ZlwJMpYNtl2iS0TuJFNmWzLmUo29bXPHRhQPXM8s40mwSzZHrMTCxLckpe9j/WfnMNMAzE1yg4byUIHEAJTUnWzu9JqNI3aGRAEAXQgoPeROj4d4MqSmx1qVE0d5FiWWpcOCiRXuvZFPJdAmgzipFZOypind8l+xLQIw3bqH6nme7p7cPDAISgpexyzYcu2TdlX4YVhaoNAudpXh4+v/Dzckpupsne0b8ZvXvkRotrw4EfJfjqgPPrf+LgD5Vwu+ukScyfVR4+tfgz//LWvYka4Fz3d3SNwtyH/CapsaMR3Vj+JmobygDIEwDMrDv80DoKL1Gi2uuqE4yg5jQrkgJJ/HzPVpI0zNdJhITdEyvD6wgaQq3PJDqV42LIXZHpuaP3U3qQOrtD3Fjaq/GqXKGza5GnzV3stqHvciB0z0qqmk5tENg9WYpg+d5DZOzOuK+ZcZauQlVgcoiQyu3K2TYhYekTpG2brpGcIGAmINF1lLJPAivIA09zSO4gFE8AS+6TCwJbyBINjLJaY9YANWIBbsgOekLMVqcaJTZOjF31obOyJOWd5imU6EJgJx6zB6uskw7XV0R7ohsrY6FC1/4lxM3W5zZKJBSf7Rb8TCJNsY1qMqboJyAm0e3p6B6VuJNMC1SeZTp06jTl6aaaC6kUyy6msWnH2e9BdhdOazsDFC67Bhj0vYe3Wx5lDW8Y5c7yv8/sWy1hrXIEy2ZnIaSLbx5+uw+zOs2XhmWefweHDhxGL0gk4165ZRimmaYrUSBdddBGCoVBZmDL70GULUq0GvsIAn5LRyeItEGjLQcBTJ0EoIZMTJbyPHNVh0OE5kVuXtjGTE3KkZCX+YTBP1EE4xvFsU6GNkNkjmQMLpXelqyz0d1udSHGSB+6uJ7xbE1fdiK2xtZHOC8myIFgcSATDC7nMCuDoOgpTB9p3zFmhvydUhCeeo44RqBB7SsOALObYY99z5ZhdNeM9HHACAQChg5FWfVnK6mOslbKV8ZlRmUmcpzkbqEOWXObZm3AMIhYGQwTf7YHSo0PTMm/OuftLTM/PHJJyFWLJxPBEpr7OzJJJvvaVqOiwJmkeiP0yNbMathk9L7H50U0ThqEyUCb2y+yynMhAjeaE1iIBEYEfgTd5YnvIaYwXmFMWzS+1Tep1kw6oFLqA2YYH5EMe0QSizD5talDidCAYsh5oufHkOe1j+xqNY9C+xJajxICb+k3voLaSdZK2aWL19GfqH7VD4+3vC58AZfZ9kce5aTLNw6Spk9FY1wBe4HHhVefCaOjGu21vsHecMXkFLl14HXojXXhg3S/QFe3MOl0OU861msv/+4QD5aEiYHajBCg/9/xz7GNPp1Iqv+iyt0h3wBYsWIBAIFA2ULZP4KThSgMGhCcBA97ZOvwtxeU8NuMm+lp1xPa4YIUH7iSa4GEInsS1kzTjJnscTAh8hC6kDEoIRMyJ3bEk5sKSDdhMhTY1BrYWHcS0xIYJaKaWuHrCn/CMZfGTE16uw4CQziO6CZdO54Hhm6INonbObRuNEhoG9teh9RO5o8mxKd2hLuniyh7NfOjjKHiGaAebsSglZpmLLgBxiadLtVlbZnJOOC7ReIbdlSX1NN2hpWxoZegnMVE7eEjuIBNJ7+JsA2DBQ2LhYU5eyWdIziQBprJmPlgD8kiCL9l32T1hlvQi6Ultq7RpTREoEzgnn01V3dtgx524cplu70mqqzKSAPouOZH1L3lNa+AQaN+L5nkCf/vbGLQkE/emU/uUnMdwf2QQU05qzSSZ7ik3orqqCrzIoWaRC64pKjRLZe+aVjsHXtmPfR07mPo9VwAnB5TL/PHm0dxJBcprHl+Df//3f0d7+5GyqHHzkF/GKuTIdc89v0RdXV1ZQdnGg0wMDRCCBrxzVQRaZPBS/vpNBsgHdcR2uGCmALINXTx0kZxNMrdHLFnkwizfdMklmwo5XeMW4FItiKY1lKiX3JXx1gDlmVckDqaQ/9yO5hhYmE23N+8kFJn6Rms8GgtDNZ0wm0NlVGpEr0LWgwPKhUirPHXHBpSDIStd5ph81NfpTqtJpkzBQ772tW/hs3/3bXi95Nk4dhuXyyVi1blzEAz6Rw+USTi8Dcy+2Tp8LSIEOYcMLECPGwi3mYjtlG1AHoKrow7Kxaxt04JLtyAO16AX09q4fIYCKqkiB6ME88RID4y+a7LNukpISMHu6joJKTJOlQPKha/isTZnFtLjYnGLxphunPkFDxlBUP7617+FL3/l3/DBliNQ4wXayCgggSxClslZJTOY0UehqQbirP30zNDvd+Mzf3MeqqrKZ1NOTmzOBUYqs6ABz3QNngYBnEh2tOGFek5msthhC8reBCCnrTfKTLmQFZxa17Qg62CMmS+/1rjYXpX8HLkPmLwFVSQzAjU3dofN/AZDd51llimKVNr5FvquyPSkxKPQzMEJXvJt41So54By4bOcc88svMkRe+IkBeUfYNOmVsSUwsIT1deHcOklC1FV5c95d7KrK4w1j29CX1/6O37BgBtf+PzFqKoKji5TTi4VAmaXBc5rIoMXlL23GxzMiABLzXYImSCgTGO3AJ6BsgXBBIQxdvgr5cu1OI6FGzYIlAUO9PeJVMh5j5yvKGoV8wsgWzudBIeYJ8jZjxyY2H+mmjNJwkSSwUj01QHlwqXqgHKu2NdZmHImJy1aiOkEm+roReprmykXB8pnLZ2Oj330HPT0RtHfn/lCvc/nQijowZ8eWId33z0w7G4kLZmRBOXCl2RpT0wI9XWaITLHL8riNQG4ZaYZYk72EwuL083EYBtzGp8BdpXJKXlJYLRBOZklCuTQMEFLsaBcLGsdCzFlGiNlidqxY8cwnCJn5CVLliQSUmQCZdKJZ8mblvG3xH3LUkH5nBWzcP11y7DmiY0MbNMVmqTZsxpw/XVn4Ykn38G69btZIIShZbyCcsGLk4VW5GGMpqPXWKxo552OBCaIBEYblMN7APnQ4HzKmeyX41WEBe97iWhq5UpDWohcyi3bbKkbSwbljGwiYeAuHZRn47prl+LBB9fhrY17076OohHNndOE2247F0899S7eXLfLAWVG5srofV3ICnbqOhI4xSQwmqBsGhQX3YLrcAO4FKZcbuAY6Sk8lUGZHL22bduWNnXjhADl669bikcefQvvvLMvPVPmiSk345abl+NJB5RPyMgB5ZHeVpz2HQnYEhhNUDZiBmJ7JcjHapkpKFkcUB651Vhu2eYFyhXBirQuy6wzWdTXo8GUb75pOY4e7cXxrvTxYEl9HQp5UFcbwmOr33aYcmJSCgFl0+RY0Czmg5X4zul6M/srxcTg7ahfpRRq2zQSgUNKbKuUfjjPOhIouwQsIBIOo+1gGzR1sJc6ZYNqbGpEqCJEHxL0ahl6iGKXFx4/gL5JNWyC6/ZCUCkn9UDJFQ657GMuscFi/D2ZO0ciWlqJr8//cdq3yuxfEe7pwLHWrcOYsiBIaJlzFkRJBjeeQfmWm8+GElehayboWhNFAopE4vB4ZEiSgEhEYRNFf370MQeUk6stX1A2DA6ayoOzyGlkKFraoSt50YAoFQ/MlsVBj1MoRTu8Z7o78fl/JU5NRwLjSwIssEqkH4cOtUJVBwdXIeed+vpmBENV7ITbrtTgqFrFgos65dSUABdpAzretsMHpxSOl2G1XAJLcI9vUL7h+rOYWnrfvmP45CdWobs7ikceewuXXbIQM2fW4be/fxUVFT5cd80SPPGkY1MuFJTVOA/DGByTefinYoITDUhFADMBshbnYJi53jHxP1Cb+xTOgNKNfCIfXFK0qhN/UvMZAYFy2AZlbQgoE1Oub0iAMngcjtfjiFZTNhf+E9B+kmF8MjkLfU7l+aLymcjRqcNFDgIdGzKA8uU2KIcyeF8XqxJJ6uDL4eh14w3LsHHTPhw53ItLLpmPcDiON97YiTPPnMruL//Hz55FdZXfcfQasp7yYsoWEI/zgJlPQAmzYMZMgKzGKS3fyQvIlFTCLiOxddjQPO4B2k6Sxgq7snKSAUTOrZqBch/a2ogpD1Zf053whqZmBCtsphx3T4Ii1duh/oooTLy8BVkwIEuUuMOESzbACyOx/oroYBke4S0eEcVCTz/Q1Qf0RmmfoljpZc8lU4beFt5EXqAc8AfKOqMsSLtpglI3lnJP+ZwVs0Hqa0rArusmvF6ZBetX4hqL9BWLqfjJTx1QTs+08vO+JqZsGfmAMsGOCV4wIMm5lwtjyOrJCchJRmzbBZOQWV7oHHhHEvDHH0DTzQeKP8IJNigzYD7VAJlNj4X+/n60HTiAeHwIKEuUkKIFFZWVLK1lYNZUeKY0MZNbIYVi2LsEE5XeOOqDETSHwqgLhFET6EXQHQbPD88jXUj746muZfGIKh4c7w/iaHcQO/f78MEOL97fbeHgMQuqVoxFfvyMcExAmQCZ/lu9ZnXJoExMef2G3Whv78aVHzod/f0KXnplG5afNQO1tUH89OfPoqrSYcpDl1xeTJkSusd5mHmCcpIRcpx5wvEzU7hQW/3ED0pVOH4+i+J7ksqMuZTREThRDt3cx5X83m1nH7IJ+IC7pZ3msLzwn19/BtWipFsCB5bwikD5VATiFIHQXDFQ3k+gPMSmLMtoamlBZVUlS90YWjAVvlkNBeUBkAQL1Z44ZlT3YGHjIcysbUOV9yhEQQHPxcFzJ18IVMsSYVoSTMuFsFKNfccmYcP7k/Hc6yGsfx842k0YU8TaHQePTHhQtm3K72DPnmP460+dj66uCB5+ZAOuuGyRbVP+3auorPTj2mvOxOMUPGSdEzyEqRHzvKdcOCiPg1U9Rl2wAXk4MMoyB7fLTn1ZnkJ5li0Wyz2uDsB88v00u6l5mcvzzvxaoZTPlO2MMeRTHIyTEhtJUHZLBqaEIlgxtRVntmxDyHMIohBLZD/Pb84mfi1K1ykirNRi28HT8PhLM7B6rRs7WikU7MQbXXZQvgyW4AFXbvV1uZjy4jOm4mMfXcG2QkM34PG4mBt5TLHV14LAQ1HUE6fO+/74OrZubWMq7qFlRCN6Zdqc8qBNeV+iT30HJ8AQvLCyqMDyAmULzPPatLMqOCWLBAacuAbzVFLhBnwSyMu2rCEALVLT6YhEVejGwEJKdSYbbcZM35soASCGfLKuljy+2aFDHylQdksmTqvrwkUzdmFuwzZ45SNJZRVYJhRFtGPkm/TfSTQhfCIHPCXucZuApJ0wweumFweOnYYnX5+Pe9eEsHm3Ab2wlApjKCi6X6WDgXLnRko/NLgvvAw0XghLcI1fUA4EPFi+bAYaGypybHgW2g714I03dkBR0meiGglQJlsa79HBBUxwJ4Ii04KyYKk8jH4eljY89WLqTOQCZXZPWLLAB0xATO4YHExyn88KyiZ4kHor8xqkJWHodEf5VDUGFvJ9Dsg+9SlijDZLTnelrJD2h2317AAaj+vQUkB5oFb6/pTyxmzP0jriRY6tJ1rq5QZlMnfYPmIDgbiLwMeih8+slAYHo18C6JtN9MXuD10HTH4jA/bMZBwHyyy/+loWTcyt6cFVp32AufXvQhIiti2DAKg7CH2fD/p2GcYhHlYEsNh3XPTwx8+DJHfRsve8WgviHB3i9Bi4xjAlaWfzYloCjvXOwcMvnoX/eaAC2w7oSBNZefyMifXEgmUoYPH/lWPgOulK1JAVzkuwmi4GyPt6vDJlGoooChCyIUvC75XYOcW8znQpveygzANyswbvdBOiJ2FbS2wozB5oAPFeE8puEXqXlNE5Nyso84BUq8M7w4AU4CHk549V0GIczY2voI5NkMrlBqd0wx4PczQa4xzLKWfBbXQLSidgHghCMt0Q8nDG0k0dqq6ju6sbrfv3l8WmLPEWplb246p5O3B6y0a4xC7bt6DfBWNLCPE3vNA2czA6LFiUp4fAeDwsknJNYPL8I1PKWw7iDAuulTrEs3rBN/Qz1myaEvZ3no57n1yMXz3sxqHjmff+cnWrpHYsE5YeBif6wUXbc1+JGq+gLAgCcygxLcrrSq7/EuKqzpzIRIGHyy0xJuF2i9Dpg1IyOzyUG5Q52UTobBX+egks7kaaQh955LCG6DYJeo9Y2IfDWRBqdATmGvA2iOByHExKWjDOw44EHAkwCWhRE/FdMoSOikFhLLOJhw7WXd1d2LlzJxRFGVRVKtDRi/CoyqPi8jn7cNHsN+GVD9k8q9cD7eU6xJ7goe8FzBjdDzo1Jo0TAb6Wg+ciDq7ru8DX9zJgNkwP3t27Aj/87QI89ooJJT5+BWJZOqD1g5MrYAcPyXFP2e/zZxxNMXYySvdISp7Vq4v3vqYIXWRTnjG9Hn39MWzatBcXX7QATz+7GT09USxePBWrVs5BR2cfGhoqEO5XcKC1E1u3tqP1YOcwxlxuUObdJkIrVXhryMiWuZiahehRHZEdAvTjmRnzoBZ4C2KtDv9sA546kakNneJIwJHAyEvAVC1E9nIQ22oKAuXe3l4GytFodFAIzUJBWRYsLGo8jhtPX49JlR8wh00rIkH7Sz2iD0nQWy1Y2vgFnxGbIcpHX0/ADLiu7QTfHGaq7L5YMx555QLc/esabNuvj9tzimUZgB4FJ/nzA+Wqqsphs0x2ErofXCgo06lR13UIooBHH3206CtRFFLz9ltXYtKkamYnfnvjPpxx+hQ8uvptdHT04YbrzsLkydVwu2WQs42i6Ni6rY2F2gyHB59WaaGMFSjTuymzS+Swisg2GWa/mN0pg7cgVOnwzdLha5TZlZO8C9nlTNvvY6IViuvL4ilMwL6nlTW7Epb8ZcBOSv9yyt7nnQCL0lIt9O8FpLbBCR9yMeUkKBNTJk1e0vJcCCjTuqhwx3HN/N24cNZLkIRewOBhflCL8K+9UN8xmO34lC08IDRw8N1iwPXhDsCjwLRkbD+0HN/9r9Px8FoMcoocT3KyyOCvR/IH5erqquGgTN6fca04UNZ0CBSLugRQJqZ8ztmzsXDRJNCA4oqBWbPrsXXrIbz2+nZma775prPh87pgmga7mN96sAv3/PpFptIeWsYSlBkw6xbi3SbinRaIPadHHwu8i4O7BnCFBHD5MGTyNNct8P06pKgBt2ZBMCwI1mj75hb3CdDmpdDHxnGIyRx0Nw8jIMFycQWvveJ6UL6n6DAsGS6Ilgt+dxA8BLhd3hPj0A1y2lIR12KI61HEEYUlGvZSOIX32vLNQOktlQLKu3btYuprdvuEncgsFArKM6r6cfvSdZhZswkcZ8A67oFyfwOiT1kwu9MwZI4DJ0mwyAU528VdngcnirA0fVh4x0KlxvEiIEuw4sqoh9jiJA7yUg6+z/RDmHWcHeT7Y5Px349diH/+RQARUuvnU1KcCnM52+bTXK46JwUoy7KIyy9fhLOWTGfxrp946h1ce/USPPjwOhw61I2W5irc+vGVLEMUXYGiCDl79x3Fb3/7Cov4VSgo19bWYurUqbjvvvtwzz33MJDPVvJVXw9qg9gTgWgCk4d+YowtsjB6+bm3cqoJsUdD80EF89pVNHVpEHW6R2u/g7U33gu70WEfIHQe6KgQsbXZhYMtLig1LsBViKpgbAZLh2DZdGNyYA5Wzr8YZ85eAa/LyygxRy76ycKyrlHQAwNHuw7j1fdfwLsH1uG40gZLMh1gHpvpG/yJZmDKjP1aYNcwhxba1IkpJ0HZDvxC9QsDZVGwsKz5GD6+5C+o8u1n6nODWPKPfVB3mkCaO7m8zw/PlR+B8uZrMNrbMoKk0DIJrsVLob6zEXpb6+AhEEWnC+gE6rkicggCXKcvhrxoMaJrHoXZ32d7FtOhoJjUT+nmPMXTPV2bQh2PwF/rkC4/DLjornIIj756Ge66uwmtndSP7AuJNKuzJ9dixqRaRu7e/uAA2jt6R3T1pQNlDiZkSWR9oP1PlD2Yt+p2uDwBcOORKZNT1xVXLMLMGfXw+d24977XcP21S/GHP72Ovr4Yrrj8dCxdOh1ul8ScwKgcOdKLx5/ciF27jg5Li5XKlI8dO4YDBw6wEy2p5wmAm5ub0djYiHvvvXfkQLmM024qBmoPxLBiaxSTOuKQ6SpfmvvZZXzlqDRF1210kceRKhHr5/jQOtMLzjd+71GT/0aF0IDrl38CZ592PgK+UF5BRJiZx9BwqPMg1rx5P97Y8yxMmkSHMY/KOsv0knRMWVUpiIvK8MHv8ww7sA8FZWrbZstmQUzZLZq4bPYBfGT+X+BzHQM0Duqzzej/hQSzK8Wxiw57Hi84lwtCbR2CP/gpwnd/F9qWLbBMHQhHYOkaOGLHlVWMSctnnAnP9R9D7JH7ob67ETAMmF1dsAwdQkMT3JdfCX3PTqgb1sFKxu8WBEZ2qK1kEaprEPj2/4PQPAn6OxsZEJvhMKKPPgijdX9Jc6dJMqzaevChICDJgKbDCoeB48cgRelKmF04DwffVRbcnzoCrjLOon6t274K//iDBVi/Tct5PYpAef60Blx6zjx8+Y5L8MXvPYSHnnt3GGaUNJghD6cHZQt+rwsul8iiAdbV1eCub3wfy5fMG5+gzJgyi9rVwO5GPvznDYw5r1mzEV1dYSxbNgsrVszE/v0dTF0tSwI2vbsfx4715bQpa5qG1tZW9PX1sYkIBoOYPHkyZFmeEKBsxQ3U7o7ikvfCqO/SwOepsSnnIhvptgicu4MiXprvw4G5PsA3AvfBShwEAXKV0IRPX/5lLJ65DEKRd9b6o3149LX78PyWP0MVog4wlzgvpTw+FJSJdClKHKZBVy4N+P3e/EDZskMNF6K+Dro03LhoO86fSfbkfkAVoNzfgvDvOFixAfrHSTLcl30IrhXngpiysGwljE3rYcbIkciFyB9/A/Wt9eArqxD6fz8EZ5rQjx1lIE4qZ7G6FnxdHbq/9DkYh9vBB0Pw3/4pSMvPRWz1w4g9+RisuAp52XKITS1QXnwBZk83OJcHnmuvh+fam6CufQ7G4UOQz70AwqTJ6PvON6Ft31q06Em/p849DfX/+mMINbUJe44FxKLo+vmPYD720InzKpn1XKs4+P/+GLg6G6x3tS/BP/1oFZ54g5hziqw4DtUhL+bPbERl0AdF1bBp20F0dPVj6WlTsPrnn8GXvv9nPPDMOwwL6FbPrMl1mDO1jt3Hf29HO1oPd6OxNoSW+hAjcfVVARzu6MU7O9pZgB+fx4U50+rQUlfBSPrWPUewr71zUBCrTOpr0rwEfG4IAoeGhlp86Wvfw8XnLh6foEyDDwY9IHAmfURvbwzBoJv9n5JTVFb62AmDPLFpYPQfxcWmDyFdSWXK1DZ9YMnrC243CUVgkzLembJlWAi2xnDFhj40d6gTQ0Vd5KdKC7w3IODp5SEcmu1lsYPHSyGHOkkP4G8v+ycsP+18iEUCcnI8ESWM/1r9fWxoewGcPF5Geer1I5NNmbHluApfnkyZ9hLDpOQtw2NfB2Y2pr1GSVehbluyGcumvGzHs46LiN3XgsgfAEtJ0clyHISaOvDV1ZAXngH3Vdci8qv/BAQe3r/5HGJ/+h1iT65hv1d+/ydQ1j6P2GMP2wzY7Ubgjjshzp2Pnm/dBbOz006q4vXCtXwFA8ToE6vBeTwIfuu7FKkDfd/5BsxIBN6rroH7ho8Cfd3Q3t2E+Csvwve3/wtm5zH0/egHsGIR8KEQOK8PLA7r0ELag0gYVl/fMFU3jU6rrUPlN78D7/mXnFCnq9u2oOv/fA38dvJETzBlgYN8NofAlzvANYTZP+4/ejq++Z8X46EXVGj6gKxqK/z47j98BItmNyMcjaOlsQJf/+EaPPbiZiw9bTJW//zOQaC84oxp+NFXb2RmRkni0dkdwee/8yAuO2cuPn3zOUwrm8SKL3znQby99SD+/rYLcNMVi3Gkow/zZjbit39+Ez/83Vp2AEiWTKBM6utpk6rR1RNBbW01bv3MN/DRq88dn6Bc7u1gKCintk8gnUw3WQooM38djgfPXKY55uzTEGzB/uM7maqSimGZbHH5XUEEPRWszrG+wzAMHXXBJrR27UFcH+49nuwv16th2cY+LNsRZfbjTIWnj6y+AfFD7TCHBMk/8QzHQayogOj1Id5xFFbKIipY/jwHV0MTxFAI0V07bRtTGQqdVrdNduPZlRVAlZyRRVLqi5Cvmtlr+5TuYaoommNZcLG50U0DmjE4cUChXbU04IIZV+OOD30RLtmd9fFkYBtmO8oQMJqszbsObsUPH/kGenA0bWY/gSc1lwDdUAddu0l9ucAl38Ghyl+LgLsCh3taoSbWFK0/tkGQszsnwC15mKxMy4Bh6kw2OY1yWUZLffTIfsTUMGvvxLoFEHCFIMte9EQ7bbUnsck0YagkXmL9jqj9Gb8FijPuEof2Pf2aI5lXe+ugGipbG9lKRlDWNMSV0kCZbqQsuXgl5i9fgt5YP1q7j6LGR/PTia5oHyrcKj66eAvOmfYiRF6xQfkPzYjcxw0G5SQ4ud3wf/pzEJqa0PfD7zFADXzxnxB9+H4oLzzDWLT3lluhbfkA8Y3rQfEohfpGVPzwZ1DfWofwL34GS6HoI4kiiuBIZU3PXXsTXBdd8v/bs3+A+Ka3wLk98Fx8GSxNg3nsCDwf/QT45hZWv/8734K67QMWQYnqyMtWUMaS4WLWdahvvo7YSy8w9fnQYvE8zGkzEPjCl+E9exXUndvQc/f3gC2bwRspa0ng4FoJ+L/YCa7eBuW9R87AV39yAR57eYApE+v91HVn4647LsWX//URuCQB3/q7K/G9/3kWDzy7cRgoE7H7P5/9EO64aSVu+eI97DLI/3z3NvzqodcY6fvbW1bhh7/5C2PJ317PbkUAACAASURBVPzsFfjBPS9g/Xv78cCP7sAbG/fgP//0Cn7zvU/g2de24l9++dwg36ZsoDx1UhU6jodRVVWJGcs+hh98/bbMoEyLsNCSjHstSmJJ3teFvjdX/dEAZZETMKthIRoqJrPNvz7UiPktS/HmrrWIqmGYpo7dR7ehO3IM1yz9BCZXz4RL8qAn0oktBzdixeyL8LPn/i+6o8fTDoczAN/BKG55sRvBcPZI7MEzl2Lyl/4Je75xF2Jk60nnuCkIqLv+ZgQWnY62X/wMSlvboPcKXg94jx9Gfy/MIXlih3ZQCAYx9QtfAh8Iof1X/8lUaUY8Dr2b7Fal6ddjbh5/WBVC/0w/MMQjnTZnr+iHx+XDbSs/zw41r2x7moFLVO2DolHwfg4NoUm4/qxPoj40CXuObsOajb9Hd6yrOACyADHuxVeu/RcsnrU869Ijjcy77+3Ath378OErVqGiIpixvqrF8acX78EzW/4EUxwMMAInYum08zC5ejqe3vwgAyuTM0EgTAeSuEEhVXmc1rgYdaEWdniZVjcb9YEmbGl/B32xXmYG2tK+iYE0lbpAE25ecSdq/LXojnRhw+612LjvVagmHSDpECMnDjICU9mS0xqLcsWBeZCHVdv8c2JPFyQsnboKF86/Gn98/edoPb77xOGB+nbZghswqXo61u1+EY0Vk9DWvR97jm4ZBryTq2biysU34+VtT2P7oXfTHkCaK6bixrM/jUpPFboinVi36y/YtP816OQCT04znMRs+2Q/dIlefPqCu1h/ntn8MAzLQEyPpNWqlQuU09mUyTx21Q1XY/Ki2Th9ylyIvIj+eAS/feVxHOk7Dq9k4COn7cHlc9fCLXUBGhB/bBLC9/AwyZ8qtXAcpHnz8f+19x3gcVRX2+/M9tVKq14tN1nuxhWDG+BKb8Z0MHEAY0qSLwmE8v1J+JIQWigJCQkkYIMhNGPAYDDF4N4b7kW2LKv37X1m/ufc2ZVXfbVaWZI9F/RY2r0zc+fMnfve096T8OjvmcbqWPI6tGPHw3TXPXC+9za8m9az3izimmJNRAGcVou4+XfDcMV1sD39JLzbNzc+J89DlZkF0z0PQDN+Ihz/eAne1V9DCgFoaEPJ89BfNB3x//MYXB++A9cH7wQ34Rw4tQacrpXNM8Wfen2QAq3jCgGzkJ4N7czZbOOgOnYEXJONG6cDDDN5GBdVgkt1MV//3sLJeOSFifhht78B70kLffX/3Yzh+VmY/+gSjB6Sgz/8/Gr88dWvWgRlosv962PzcNlFIzD1theg16jx7gsLsHn3CZRX23DFRSNw/x/eR2piHF58Yh5efWctTpXVY/Ezd+L+J9/HvqNl+Phv92Dl2v146vXIQTmvXyoCggiLQ4Ap/xr86ZfzWgblENdra5VgWgq0YxpBQAjuvEUsX7486jzl9kC2o9+fCVAmLWFwxihMHHQJkuJSkWJKhyD6mUZi99hwqHQ39pzaDF/Ah6vH3orBWech0ZiEcksp05azk3LxY9FWeP0eHCzdheNVBxsvSD4RI3bZMGOPHeoWCARUZJqaMBG69Ezo8/KQdt1NKF/8GgJWCwIWKywb10FwOaFJTkb69TeC0+lhHDwE2ows2HZsgeT1QnA4UPnhfyG4XIgfdR6y73kA7oIjqPjwPfiqKllEsS47m+2YfdVVzLxFL37KnMuRs/BBeIuL4K+rhWFgPrwVpSh86kkELJaOPq5G/QUVh+1D47D1/ASI8Y19y2ZDMqYNuQzDcsZiQNpgHK3Yh0pLKSyuOuwr3o5SSyESDElYNOMJtghuPb4G146/E3tPbcPSDX+DJxCmKUQ6ShFIlnLx9D3/QqIpudWjCLCOFRTh9cXL4XA48dtHFyI7O71NbfnHgu34y+ePwa9yN7IK6NR63D7lIbg8dhwq+xFDskaB51XQqvSwuGvx3f5PGLiNyB6HCXkXIdOcA7VKx8AzO6kvTtYcw7GK/dhVuAFlllNso2LQxLF5mpuSx+Zqja0cu2l+Cl62WZwx7Br0T8uXARkc65toTEGFtQwbj6zCtuNrECDHOgCDNg6TBs3ERUMvx+aj32HN4ZWNwJY2D3dO+TlG5I5HubUYp6qPY2TuBKw9uBJrjqxk2jv1Ic19eM44zD1/AZbvWIJj5fvRNzWP7SkPle1mFicai5GNPY19RxaBCksJfjy1BX7Rz+7rwkEz0Ce5P+id1Kp1GN3vAthcFhyvOgSLsxarD3wW3Pw23q22BMqU3UFxKGS+Nhj0crRs2MLYUqCXwKK1m/qUVcgZPwTaAWkw6gxIi09EvcuOOqeNWQyoXvKU/mW4ccz3MBtKWLR1YGsG7K8YGGlIw8aaV0EzbDgDWNJ+Hf9+lQVF6abPhO6imbA//0f4jx05PS9Vaqhz+kB/6VXQXjgZ3i9XwLXyswYtmU9Mgm7iJKjy8qEZNQaSzQL355/Ct2OrnPYUajwP3pwE3dSLoZ9zGYTDh+B47y0WMBbLRpz+nEbN7q2laHA+kYPpFhG6ueWAiQK7jPh6x2w8/Hx/HCkONARsa9QqPPWLa3DtzPPwyjtrcOnUYZg0dgDTmt9esVXWlF9dhKf+tQrLvt6NOrsb9904BY/dOwdP/esrtqn7n59Mx+/++jlyMpNw5cUj8MD/fYD0ZBNeemIe/r50LQ4dr8D7L9+N5d/sYX7hW66cgNc/2Ig//uuriDXlgX1TUFnjgMsnwZh3FeJM5tZBuT3ikLYi4H0+H5YtW3ZOgTIvcUg35+C2KQ8ENQge1bYyJMensYXE6XXgoy2vwSv4MDx7HG688G6kxGfgwKkdyMsYjp0nN8DldbKF6fNd77LFtlHzCLj4hzqMK2gZSNSmeKRfPw/GvHzo+vaHflA+bBvWgDfEQZvbFwWP/BzuwhMwDBiAQX9+AZUf/Bf2PTsgURS6Vouc+ffCMGwYDt0znwE5r9XCfOFkZC98APZtW5g2rTKZMPDJZ+ArL8Opl5+H6HXDNGIk+vz8EQSqqlC65HU25Lynnod91w6ceuFpiGQWZ5pWK6HFlCokF2Bu+d3mgPJULT6anQwhpbHDVQUVW5RvmPhTGPUJ+ObHZai0lsEneKDmNbB66pCfPgIPzPkdthz9HvWuGtwwcQFsHgue/+JR1DuqkByXzl5AX8CLekc1vKJs2qbPQqktjQYW4DEqdTIevvmP0Ldhuna5PHjr3RXYf7AA5JP8/ROLkNMGKNM1iiqO4+llD6NOLG8kL6PWhMeufgEbjnyDDUe+Bv0t10qQmFnW7qWUDgkZ8TnMCmPQGtk8OliyG1OGzEFh9RE4PVZ8snMpHB4rzPokXDn2VuQk94dGpUFSXDpK607izXV/gc1dz9wwZG4mGdJ5h2SPwbQhl2LXyY3YfmIdXF4bA0BqRp0JV46+lYHpVz9+gN0nN8EvNtaG1CoN5k/5OQPit9f/DYfLf8SNF9zDzv/epn/CG3Aza8ZNF9yL7OT+iNfHo9peAYfbyqxL4/pPwuJ1L6Gw+jDMhhRcNe42ZCXlMm2exn6y+ijeXPsXZpEirdykM7P7TzVlIMOcgznn3cCsBF/s+i8zq1M/0pibtmaBXpIElztICCLJNbMJlPV6XcOhLaZEBQlEOhLoxXMSRqTX466J65FlPsAer1hihuu1FHg2ig0mbD4pCfH3PgjOaIL99VfAqdQw3fsg+Kwc+HduheOt/0Byu+TxkUbdfyBMP3sY0GjgXvomvLu2NXIvaYaPQtxP74NYVgL3t18hUHQSks3erIoRT5HXi34OVd4QeD55D+5vV0Hy0LtyBnMvOUCTr4LpASfUE6oAXoI3kIq3Vl2GR19MgtV52ipH6815g7Lx3CPXI9FswMmSWqQkxmHx8s3478odGJ6XhX/89iY2+j2HSvHU66tYoNeTD1yB0UNla9OXa/fjlXfW4toZo3Dx+YPx1GurkJRgxG/unoV3V+7Auh3H8OyvrsOEkf1gsbkwIDcVbyzbhL8sXh2xTzm/fxqjj9bHmfDrJ56F2ZykgHKsfMq00x+VOxEjcsaib+ogBAQBLr8dbq8TW459jyHZo7G9cB0DoKvH3QbyndHi5/DYmKmxwloKvdqAvae24odDXyAQXPRCbz+lQU1fXYdxJ1rR7hiRgBbquDhkzV8AXVYfFL38LOLyhyDrrntR+Mffwl1UCEPf/hjwuz+gbPG/Yd2yiZmntKlpDEidB/cz8BWDHL6kBety+lA5KaYZp109F1l3L0Lxi8+i9rtV0GZkIPfB/4Fgp5cYrK+/vhamMRNQ9MwfYN26CbxOj7Rrroeh/wC5ckeTJvq8qPv6SzgOHmh1w21JUGPJlSmQKHc5rOk1Rlw6ah6mDJ6FXSc3I8OczQCLXAC19ip8u2858jKGYv60n+NAyW4MSB/CFnKq6vTm2hcxOHMUzMZk1DmqMChjBIpqj2Hd4a+g5tS4cPBMZrkoqDzQxGLBYXL/y7Domt9Ap2nZn0wgvHrNVmzfeQCjRgzCN99vwRMP340+ORltkqKU1ZzCnz98BNX+IkKAhjuN15vx+NUv45t9H2P7ibUMwEotJ+HxBxdfMtnyZOK+GEOyRiI1IYstlg63jS06aw5+juE5Y7G7aAu7RwJDimEw6eIxss/5GNpnDL7a8wGbe03BKtWUidunPIgdJ9aza5Mm3aA8cSqM7TeJAexHW99g2mrTecvmhVqP+2Y8wZ7PX1f9DnXOalw19jZmxl66/m/MFE5jSovPwjXjb0eVtRynagowc+S1bCNywaBLUFpfhE93vMU00PSEHMTp4zE69wIMzj4PK3a9gwPFOygLvGFsfZIG4MYL7kZxbSEuHnYF20ws3fi3NlNfWtKUWyKXaE1TdrvdjDgk5LfvCCjTnjUjzo2bxuzH+X03QsW7AI8G/nUZcC7VwF9IecQEtDx4k4ndp+iwy/nweoM8X/x+ZvEKb5QSRYFh1Fek1KIm/lwCdeh07HPJ5211c0zR25ohwyHWVkOoqoLk77h7s9UXPMIveDNguEqC4ZYqcMkeSFCjpG4knn/rQry+XA1fEwsiuS/MJgOrm2B3ktZPJVEF+AMy4ZRRp2bvI9UvdzN+C4ml2SaZjCBeNgJajy8ArVoFtZpnv1N/Mm37BYFFXE8bPwjF5XUYOjALC2+egt++/DlWbjzIIvZDrTWfMo0hIU4Hh9sHidNAP/BKcGpD14Ly44//Pyy6/0ls336EFW3vrmY2x+GxR29ASkpSs0UxVqBM5RvJVEaa1+VjbsKwnDFsIbN7LCirO4Wjlfvg87uRlpCDK8fegrz0YfAKbma6rqg9xcyOdPySdS/jQNnOZouH5BEwY3UdxrQGysGdMWnCef/3HGq+/AxVn3yEpKkXI+3q63Hy+T8xvzGv1UCXnQN/TTUCDifTiJNnzETO/f+Dwicfh23PnsasP6QdxMUhcerFyLztLth3b0fJv//JTN1kZtKYE5lZXGWKR5/7HkTSrCtQ+9UKFP/9JbmPWgVj/hBo09PDSvOdnglSQIDjyAH4a1r2pVPPOrMGS69IhtgElPul5OPyMTejqPoY0ywuHn4lC/Zasu4llNSdgNvvwui+F+Kuab8AVfQhTZgAe1j2aLzy9ZOwuGrh9rmY7zkjIRuzR81FRmIOBMGPelcdPtu5FNX28saLnJ/H5H4yKGs1jTcJoY4ni0rx99feR9/cLGRlpDBQvvXGyzFuzDAkmuNbfQ0ob/npjx5Ble9kI1BOMqTgF5f/iW0SaMyjcs/H2+v/2siaQtYYrVqPzIQczBh5LZt/W479AK/fhVM1x5k7xCt4GwKwSJO8aPDlTGY7TqzD6gMrmgVCkdY5tu9kTB4yB59sexMllsa5qHTNnKT+uHXSItS7a/H5rv8y61DTAC6tWovbJj0IjUqHpetfZkCycPpjTMunZ+UhXmAA5Cu+d8aj+HjbErbhuGLMzfjuwGcsy+CC/On4YPNrzCpg1MbhkqFXMSvAloLvsebgF0FrwWnR5qUNxc2T7sOek1tw6eh5OFy6B/9Z83wzLT78YXSG0Yu4r2VQPr0YdwiUAeg1Ai4aUI5rRm5AkpFiQURINfHwfJAM91c8BGsQmLtrIe3G6/JGDtrRHIzznVCNrGJ1vb1+M9bsuwR/+lc/bNwrnFmlnSMSklT87I7pyEhNYPN3/c4C/OeTzXA6G2+MYsLoRUAVC/P1ww8/iiFDp+DkSZmso7taamoy/vPvZ1iCdtP7ihkocxwGpg5lC0B2Uj+msZEfLyepL9vtkx+LTH5xWhOun/ATDMk+j2kH+0t2YNPR1bh18n3M7EaaRKW9cdAVk5tXwOT19Zh42NVqKpQ6MQm59/8MxsFDmWbsKStF1m3zGSgWvfgMfNXV8iNgpmQJvFYH8wWT0OfBX8K6ZQNKX/s7BJesidMOW20yMTBNn3szEi6cgtovPkXFB+8iQGkN4U2lgnFgHvo88AsioMXJv/xZ9kGHTNKh+dSCBVtmJGzdfC3yHE5k6/DlJYkQkhqbr0k71GuNmJI/B5cMu5L54vXaOHy4+TVYPeTLljAwbSh+cdkf2S2/vvoZzBo1FzlJ/fDs5w+jxlHZYH6TQU3HNGdRCMDutsInthDpHOAwIG4kfn/XSyzArKVWb7Hh2LEiZi05VVzOtOYbrpuN88ePREqyudXXoKDkEJ5e/jAcqGvkU07QJ+I3V/+F+VSLagrY3Pp425twkrkWHNx+J9t0DEwfisvPuxHJ8enM/Hyscj+yE/ti3eFVWHv4ywYtlvyuJK+JedNZrENu6kBsPPINth7/gV03pB2STIZlj8XNkxbiy90fspgIOTsgPBeUR5Y5F3NG3YB0cxZW7FiKo5X7G4ETvWNJhlQ278gtMzhjJO6Y8jNsOPo1vt37MQSIzP979djb2PN6d+Or6JMyAJeNnoel619BWf1JZiZ3emzQaY2YOfxajB84DYdKdqFv+iB8v38Fc/+E3mUSMGnnFHg5IDUf04Zdjm3H17KNBV2rtRYtKFssFrkghZvendOy6Qgo05hUHNDH7MT1ow5gXJ8tUKscTDsWTyTBszwJns0SxFpi0DqDJuPuWrRD1yWCQyMH3Xk8DDe4oR5XA+j9kCQ1iqpH45/LJuKN5WrU2c88vpA7gzgy9HoN/AERPl+AaeFNW48B5RUrVuDDDz/EqVMl3QrIJKCkpCQ8++zTIDrNrgJlWs0yzX0wOGMEC8KZPvwqGHQm5uNcvf9TlNSeYJoI7aQpIGzuxJ8wn/LOwo0sCGVE7jjmD6NF8odDK1HvpBzCsJcvIKH/ATuu2GqDztt8AlIAV/Zd98I4ciTK33ydpUMljD8fKVdeA+e+H1H86isQQykQwRSm1MuvROLU6bDv3oGK995uBNqJk6Yi44abwceb4CsvR+2Xn8G+dy+EkL8qOPMoDSppysVIufIqpu2WLfk3M5NTEFgsml/N4dtx8Th6XjwkQ/NUC3IbXD76Zkwdcim+P/AZMx/a3fUsuK6g6gAzRRMA9E8fjI1Hv8XUwbOxtWANVu55v02tqdWFWwTi/an404J/IiulT+sLfNBXvnffUSx5dwUe/sVdbfqUadO66cD3ePXbP0DQNLYqUSDVw1c8w/zB3+77DFOHzGHaIgVakaa//tAqFsmckZiL3KQBLE1r6rDLQGBeWHmY3TdFO5PVhhaIi4ZegUn5M/HF7vdxquYYbpm0iPFy7y3ayu7nx1NbWUQ3NXKpzBp5PcYNnIojpXsYuJEJPFwjJPBONKTgmvF3sA3p8m2LcayqMTDT3E6Lz0Z+xgicP3AaimoL8M2+T+Bg/nCAzOTkZqi2VTBrRk5iPxj1Jrz+/dNwemX3iEalxfThV2Nc/6ks7qLCUozbpz4Im6seB0p2MksMmdDJIkDXyzL3ZbKiTIdl299kPum2GlWJchyXoC5NA9daTdawE8jMbAHU1NWh8MQJeDtZupFObVCLGJ1dg2tG7EJu0j6oeL9cmKI4Hr4fEuDdokagSILoklqk3ozFO9cjzkGB/lRTOZWHZiRgmOOGamwdoKWNMgebqy9WbJyEFxanY3+h0C5DaLfeE6unbAenSYisSlRLNJux0JRXrVrFSDrOBOF3ewJXq9UYMmQITCZTbEDZIMI8uXHpRtI+rht/J7KS+jGT596ibWxnT8FfI/tOYNrN/uIdOF55EJeMuAoWRw0Olv6IyUNmQq/WY+WeD5jGOHPkdThReQjrj65qbAaUAF25B9etr0dWtb+ZtkxBWKZRo+GrroTnZCEzJxsHDGQmZnfRKfiqKk5jPIuizkLCmAkMQN0FBRDCcxZJ08jKgjY9E/66OviqKyB6fS34mzjo+/ZF5g03wfbjbth2bpe16Fjx4AKoNWvw0bQEuPsaZVWihUZR2IMyhrNIYrI+1DurUVx7AoU1R5h2aTIkYGjmGOZrLa0rxJGKvSwyOapGvOJeNRZc/GvMOf/adi1KDocLFVW1yO2TAZ22dWYQYvZ6+eMnsb92K6BqvOkiLXJkzni4/C4UVh+CltfLRS84npnoHV4b4nUJuG7CfCSbMphLZF/xNtjdFmZeHt5nHMuNp5SnDce+YQFhFHxVUl/IQLpP8kD0Tx3MgtsqrSVM0w3l1pOMyIJA6VUmvRlWdz0qrMXNTNQEiPHaBIwdMJUF1BFICsHobDoHbZ6GZo1G/7QhzE9fVH0UniDw0/dx2nj0TxuMSksJEuNSWB5ytaOcvUuhNYTGl23ux2ReWn+S+foJcPul5jNAprEfqzrAxk73NzV/DtISsllEeJn1FMvHbg+UbccCCBSaQUGEtLmma5BGFGqyYUcmB6Eoa/ohdsCSk0XwNvHndlRTpmvQlRINPkzqV45Zg3cjI/4QOLLf0/92LYSjqQjs0MJ3DBCrOUhkKSUWK0rqPxuaikjGOVCUtbqfCM15fmjGWln6EzTk6QXc3kxsPDARr7zbH99sE9BOxmYPkApZN5wArwPnLgdXvb15YRBeC7HPbHCqLvQpf/HFF9iydSvq6zuXEhMLiRIY3/3TBUxjjomm3AIo03kpVYNSoEjrIMIGmkK0GGnVBqh5+tyPgOhjfxMJBEWp0uJD7xyl59BrpdXoGUUbRRA3a24BefsdmLXHDqOnubZMxSzkSOYIpMZz4GjRocT8SPq3ckpOxbNgLiIpachpjODykXQJqDlsHhaH7ecngGuHapOC5sicTYuzTIYh1/UONQIwWmTJNC2/2p1oAjA4aRx+ed2TSDYTLWDnGmmd6378Bm+s/gt8GmczkpQQMQ0NOzyYKfyqlK9M5nQyZ9M8I22RpRrxauhUOqh4DfyiF16fBxJHugaVLpHlQL+HUp8o0KutjXS4ibjpXVNcBTEe0WlD6VKhPnQPBKocVMyMHv5sGp4RPbvQmIKkPu1JlvHXUxoNVR9uMnYijKFG72NL12t6btKU648F4DtualQDVcZk2eXTdL9JsrLb7TEDZboSxWwl6b2YMqAUF+ftR1p8gUwoQk3gAZcaYrURkpWH5OXlai5nS+OJCEAEHy+BS/eCS3Czv2W3ihpWdw62HR6FN5cPwFcbAbvrzJutoxI1zU3BC85VCtTubq648FpwWRcBrYEyXZSAIdpGeX1UuvGXv34ME2bcBnNCfNCPGe0ZO3dcglGHB+66DMlJMn9peIvKp9wCKHduhJEdTQsCV+/DRdutGHPcDVXbG//ITtpDe4V8yV9PjIc/y9AiNWF3Dp33qTAt72r85LIHmZk12kaLekl1EV7+9PcocR1p1RoQ7fmV4yKXQGug3NYZugKU2RYgCMzjcqoxLe8IBiQfhVpFsRxNXvrol+nIBdMdPZso/oKoQ61zINbuHoV3P8/C6m0inC0oJt0x1MivKYFzFgPRaMpsQ9YJJqZAIMDIQ3718OOYdeOvcPhkPXwtOMAjv5nO9UwxG/DSY9ciLSWxV4MySYH4r7VVXlywz4FRJz3Q+8IqyHROTD3maL+Gx9FsLdaNNsGdrQen6YGagARoBSNmjZiLayfdggRTUpBiNXIxEr3qkeL9eH/N6zhm2QvxbN5lRS6WbusZLSg7HQ6UFpfA38SOqtZokJmdBXNiIuNuN4/sj7j8zHZdHiEBUO5ynFbAoGQrxvYpw5D0IqTEVUKnsYIncOYCcqnWs7CRVkzqsV+Ig82djKPFA7FuZz+sXB+HXYdFuL29875lUN7WzHzN8VpIfS6FpNK3nBIVS1C+9JZH8MYnO2B1ROnDi8GEy01LwLp3fo6sjOReD8oMmCUJXJ0PQ4+5cX6BC4l2Aarw6ii9aL6Gu8IEFWA3qrF3gB778g3wp+mbUWvGYDrE9BTkX85PPg+3Tr8X/bPyodcZWkz9Cr8omastjjrsOLwRyze/DYtYDvS8QlgxlVNvOFlUoEy1wP1+OOwOFkMT3sglEGei4jk6tu6YR/SHaVBmo3S3SORCtVgStH70S7JjaEYt+idVI9HoQLzeBj0BNFVIOUuaBB7+gBF2TzxsTjNKa5KwdW8mNu02YMs+EfVOkTLFem3rvaDMUXCJCgadhvnI2muEQZR+4vRQqHxzRDrbQJnJg4DZLcJY50N2mZcBc6JbhFqQWJxQ+1JrT6pd/z09KR8Fb3GAzcChPk6FiiwdbKlaSEZVhxevrh9xC1egmxB4mHgz8tJGoE9Kf6QnZUOv0UOnPQ3QlLLk93thdVlQUVvCgtBKrYXw826Wc6m07pcAA+UjAjzH4hr5lNsbmbzktMZIR95u2R6tzewPdWpOVK48OodaJUKnFhCv98Ns8CExzguT3g9Vk8DA9sbbo7+XeDhcPKrqNCgqU6Okkkd5rQSLQ2pUAapH30Mbg+u1oEwlG+dfdT7mzh4DIhanWR2c2i3eLqXBHCuqwgtLvsfx4mAubljPsxKUg/dHm2RKp+F8EuATQH9T4FjvqOsos+lwKg6STgVoOPZ7OJtVb3n5mL+fPAkiB5VIAXQ8+OCGgy3ZzMsgggpgi7wgk5v1QKt8b5F3V4yTWz116QAAIABJREFUQLn2iADnAWOHQDmSsVBoXbk/E9WBNJbS05nGAv/oLL3zVWn31uUaGhL87H3qRWa/du8MQZ9yLzRfZ6bEY83bv0Tf7CQcOVEJg16DfjkpIJLx1holbf/yz8vwrw83NOtyNoNyo5vtzfO3c+tUBK/DGerS3jM4W+7zDInzTF5GBuUAHAfiACG2D4qAuNSTjkpfSqdB+UzKRLlWbCXAOUvA1exsMSVKypkBqa3o61gFekXjU+6Tbsb2ZY9hz+ESUDFpqoW5+Ok7MWFUvwYJUXQ45QiGA/Wjz3+K5xd/d+6Ccmznj3I2RQLnlAQEr4j6owE4DxlknukYNgJlqzoOVpWhw2cNGb6ozofKowWlnnW2hfKto+UU4Fj1sI61kJWf0tM6eixdqb39bsdG07W9mWVX/r+x3hQgTvPmZWOpOhZvzASoJnpyclKLaYmdIf0Ij76OBpRz083Y+tGj+GrNAfz6+eVQa1R459n5mDN1OLtBqj+5bc9J7Dx4CndddwES4uWJ/tjzn+K5ngjKLaQON6Q+xnBuxJCzI4ajUk6lSKDnS4CTJHgsAqz7OQh16tgjAAfEDeah70t+jujk4XeICJwyQG0xR3uKxgAhSaxwQiQ53I1HzEFN+ehR3AetUYwNLorFqj3q5+ik2jVHtU3A1dr2QhYop9PppPCKFvQhRQ0ajB3f0bHdjAS4XE6sXLmSpURFC8o7lj/OgrYWf7yZ+ZXvvG4iUpNMCAREbNh5HI88txxFZXW4/5ZpeOjOS5CWbOpxoEx+EZ9dQMAtgRdlT5DcJIgqQK0DtPEq8OooZnfoTETU4BLhc9ILJjXQAxINQ/RnbbK7k4iUJIrJSztFRlShNEUCPVcCBEtUlM1bySFQqUEYEVnMBk0xBAkjgLiBVAMyutOKAQmOAkBfkQGIUZ4k7NK0vlI8SkcVMAIcRhITRaNrhX46evjZA8pt3zmnVqmbLbeUU2c0GjsqMxluYgTKOz95nIGwzeHByu/3YcyIXAzun45Nu07goT98gAOFFYzghPzNj909B4/dNwe/fenzHqUpu6sDsB3kIVpo590EmgisjALihgYQl62Wg4KiaF6rCNtxNTwVRhZkxIK8iOCfc7F4qRhYuliQUsDHQerIQsBJUKkkqDTRawZRiEM5RJFAdBJgKRzNXX3Rnaz5UbEAZeIocBwHtGUZ4DryLrZyEwoox+rptvC8Iyjq1NrVey4oL38cRoMW/3h3LZ5/8zuMGdIHt141Af98bz12HS5uxDg2b9YYLH7mTvzxH1/1GFCmF8hySID7sBZSK0EjLHoy2Y+4IQKMmWqoNB0AZgkgQLYeV8NdGg/Jf3rnzEGAmnPInLkxalTkK+DnIYoypWHbTQKvFqAhQFaaIgFFAizavrOaMq0pzhMcNKXpCij38DkVSf2IXgfK25Y9hl0HTmHB/76D6noHI4U36jRweojHtnGbO+M8LHl2fs8CZb+Euj0ivCe1bSe7EzAnBGAaEUBcljpiU7bXJsJ6NAjITbhvuwKUQxIXBNKYW55OLCCFI45jqsWuAHIPXzeU4Z1BCcQOlAFNqaIpn8FHF9WlzjpQ7pNmxrZlj+JkaS3e+3w7vL5Am4IZM6wPFtwwGb/96+f4y5LVzfrGPCVKL8I8pXGVqKYXJf9P3W4RvvZAmQ4kIEv2wzgoAEM6acxh7ucmJyZA9Nkk2Iu0cJfGQfI39+10JShHNUOVgxQJnOMSiBkoHwfUJWkx8SnTI+moPzn0GDvj3432mtFOoc6ONZrxdgqUNWqN1PSi5MTvXKCXCytXfhF1oFeKOQ4fvHg3Lhjdn6U9tRdlRIFpLrcPP/vTh/jom929D5SDwMwbRGgyfIC+jXwMQQWfNQ5+i54RVLTUFFCO9vVVjlMk0DUSiBUouwoAvjRVrhaltIgk0OtAOdFsbmZn7KzhUSX58P6yz6IGZQLZEXmZGD4wE+oIAqAouKzG6sLWfSdhtTfn2O7xmnL41GJB2m09ARUCvJGqvLY6IRVQjuhdVTopEjhjElBA+YyJutmFeh0o5+bmNkcACfAH/A0E61SKMbyRJq0ixyGF/DRJuKV6tSrRjbff/zRqUI714+tVoNzOzRMYB9Rxrdu32TexD/SK9TNRzqdI4FySgALK3fe0ex0o33HH7ZJcKJwllTZUUXK53KitrWE+B1GggvEyALO+KhXUKjV4vvFx9F19XTUKjx7E4nc/VkA5Up9yB+arAsodEJbSVZFAD5GAAsrd9yB6HSg/9LOHJAJXFcdDDAKziufgdDhRVVEhBwKEgTYDbp5nIM6SyGm2sc/oHx7VleXYt3sb3vqvXE85nDxExfPQqHkWPU1c1VRIQqNSsX9DGjfRe2pUfPAzSlKX6dyIxYvykmmsgQBtEpo3tVrFCMzJD039qNIU9ctKNuGHtx6KXenGWAd6dWC+KqDcAWEpXRUJ9BAJKKDcfQ+i14Hyzx56UCIfLoFigAEt/c7B63SiqrKyAZTZjYU0acZ7SkAsA7Oa40FATr9XtgLKdrcXk8/rj2tnnQevN4BvNx7G/oIyXH3xSJRUWmAy6mGK02HT7hOYM2UYispqkZmagLHDc0GxXrsPFuNIYSUG9UvDx9/9CLfH1+gpxxm0uH7maFRU2/DDjgLk90nBXXMvZBy2BwtK8dSvrkJ6ijk29ZQVUO6+N0y5siKBXigBBZS776H1OlB+8MEHJAJUnuMhcRxEBq48PE4nKisrQZywQbs1AzQZnGXgDoGyJkxzrqqswF6mKTc2X3t8ATx69ywsmDsJ3244hIsuGIw3PtyAu2+cgi/X7sePh0vwm3vm4GhhJYbmZeLp177Gz+dPZxr1l2v248jJSuRmJuHWq87HVfe9ioo6e8NTpk3FRePy8Nazd6GwpAZ3/GYJpo4diJeeuBFrth7FhaP7IzFeDYPBcMZAWfJLqN0TYUpUB+aroil3QFhKV0UCPUQCCih334PofaD8wP0NmjKBG+iH4+EMasqUjkT+ZDIHEzgTcBOAk/k6pB2TWZr+ph8C5R9bAGXKNX7i3tm46YoJePmt7/HYvXPw0apduPHy8fjk2z147o1v8dr/3YY5U4bi3x9uxItLVuPTf94PCr7+btMRfLFmH0YPyWH5yLMX/A3ltbaGp2wy6PDK/7sRU8blMRP3r59ehsREI174zQ14c9kmzL9+IuL0/BkFZcpTtuwV4Dmua5s8pINzVQHlDgpM6a5IoAdIQAHl7nsIvQ6UH3hgESMnVhOwqnjwvIoBsJU05YpK5qMNacVMrDzP/MiqoKZMv1P/ULBYVVUF9uzahrebaMoEyv9736VYePNUfPjlTmaK3rynEMteWYhPv92Dv779A/75+1swbeIgvP/FDjz772+w7O/3wWpz4b8rtmPXoRJMGzcQP503GZfe8wrKamwNVJsE1iteXQSvz4+URBOWLN+Mg8cr8MJjN+DEqRoMG5QBr8cNvV5/xjRlcmY7Sqg2qwqiQ91sRjL2q/ZTsFs4ruXoa8agRalU7GkKUPHEfd3Z5Lbue5GUKysSOJMSYAVXQj9dcOFYgTIVpFArecodekK9DpQXLbqPoqfATNAq8g2fBuXyikqqsxUWmU0UigTCQVAOmrFDWjRpyjVVFdi9ayvebhLoRaD8m5/OxPVzxuKqRa+itNqG5HgDtn70G3z5w34Goo/cPRt7Dhdj3Ii+eO71b7DotmnMR7x42SZU1zsxfkQuFt16EZ765yqUVtZh6/5TsDo8WDhvCh69dzZe/2A98vtlYNTQHHywcid+Nv8S/P3tNXjg9qlIiteeUU2ZZo3gk+Cs8iHg4MA34b8WBSBQp0KgTg3J3x6X9Ok52FRTJjBWGfzQpruhNvrAyk8x24bQTr5zh+a10lmRwFkrAYbFfg7+GhVEuyrmtZRJcLEAZaoCZz8mQluWrpCHdGA29jpQvvu+hRJpx1oGyDwryUX/OpxOlFZUgBPDfcqAOgjaLPqa54KpUnJENmnPBMotacp2lxcj8zKRm5WE77YcYdSZVJLxymkjUF5jhU6jRnycDvsLKjBmaA6q6xxISYxDvFHL/MoWuwdVdXZGKEKR2HT8hj0nUGdzY/TgbOT1ScHqbceQlGDEuKE5KCytxYCcVEYoMmNiPp7+5RVIST5zgV6hOUOWBkloPoNoZx5wi3AWi/Ac00HyRQbM4aBMgKxJc8Kc54EukQMXVgIysrN1YGYrXRUJnKUSYPYkQYK7VoDjcBCYY2xkigUoCx4RzgIVNBUpsSn/dpY+z6a31etAeeF9CyUpCMrqBk1ZBuWy8goQ7LKKuCzIqzEo0wcCS4sKRmHzPAPlvbu2YUkT87XV0Zxp60zNie4gD4n03vwOAbYTIrwntJC87VPnhUCZXnJNqhvx+U7EpcvWDaUpElAkEL0EaJNsORKA76Qu9toyB5jyJej7im3UU25lJxD0TPlqeaDEDN6ji/4mz8EjeyUoc0QGwrRkPqgJy4Fe5RUVMvd0Q6pUY/M1i9YOgjL10YZAefe2c548JOK5TxqzS4D1uAgvBYW1ozETKAsaIzRpLpjzPTCm8eAioCKNeDxKR0UC56gERJ8Ey1Ef3EcMQCvlVqMWDQcYzBroTRpWgKalxvzaLTIw0MccOL+a/SitYxLodaB8730LpZDJmkCZfMpkvg6BsiiJjGeZBXIxkhH6V462biAbCX4WMl9TStS5zujVsWkDeCx+uIoBX7kGUoBrlf6aNkJcEg9jrgtxaWqodO1r1x0di9JfkcC5KAEGykf8cB82xF5TBhAXZ4Reb2hVtNFUI6KTsayZKBpdL9prRnE5dkhnqidFe83O3KNISmkUrTP3yZFPWR3SlFmwl6w1EyhXVFQwZi2ZYjMEynK0dch0rQ4DZALqajJfK6AcxWMEBK8In0OE4BNpG9TsHCxiWwVo4nioDTzz6StNkYAigdhIgEC5/ogAz+EuMF8zUI5jGSCxbp0F5c6AVkfvRSaqOrPrVmjzEc19RnNMaPPRUdmE+jNQJu2Y/MlyWpSsKdttNlRWVQX7nc5JZo5ltjOjfzlowiKww0F5yTnOfR3tAyEGslZNWPLTbtX8FfU1lQMVCSgSgALKXT8JFFBuX8YMlCn6OgTKZMomwVktFtTUUEGK0yYHmSyEh8Q0tNNAHUqRIsCoqizH/j3boYBy+8JXeigSUCTQcySggHLXPwsFlNuXMUfR1+BVckqTimcFIkhTthAoV9cwxU32I4dVhAqaIMgMQT7OkJ+Z/q6uKsf+3adBedaNv8TiT3fA6vS0P5ou6tE3LQHr3v3lGS1I0UW3opxWkYAigS6SgALKXSTYsNMqoNy+jLlF9y2UKPqa8VkzRi8ZmJmmzEBZkhm8gqxdjGYzGOhFvzeAMqPd5JlP+cCe7XjznWX4xa8eRfaw2Vi/eSsCvsY1mdsfWux6ZGemYMPnryIrM/3MMXrFbvjKmRQJKBI4AxJQQLnrhayAcvsy5hYtWihxpClT4msroExc1+owUCatOqQly+UbZaCmoC/KU2bm6/c+wf/9359woqQWLper/ZF0YY/MjHR8teJ9ZGZmKKDchXJWTq1IoDdLQAHlrn96Cii3L+MGUGbaL0/+YhWrZ0zm6+rqGnYGOcJajsCW06DklCgK9ArVVCZNmvpVVxMo78D7y7+Ew+GA3999GnLo9jUaDcaPH4/4+HgFlNufE0oPRQLnpAQUUO76x66Acvsy5oj7OgTIpAETKOtUPOotFlRUV0NFAV1hZRoJlEmrbgrKpElTP6vNiuMFR/HavxfDbrf3CFDWarUKKLc/F5QeigTOaQkooNz1j18B5fZlzEA5VGSCmaWDkdh1TFOuZkBLkdaMtCKoHYeXbmxaJcoXCLCo7ccffwJ//vOfkZCQANJUu7MlJSXhd7/7HVJTUxVNuTsfhHJtRQI9WAIKKHf9w1FAuX0ZNwJlSoeSgVk2X9fWyObrcFAmMzUD5WB6FKujHFa60eXxoKK8Ar/7/e/x+OOP41e/+lWXJMy3f2une+h0OlxwwQVsg9A0cZ35xoPMNkuXLsUbb7zRLkMOrxdhnuKDMbV7NxsdkYHSV5GAIoG2JaCActfPEAWU25cxd9+i+yRGGhKsEMXYYZqAMgMuhIFvMPqaCTjsc8pTdrpcKCkuwVNPPYUnnngCjzzyCPbv3w+v19v+aNrowahAgznUBKJEfxYIBCKiiSNf8j333IPk5GQFlDv1FJSDFQmcvRKQQTkAz2F9F9FsKoxeCii3//60Dsr19aitqWXsUUy7JI049G8w+prM3uGgTCZup8OJkpISZroOgfKePXvg8USXp0zXNplMGDlyJEaNGsWA1e124+TJk9ixYwcqKysZOLfVCJTvv/9+BZTbnw9KD0UC56wEiN7WesIH935j7AtSKDSbbF4poNz+68XdHxboxQQWNGHXVFWxYK/ToMszYJbN13L95NB3MvWj7HN2BEH5maef7jQoq9VqBsSXXHIJMjIyQH+zCPGgpkyBZLt378aGDRtQX1/f6t3GGpQ5rYiEC3wwZWraKMPWvvCVHooEFAn0HAn4nSIs+wHfKY2iKXfRY1FAuX3BMvIQ5ksOkocwZi9GAlLF/MoMcAl+g0UoNEEtOQTM4bsfBspOJ4qLS/DsM890CpRpTEOHDsW8efNgNpvZnfh8PjYmiqamz+h6giBg27ZtWLFiRasm8piDMtUyzvXCNFhihSGaNla8Q8OBj0FJRckvQRCaVnM5s4Tu7U8jpYcigV4uAVGCoxxwHtCD80RXGag9CRiNRhgMrVeJau/41r5XClK0LbnOFKSI9pnQcdEW3uDuW3ivnBIV9NeGQLkqCMqh3GTSiuk7TTCwK6QdU9AXac8yeIOBcklpKZ575tlOgXJmZiZuv/12ZGdny0QlkoSCggJ8/PHH6Nu3L2644QZQABc1IichUN65cycD6aYt1qDMBK6WwMeL4DRUbzrsihLAawBtVgBxWWqojdGVVaMz+p0CXKUivJUqSEELPfn2RV4XfOAKOHfmpVGOVSQgS0CEKHIQnWrAGQAfetliLB4C5NaqRHWm1F+MhxnR6bqjelJEA4txp+54LtzCe++VCGx5ViVKxQhBKA2KKkTVW6wy2IZFV5OmLPuWeYgcENKcQ/BgdzpRWlaG5599LmpQpk0CRUtff/31zGRNQV00CQ4ePIh33nkH/fv3x1133cUmeGg3Ulpaitdff50RlpwJUG64Riu4yGtF6PJ9MA9UQdWCNt3m3JEAv0uA7ZgIb6EWku/0Rai2tcDrIfHqho1QjOehcjpFAueeBKjwjhiASvTQtpfdf7TA05rwSFNWQLn3KBLdAchM4fvpPXc31FMO2ftpMJXV1cynzNi7GFATGAcd9ZS3HNSOicWL/gtpi6Qpl5dX4PnnogdlMk8TIE+cOJEFdR04cICZrsvLy7F161akpKRg0qRJTFMeMGAA0tPTmbb8n//8B0VFRWcWlNtYvniDCH2eD/EDeKiNqogXOr9DgO24BG+hBqKnhUnMqSFyakhUXBlUZTnS1nteiEjvSOmnSCAWEiAg5iU/OOm0pU0B5dYlG61sojXpxuIZd/Qc3QbK83+6QNKqqHQjVYdioVtMM66sqobFamVaMf1QBSnZhC0TiYQXopC9znKzOxwoKSvHyy++GLWmTLvJO+64A8OGDUNxcTHefvttOJ1OpjETbScrmqHRMC165syZmDZtGovApn6HDh3qMaBMA6GcZl2eDwkEzAYZREl2TRsnsW8QcIqwHhfgO6lrGZDZVioacGVbJ6UpElAk0KoEGm9wowUeRVNufYopoNz+68fNX7BAkss1yuArBw1wqKqphs1qC4u4lotQyNzX1JewW9aew5U1m92OUyXFePXv/4galEkDvummmzBmzBjGDrZy5UqWUkWmadKWyTdDvmYC5gsvvBAjRoxgQV6LFy9mfuemrSt8yu2L9nQPXidC29cHTTI5nCXmm2/UCJAlEZLIwVfNw1eigeSNLYT2ppehI7JV+ioS6CoJKKCsaMrdsW5ydy34iUweEkxzIn2Y/q+prYXNZmMAHQLrEM1mMHmZaV4MlClUgvCGA2w2O06VluBf/3g1alCmyOtZs2Zh9uzZbCNApmvSkg8fPoz3338f/fr1w2233cbAmbRl6l9XV4fXXnuNUYP2NFBm4yF3vUYEWZyl0Ia84RfZ1CAJHPMfS10Q/Nkdk6urFkvlvIoEzoQEFFBWQLk71k1u/l13MVCWY7dkbZiAubq2BhabTfYlB7Vo2WQt5ysTroQAmbBFkCQG3lZLHYpPHMd/3nonalCmqTBo0CDceeedrLITtVCgF5moyY/8k5/8pCFogkzXmzZtYhp1S1WpultTbm1qx/qlb2uh6o7JdSYWTuUaigS6SgKxfj+VQK/o04S66hm3t2Z2x7rJ3TH/TokFa1GeMmlrQeCtqauF1WZnkdiUt8zU4hCrV9A7yVybkpxnL0oSO95eX4fiwuN4Y+l7nQJl8iuTtjx16lSWl0wvCGnDe/fuRWJiIiMVIS2ZPid2r/feew+1tbUtRkwqoNy7XobueAGVayoSaCoBBZQVTblbQPnOO25nKVGhIK6ABJDmXFtXy0ovMk5sBsZBYA4BctjzElmIktzs9fUoOXkCb77TOVCmc9HO8oorrsCECROY/7ipgCgnmWg2P/vsM+ZLbu0lUkBZAWUFchQJdFQCCigroNwtoHz7bbfJwcBEX8lKNMrMkaSVupwuOSI7GNxF34cirUNhSATGBMqyjRlwWOtxqrAAb/33o05pyqHpQLzXFIVNQV+5ubnMf0wvi9VqZYUuiGaT/MgtkYaEzqGAsgLKHV2Qlf6KBBRQVkC5W0D51ltukUJpTiIL6pL9t5a6enjd7gZ6TVa+MZj6FJ4CJWf1yaBMYG63WlB0/CiWfrA8JqBM5yXBkDk7Li6O+Zgp0pq0eMphbq8YBR2vgLICygrEKBLoqAQUUFZAuVtA+eabbiIFGBLHy1py0G9cX1sHj9st58TS96exN/iRrCuTLzkE1gTKDpsFRYUFeCeGoBw+NUJC6sgLo4CyAsodXZCV/ooEOrLGRCItJdCrd61D3UYecuO8eVKIDIQGwfzHkFBfb2GaKOOdDjNRB/m7ZEAGkT7K34e0ZYfNiqqyYry59P12NWUqKkHmafILkxZM16I0LHoZaAKTH5laiOOaTNRktqa/6VjSkun3EKkImbHJvJ2WlsbSqMgfTn0oUIxoOZOSkmJSTzmSFzCSPrF+6du6Znfs+CKRgdJHkUBPlUCs308FlBVQjmSuczfMnUvpsXIqVLC4BGm8VArR7ZZrIDcGZVYzin1GkzaoSMv9JMBpt8FaX4N//WdJm6BMgDl58mRWJ3n16tXIz89nAEs+YqoERd9RWhSBLIEzbRCISOT7779nxCGhqGwyaxMokw+cilIQAF977bUN4EvfEZinpqYyoG8KTmzTQdq+JGHp0qV44403ggQqkYivc31i/dIroNy556EcrUggXAKxfj8VUFZAOZI3jLv2uuuYTzkUfR3ShK0WC9weNwNaBsDBszUh8GoI/AqBt8tuhc1S1y4o0wSdO3cuC+Ii/zAxdpF2e+TIEUaVSZWgqCgFpT8RWBPNJlFurlmzBnPmzMGQIUMYwIZAlY7/5JNPMHDgQJYuxbR+lYqdm36Sk5N7HChH8oCUPooEFAmcHRJoC5TpDnuTNaujG5ZQ/950j/RMoi2LGT5jO3rP3BXXXCNpiByE4DUUaR3UlD1ujxxZHUTkhpMH/chs0E3KFjoddtgs9Xj9zbY1ZcoxvuSSSzB9+nQWuEVaMIHu2rVrmWZLNJtEqUmmaCILoVKSZJ7etWsXK9uYlZXFNOSQ0Oj3VatWMZav4cOHM42ZaDlDVabITN7TNOWzY6lR7kKRgCKBSCRALrrWqkTJlsaOFJeJ5Io9ow+t537JB7U28qI8PWPkndsoEZGV6AVMcaYObbi4a66/TpIrQFGEs46xetHcIN8ugSW18BKJoR0dfcaoOYPSa2COFEW4XE48+NDPWjVfE7gTSM6bNw+DBw9m4EqaMF2PiEC+++47jBs3jvFa03VospLWS322b9/O0qMoeIsAmb6jPiQA0pQzMjLYsQTANBnI7E3npRdCAeWeMtWVcSgSOPckcK6CsigKGHzlAPQ/vw/UKvXZ++BZDQP59gJ+Pzau24TKby1IikvpGCg//fTTDduzhsjm4K6NmLoYnSYjF5FbyJQd+iy092k4Cc/DZrHg4mnT2vUpk6ZMPwSs5MMmzZbA9uOPP2YAPH/+fAbe9DlpzEePHmVUmmSinjFjRgMFJ/mcSdMmTZn8zWTapvPQ56dOnWICIc26S0A5PD8sNN3C7f2xmIItXSMW51XOoUhAkUDHJRDl+33OgrIkYszc4YibpMJGfA8Bp8tjdlz4PfcI0Q4EquTCBVTtr3hlFbKL+yM1Ib1joPz8iy+GZzudBt3gvTetVdTUwBLyMYc+pyAxSz2B8tQ2QZm0W2LrIkIQosekqGr6IfAlKs3MzExW/YkAm8zY5BfOycnBtm3bmEmaKDiphjJFVxOgE+hu3ryZ+Z+pH4Ey+ZnJnE0biD59+jREeIc/1mgDvXidBFWqH5xWPF23MnRikYNgU0O08azIRIdKHofOQcF3Kgl8kgCVKdD8Gj13biojUyRwdkuAqIVtagj16g4VjzmXQXns3BHQTwa+FD9GAP6zc37YOPjKg9TTLgGWr3zILcvrOCi/8OKLlJ7cgBsh7bglqbW0QQwnFKHfyThBoHxRO6BMQBkyi5OZmcCV/iXtlszZZK4O+YND35GfmH4nIA3xYYeiq+k4ChSj7+g4anQ+Og9p2wsWLGDBXrGIvqZKT7qBXsTnAyrDaStCg6IsAt46Aa5qAb5jBkj+JqUaI5iSBPa6IS4Y09XQmVUKKEcgM6WLIoEzIgEJcNcIcBxUIVCriXjTrYDyaVCkBjD8AAAJHElEQVSWPBy4LqiGd0aefysXEV0SAjVyNo/oEmFdFSUov/jii6xSYLh8QlpvU+t/g9+4yaBC1lUySlAfa309LmnHfH0mhRdr8hBeKyJ+kg+mDE3rYCkC7roA7Ec4BMq1kDpisVFL0PbxIX6wBL1Z3SSa7kxKTrmWIgFFAi1JQPRLqD/ig/ewQbaGRdAUUA6CsuiHUMJD9JxdgW2iKKHqlAVulx8anwq6wwb0qxzUcU2ZQDmkAYeLKKQBh1lTmV85PDWq6TwMadlkTp5+NoOyXoB5ih/GVJncpLUmiRI8NYIMzJWRATOnlqDJ9iF+KKAzq0F1QJSmSECRQM+SgChIqD/qhfegEVJAAeW2no4oiWhkviZQLuYhuM8uUKb1/sTBSjisXugEHqnlyehXlR8dKHdkurdm3ibxkjIo+5TPdlAWYZ7iaxeUSa4BrwB7uQdCuR6+KrUspFYamcVVWT4YcgWYMvQRAzLtqjhRJkDpztbgyggWMGGTQWktS0Akx6TELFStLemMpIc8F6xijNJ6kgQIlC1H/fAc1Cug3M6DUUC5g4FezwV9ym299k2/awmYwwO9yHx90VmtKUcOyjRfxYCEgEuEzynIwMm8+E0aJ4HnOWhNKqjJT62KYCEWJXBOAXpbAGm1fsQ5BEAQWc55BEfHfI0LcBIrYOIyqlCbooErQQ0hTgVOFSr7GfNL9qoT0rPnvRJ4ZwBJ9X72o/JKUNGmKuxO2PvFA14Dj9pkDRxmkqMa0Chy7CkPXAHlyJ+EAsodBOVng9HXIRG3tJizyo6t7OgJjANNno+iKUc+YaPtKXkEGMo9GHfcgyGlHhi8EtQBAmRq3aMxs8omAPw8D7eBR1G6FjsGG2DJ1oPXn9vBamTaUtX7kX3KjclH3Uh0CNB5heB71TyngVmeeA4eLY+yFA02DTHCmqODaFIrmnO0L00Mj1NAOXJhxhqUSeVI1CTDrDEHUUmCW3Ch2lt5uoxw5MOLWc+Yma9bAuWQGTKUg9ySptxWqhRxV180dSoef/xxVghi69atDUQkMZNAB05EhSiefPJJxn8di+hrXt8xTbkDQ22/qwTw9gAGFDhxwWEnUi0CVEL3gHB7gxV5DjVmFXYMMuDoUBNEs4ZxpZ9rTQqIMJV5MfGAE0OLPdB5qUhq5I3k6NJz2J1nwO7hJgRStJFZUiK/hNKzgxJQQDlygcUalDWcFgsHP4R5eXdAw2shSAFsqViHP+x5HE7BGfnAYtwzZqBMgV5tja295Z4Wl5CbNATi9QTK06bh4YcfZgxbRI/Znf5Oyn2mQhM0ll4Pyi4B+QcdmP6jA3GujoR0x3gGduB0bj2H70fG4/AoE3jTWczo04JMOAHQlbswc4cdeaU+qMiXHGXzazjsGWjA5vHxEJN0zMSttO6RgALKkcs95qDMa/HQ0F/j1vyfQsNrIEgCNpStxv/u+hWcAUfkA4txz5iBcihPub3xtbaUNC1QQf3IfD1n9mxG9EHEIN0JyHRflKd8zz33xKx0Y3dpypJfQtIJB67ZakeKLdBdVur2pkqL31vi1fh2nAnFQ03gtOcImpCv2OrHlO1WjC1wQx2IHpBDQnXreawdZcLB80zgjOfWBieqiddFBymgHLlgFVCO0qfcElV4k1oTDU+hNdbHEDsWma8vu+yyyJ9aF/ckMpG8vDwGzl2lKZOfw6CNY+YUiQKegsFcZK5lpSE5CW6PEwEpAJ5XNTJfspQ0SWTHxuniYXHXgiZy06aq9WHGFguGn/SAb/I1p9GA1xDDkATJ54ckntaiOZUKvMEIyeeD6JP5zNttTXdb7R7QdgcSR2GWDisvToSQHImW1/IAqLxooiEZvoAPbp8D4FVIMqbA4qplZiy5fspp8NOqdNCp9XD67M1kyiqiBe3pGrUOifpk1LqqQFy91EKbSfrOoNZDrzXC7rZClATE6xNR765FQGiDnSggIeWIHXO32mBytsCUoOKhTU5h1/LX1YHXaKBOTkbAYoHg8chEui1E1FcnafDJVDOc/QwUmt1M8Bwnh/rRONtq1I/kKUtaghA2Z0LH0Xdalcxz7wl4Gsm2M1OCkfyotBAEf7PnQp/r1Qa4/Q6IwYTNljb2NHbq5xf88Iu+FodDciC+ZfYOBt+zlt4tOpj60vnoXfX43W3eXleAcmfk2ZOPpXkVy5QoWiebaspbytfizz/+Fi7BxURB6yxpzeFrQVfLKGaa8p9ffJFZwVoL8GqJxUuewHKjvXro99BSSGUfCZRZjWa+e7UiYvU6E6BMi//Fw67CyD7joVFp4PW7YXXXs4WcmtmQiE93LEWdoxrThl6GtPgsZnbxBzxw+1worjsBm9uKWSOvxRtrnofDa2s8hwQJKSecuGGdBXGuxgs8p1Ej9YprYZ48FZxGi6oP3oVt+9YGYDYOHoKs234Cy4Y1qP3u67bnJhUL0+uhTc+Er7ICIoFDG60l3a81f6nLwOOTC8yoGmYC1C2ACTiQHGlzE29IhC/ggdNrg8vraAjgMGkTcOuU+1FUXYBKawnrO23opVh3+Gs4PDZU2UpR66hk59GodDiv70SMyB2HT7e/DW/AA6/fA0/ADRXHISdpAFLjs9gcTYvPxOi+F2JzwXdweuhlFlFaXwSLk57X5RiQNpSNqcpaiiNlezF58Cy8vf6vqHNVtyod3uLDJZttGHXCDb4Fs7UqPh59FiyE6PPBeeQgNMmpSJwyDdZN6+GtroL7RAE8pSUsdSq8BdQcNowyYdf5CeB0jbfTKk7N5mCyKR1bjq2GX/AxkOEp3w4cAqJProMODoMyRmDCwKkw6RJQ46jCt3uXw+FrPO9oAZyUPwMGrQk/HPwcPqH5pk7Nq6HmNVDRZpNAnt57CmHjOLZpoc0TqzYXbDSW3OQBmD7iamw+uhrHKvc3ADMdPyxzNEb1vQA7C9fDbExmc+BkzdFmQJlsTMPs8+biWPl+7Cra2OJzSDKmYtbI69jGzeF14HD5Huwt3tawmZJryKuZPGi+XDzsSvgFL7YV/MDulTZ/bLPXpMUalENlaLsaOLrj/AEhwLiv9ZPCyEM6kafcFJQJeOs9tSi0FTTwahdYD+Ofh16CQzhz5uyWQLlv5SCkxKd1KDjz/wOeYrMTYT59PAAAAABJRU5ErkJggg==;" vertex="1" parent="1">
                    <mxGeometry x="50" y="10" width="485" height="520" as="geometry"/>
                </mxCell>
                <mxCell id="3" value="" style="whiteSpace=wrap;html=1;fillColor=none;strokeColor=#FF0000;strokeWidth=3;" vertex="1" parent="1">
                    <mxGeometry x="120" y="430" width="270" height="90" as="geometry"/>
                </mxCell>
                <mxCell id="4" value="" style="whiteSpace=wrap;html=1;fillColor=none;strokeColor=#FF0000;strokeWidth=3;" vertex="1" parent="1">
                    <mxGeometry x="60" y="310" width="60" height="50" as="geometry"/>
                </mxCell>
            </root>
        </mxGraphModel>
    </diagram>
</mxfile>